<svg xmlns="http://www.w3.org/2000/svg" xmlns:xlink="http://www.w3.org/1999/xlink" width="380" height="160" viewBox="0 0 380 160">
  <defs>
    <clipPath id="clip-path">
      <rect id="Rectangle_256" data-name="Rectangle 256" width="380" height="160" transform="translate(1173 339)" fill="#fff" stroke="#707070" stroke-width="1"/>
    </clipPath>
  </defs>
  <g id="complexo" transform="translate(-1173 -339)" clip-path="url(#clip-path)">
    <g id="JavaScript_frameworks-pana" data-name="JavaScript frameworks-pana" transform="translate(1211.946 319.75)">
      <g id="freepik--background-complete--inject-487">
        <path id="Path_1628" data-name="Path 1628" d="M256.9,47.354a20.749,20.749,0,0,1,4.487,3.162l4.8-1.7,4.5,7.114L267.1,59.551a20.585,20.585,0,0,1,.939,5.41l4.6,2.183-1.845,8.217h-5.087a20.749,20.749,0,0,1-3.166,4.491l1.708,4.793-7.114,4.507-3.625-3.589a20.748,20.748,0,0,1-5.378.935l-2.183,4.6-8.221-1.845V84.167a20.749,20.749,0,0,1-4.5-3.166l-4.8,1.708L223.922,75.6l3.593-3.625a20.921,20.921,0,0,1-.943-5.41l-4.624-2.167,1.845-8.217h5.087a20.651,20.651,0,0,1,3.166-4.491l-1.708-4.793,7.114-4.507,3.625,3.589a20.749,20.749,0,0,1,5.41-.939l2.183-4.6,8.217,1.845v5.087Zm-7.251,9.667a9.035,9.035,0,1,0,6.848,10.8,9.035,9.035,0,0,0-6.848-10.8Z" fill="#e0e0e0" fill-rule="evenodd"/>
        <path id="Path_1629" data-name="Path 1629" d="M211.689,31.625a5.091,5.091,0,0,1,1.575.5,6.721,6.721,0,0,1,3.786,6.252,6.828,6.828,0,1,1-13.091-2.924,6.739,6.739,0,0,1,1.893-2.505,6.638,6.638,0,0,1,4.2-1.523,5.075,5.075,0,0,1,1.635.226c0,.048-.584-.117-1.611-.077a6.63,6.63,0,0,0-4.028,1.611A6.5,6.5,0,0,0,203.818,39a6.043,6.043,0,0,0,.508,1.793,6.127,6.127,0,0,0,1.047,1.639,6.445,6.445,0,0,0,7.476,1.676,6.527,6.527,0,0,0,3.339-8.656,6.667,6.667,0,0,0-2.965-3.158A12.421,12.421,0,0,0,211.689,31.625Z" fill="#e0e0e0"/>
        <path id="Path_1630" data-name="Path 1630" d="M217.038,24.487a2.038,2.038,0,0,1,0-.238V23.54q0-.979-.036-2.82l.048.06-6.078-1.329.109-.052-1.611,3.4-.028.064h-.068a15.375,15.375,0,0,0-3.964.7l-.072.024-.052-.056L202.613,20.9h.169l-5.237,3.339.06-.177c.4,1.1.826,2.3,1.269,3.541l.032.089-.068.073a15.077,15.077,0,0,0-2.3,3.283l-.044.089h-3.859L192.8,31c-.427,1.905-.886,3.964-1.353,6.07l-.1-.2,3.4,1.611.1.044v.141a15.206,15.206,0,0,0,.689,3.944l.036.109-.081.077-2.65,2.667.024-.234c1.055,1.664,2.187,3.444,3.331,5.237l-.226-.077,3.541-1.261.113-.04.085.077a14.936,14.936,0,0,0,3.267,2.3h0l.1.169h0v3.754l-.149-.189L209,56.571l-.214.1q.806-1.712,1.611-3.392l.052-.1h.113a15.016,15.016,0,0,0,3.944-.685l.109-.032.081.081,2.659,2.655-.238-.008,5.237-3.319-.072.205c-.427-1.208-.842-2.381-1.257-3.541l-.032-.1.068-.077a15.061,15.061,0,0,0,2.316-3.271l.044-.089h3.859l-.157.125c.483-2.135.943-4.149,1.374-6.066l.081.165-3.388-1.611-.077-.036v-.109a15.178,15.178,0,0,0-.677-3.96l-.024-.073.056-.056,2.659-2.655v.141l-3.3-5.265.1.032-3.549,1.241h-.036l-.028-.028a15.6,15.6,0,0,0-2.417-1.857l-.644-.4a2.243,2.243,0,0,1-.213-.129,1.669,1.669,0,0,1,.23.1c.149.077.371.193.661.363a14.9,14.9,0,0,1,2.465,1.825h-.06l3.533-1.285.064-.024.036.06,3.351,5.237.048.077-.064.064q-1.208,1.208-2.642,2.675l.028-.129a15.307,15.307,0,0,1,.713,4.028l-.077-.121,3.4,1.611.1.052-.028.113c-.4,1.921-.874,3.935-1.345,6.07l-.028.125h-3.887l.149-.089a15.348,15.348,0,0,1-2.356,3.351l.036-.173q.616,1.74,1.265,3.541l.044.133-.117.077-5.237,3.331-.125.077-.1-.1-2.667-2.65.185.044a15.259,15.259,0,0,1-4.028.7l.165-.1-1.611,3.4-.064.137-.149-.036-6.09-1.341-.149-.032V51.648h0c.205.338.056.093.1.169h0a15.621,15.621,0,0,1-3.351-2.364l.193.04-3.553,1.261-.145.048-.081-.129-3.323-5.237-.081-.125.1-.109,2.655-2.663-.044.189a15.46,15.46,0,0,1-.7-4.028l.1.157-3.392-1.611-.129-.06.032-.141L192.442,31l.028-.137h3.9l-.145.089a15.338,15.338,0,0,1,2.364-3.392l-.032.161L197.3,24.169l-.04-.113.1-.064,5.253-3.3.093-.056.077.077c.939.93,1.845,1.849,2.65,2.655l-.129-.032a15.327,15.327,0,0,1,4.028-.685l-.1.06c.588-1.208,1.136-2.36,1.611-3.384l.032-.073h.077l6.042,1.4h.048V20.7q0,1.813-.024,2.787V24.2A2.145,2.145,0,0,1,217.038,24.487Z" fill="#e0e0e0"/>
        <path id="Path_1631" data-name="Path 1631" d="M53.707,113.161a10.594,10.594,0,0,1,1.986,1.95l2.542-.463,1.672,3.927-2.091,1.511a10.376,10.376,0,0,1,.032,2.783l2.123,1.466L58.379,128.3l-2.55-.4a10.473,10.473,0,0,1-1.946,1.99l.463,2.538L50.42,134.1l-1.511-2.091a10.38,10.38,0,0,1-2.783.028l-1.466,2.1L40.7,132.524l.4-2.546a10.377,10.377,0,0,1-1.99-1.95l-2.538.463L34.9,124.565l2.091-1.511a10.38,10.38,0,0,1-.028-2.783l-2.115-1.442,1.611-3.96,2.546.4a10.377,10.377,0,0,1,1.95-1.99l-.463-2.538,3.923-1.676,1.511,2.107a10.545,10.545,0,0,1,2.783-.028l1.466-2.123,3.96,1.591-.4,2.546Zm-4.431,4.25a3.518,3.518,0,1,0,.016,0Z" fill="none"/>
        <path id="Path_1632" data-name="Path 1632" d="M49.292,117.411a3.541,3.541,0,0,1,1.015.508,4.556,4.556,0,0,1,1.78,2.5,4.673,4.673,0,0,1,.1,2.155,4.692,4.692,0,0,1-8.6,1.567,4.58,4.58,0,0,1-.552-1.3,4.395,4.395,0,0,1-.145-1.345,4.717,4.717,0,0,1,.745-2.36,4.628,4.628,0,0,1,4.572-2.062,3.456,3.456,0,0,1,1.084.334c0,.032-.4-.141-1.1-.234a4.556,4.556,0,0,0-2.908.636,4.471,4.471,0,0,0-1.47,1.442,4.544,4.544,0,0,0-.685,2.252,4.31,4.31,0,0,0,.145,1.273,4.173,4.173,0,0,0,.532,1.208,4.431,4.431,0,0,0,4.882,1.962,4.472,4.472,0,0,0,3.214-5.494,4.564,4.564,0,0,0-1.66-2.469,10.76,10.76,0,0,0-.955-.576Z" fill="#e0e0e0"/>
        <path id="Path_1633" data-name="Path 1633" d="M53.707,113.161a.676.676,0,0,1,0-.157,3.9,3.9,0,0,1,.068-.483c.064-.443.157-1.084.282-1.909l.024.044-3.968-1.571.077-.024c-.439.649-.93,1.361-1.454,2.131l-.028.036h-.048a10.267,10.267,0,0,0-2.759.04h-.052l-.032-.044-1.507-2.062.109.032L40.5,110.877l.06-.113c.145.785.306,1.647.467,2.538v.064l-.052.04a10.4,10.4,0,0,0-1.9,1.95l-.04.056h-.068l-2.55-.4.129-.073c-.5,1.245-1.035,2.59-1.587,3.964l-.044-.145,2.123,1.466.064.04v.077a10.493,10.493,0,0,0,.032,2.747v.077l-.06.048-2.091,1.511.04-.153L36.7,128.5l-.145-.077,2.538-.463h.081l.048.06a10.332,10.332,0,0,0,1.962,1.921h0c.024.056-.048-.125.052.129h0v.121l-.028.161-.048.318-.1.64c-.068.423-.137.85-.205,1.269l-.081-.141,3.964,1.591-.157.048,1.466-2.123.044-.064h.081a10.11,10.11,0,0,0,2.747-.028h.077l.044.06,1.511,2.095-.149-.044,3.927-1.672-.073.133q-.23-1.293-.459-2.538v-.073l.056-.04a10.473,10.473,0,0,0,1.929-1.966l.04-.056h.068l2.546.4-.121.064,1.611-3.956.036.121-2.119-1.474-.048-.032v-.056a10.473,10.473,0,0,0-.024-2.759v-.052l.044-.028,2.095-1.507-.024.093c-.644-1.523-1.208-2.82-1.66-3.931l.064.032-2.542.447h-.024v-.02a10.618,10.618,0,0,0-1.43-1.523l-.4-.338c-.093-.073-.133-.109-.129-.113l.141.1c.093.068.234.173.4.318a10.525,10.525,0,0,1,1.47,1.507h-.044l2.538-.483h.044v.044L60,118.531l.024.056-.048.036-2.087,1.519.036-.081a10.493,10.493,0,0,1,.036,2.82l-.04-.089,2.127,1.462.068.044-.032.073c-.5,1.257-1.027,2.57-1.583,3.968l-.032.081h-.089l-2.546-.4.109-.044a10.558,10.558,0,0,1-1.966,2.014l.044-.117q.23,1.253.463,2.538v.1l-.109.02-3.927,1.68-.089.04-.06-.081-1.515-2.091.121.052a10.618,10.618,0,0,1-2.82.032l.121-.056q-.725,1.051-1.466,2.123l-.056.089-.1-.04-3.964-1.591-.1-.036v-.1l.205-1.269.1-.64.052-.318.024-.161V130h0c.1.25.028.068.048.125h0a10.373,10.373,0,0,1-2.014-1.97l.125.048-2.538.463-.1.02-.04-.1c-.576-1.349-1.144-2.683-1.672-3.927l-.04-.1.081-.06,2.095-1.511-.052.125a10.7,10.7,0,0,1-.028-2.82l.052.121-2.119-1.47-.081-.056.036-.089c.552-1.378,1.092-2.719,1.611-3.96l.036-.089H36.4l2.546.4-.109.044a10.589,10.589,0,0,1,1.97-2.014l-.04.1c-.161-.886-.314-1.752-.459-2.538v-.081l.077-.032,3.927-1.668.068-.028.044.06,1.507,2.095-.081-.036a10.561,10.561,0,0,1,2.82-.02l-.073.032,1.474-2.115.032-.044.048.02,3.952,1.611h.032v.032l-.326,1.885c-.036.205-.068.367-.089.487a.963.963,0,0,1-.016.205Z" fill="#e0e0e0"/>
        <path id="Path_1634" data-name="Path 1634" d="M87.386,134.571a18.263,18.263,0,0,1,3.48,3.412l4.431-.806,2.936,6.88-3.666,2.65a18.291,18.291,0,0,1,.056,4.878l3.718,2.57L95.55,161.1l-4.463-.717a18.171,18.171,0,0,1-3.412,3.484l.806,4.431L81.6,171.23l-2.626-3.662a18.465,18.465,0,0,1-4.878.052l-2.566,3.718-6.944-2.787.717-4.463a18.308,18.308,0,0,1-3.484-3.416l-4.451.806-2.932-6.88,3.662-2.65a18.469,18.469,0,0,1-.052-4.878l-3.718-2.57,2.787-6.94,4.463.717a18.307,18.307,0,0,1,3.416-3.484l-.806-4.451,6.88-2.936,2.65,3.666a18.3,18.3,0,0,1,4.878-.052l2.57-3.718,6.932,2.808Zm-7.734,7.444a8.028,8.028,0,1,0,4.455,10.441,8.028,8.028,0,0,0-4.455-10.441Z" fill="#e0e0e0" fill-rule="evenodd"/>
      </g>
      <g id="freepik--JavaScript--inject-487">
        <path id="Path_1635" data-name="Path 1635" d="M87.079,90.262H38.529V29.88l37.139.109L87.079,42.384Z" fill="#ebebeb"/>
        <path id="Path_1636" data-name="Path 1636" d="M53.05,64.329a13,13,0,0,1-2.119-1.893c-1.253-1.225-2.957-2.949-4.81-4.882l-.205-.218.205-.218V57.1c1.845-1.946,3.541-3.686,4.793-4.922a13.23,13.23,0,0,1,2.115-1.913,12.922,12.922,0,0,1-1.793,2.219c-1.168,1.317-2.82,3.1-4.661,5.051h-.02v-.415c1.853,1.933,3.5,3.706,4.673,5.011A13.548,13.548,0,0,1,53.05,64.329Z" fill="#263238"/>
        <path id="Path_1637" data-name="Path 1637" d="M72.534,50.263a12.708,12.708,0,0,1,2.123,1.893c1.253,1.225,2.957,2.949,4.806,4.882l.209.218-.205.218h-.02C77.6,59.422,75.9,61.159,74.653,62.4a12.739,12.739,0,0,1-2.119,1.913,12.847,12.847,0,0,1,1.8-2.219c1.168-1.317,2.82-3.1,4.656-5.047v.411c-1.849-1.933-3.5-3.706-4.673-5.007A12.188,12.188,0,0,1,72.534,50.263Z" fill="#263238"/>
        <path id="Path_1638" data-name="Path 1638" d="M56.885,66.548c-.145-.089,2.373-4.479,5.639-9.8s6.014-9.567,6.163-9.474-2.369,4.479-5.639,9.8S57.034,66.641,56.885,66.548Z" fill="#263238"/>
        <path id="Path_1639" data-name="Path 1639" d="M75.664,29.993l-.044,10.115a2.6,2.6,0,0,0,2.679,2.61l8.781-.326Z" fill="#e0e0e0"/>
        <rect id="Rectangle_257" data-name="Rectangle 257" width="21.53" height="13.087" transform="translate(32.861 70.782)" fill="#90caf9"/>
        <path id="Path_1640" data-name="Path 1640" d="M38.98,80l.56-.649a1.688,1.688,0,0,0,1.41.806c.761,0,1.156-.463,1.156-1.374V74.991H39.665v-.838h3.4v4.584c0,1.507-.733,2.252-2.115,2.252A2.364,2.364,0,0,1,38.98,80Z" fill="#fff"/>
        <path id="Path_1641" data-name="Path 1641" d="M44.414,80.127l.359-.753A3.464,3.464,0,0,0,47,80.155c1.172,0,1.672-.455,1.672-1.043,0-1.652-4.093-.608-4.093-3.118,0-1.043.806-1.933,2.586-1.933a3.98,3.98,0,0,1,2.175.6l-.322.773a3.464,3.464,0,0,0-1.853-.552c-1.148,0-1.639.483-1.639,1.071,0,1.652,4.093.62,4.093,3.1,0,1.031-.83,1.921-2.618,1.921A4.028,4.028,0,0,1,44.414,80.127Z" fill="#fff"/>
      </g>
      <g id="freepik--Angular--inject-487">
        <path id="Path_1642" data-name="Path 1642" d="M128.456,33.453a3.19,3.19,0,0,0-1.76,2.888l.153,23.955a3.191,3.191,0,0,0,1.547,2.735l19.89,11.854h0L167.327,62.54a3.194,3.194,0,0,0,1.446-2.711l-.157-25.01a3.194,3.194,0,0,0-1.9-2.916l-18.747-8.1Z" fill="#90caf9"/>
        <g id="Group_61" data-name="Group 61" opacity="0.2">
          <path id="Path_1643" data-name="Path 1643" d="M147.968,23.8l.322,51.088,19.017-12.322a3.194,3.194,0,0,0,1.474-2.7l-.149-25.111a3.114,3.114,0,0,0-1.869-2.848Z"/>
        </g>
        <path id="Path_1644" data-name="Path 1644" d="M153.535,52.486l-11.6.073-2.365,5.607h-3.222L146.1,35.741h3.086l10.07,22.3-3.275.024Zm-1.108-2.538-4.777-10.94L143,50Z" fill="#fff"/>
      </g>
      <g id="freepik--Screen--inject-487">
        <rect id="Rectangle_258" data-name="Rectangle 258" width="109.5" height="63.805" transform="translate(138.913 62.947)" fill="#263238"/>
        <path id="Path_1645" data-name="Path 1645" d="M147.477,123.542c-.056,0-.1-13.047-.1-29.139s.056-29.147.1-29.147.1,13.043.1,29.139S147.537,123.542,147.477,123.542Z" fill="#e0e0e0"/>
        <path id="Path_1646" data-name="Path 1646" d="M145.225,67.72a15.738,15.738,0,0,1-3.625,0,15.738,15.738,0,0,1,3.625,0Z" fill="#e0e0e0"/>
        <path id="Path_1647" data-name="Path 1647" d="M145.225,71.559a15.737,15.737,0,0,1-3.625,0,15.738,15.738,0,0,1,3.625,0Z" fill="#e0e0e0"/>
        <path id="Path_1648" data-name="Path 1648" d="M145.225,75.4a15.737,15.737,0,0,1-3.625,0,15.738,15.738,0,0,1,3.625,0Z" fill="#e0e0e0"/>
        <path id="Path_1649" data-name="Path 1649" d="M145.225,79.241a15.738,15.738,0,0,1-3.625,0,15.738,15.738,0,0,1,3.625,0Z" fill="#e0e0e0"/>
        <path id="Path_1650" data-name="Path 1650" d="M145.225,83.079a15.738,15.738,0,0,1-3.625,0,15.738,15.738,0,0,1,3.625,0Z" fill="#e0e0e0"/>
        <path id="Path_1651" data-name="Path 1651" d="M145.225,86.922a15.738,15.738,0,0,1-3.625,0,15.737,15.737,0,0,1,3.625,0Z" fill="#e0e0e0"/>
        <path id="Path_1652" data-name="Path 1652" d="M145.225,90.761a15.737,15.737,0,0,1-3.625,0,15.738,15.738,0,0,1,3.625,0Z" fill="#e0e0e0"/>
        <path id="Path_1653" data-name="Path 1653" d="M145.225,94.6a15.737,15.737,0,0,1-3.625,0,15.737,15.737,0,0,1,3.625,0Z" fill="#e0e0e0"/>
        <path id="Path_1654" data-name="Path 1654" d="M145.225,98.443a15.738,15.738,0,0,1-3.625,0,15.738,15.738,0,0,1,3.625,0Z" fill="#e0e0e0"/>
        <path id="Path_1655" data-name="Path 1655" d="M145.225,102.281a15.738,15.738,0,0,1-3.625,0,15.738,15.738,0,0,1,3.625,0Z" fill="#e0e0e0"/>
        <path id="Path_1656" data-name="Path 1656" d="M145.225,106.12a15.739,15.739,0,0,1-3.625,0,15.738,15.738,0,0,1,3.625,0Z" fill="#e0e0e0"/>
        <path id="Path_1657" data-name="Path 1657" d="M145.225,109.967a15.738,15.738,0,0,1-3.625,0,15.737,15.737,0,0,1,3.625,0Z" fill="#e0e0e0"/>
        <path id="Path_1658" data-name="Path 1658" d="M145.225,113.8a15.738,15.738,0,0,1-3.625,0,15.737,15.737,0,0,1,3.625,0Z" fill="#e0e0e0"/>
        <path id="Path_1659" data-name="Path 1659" d="M145.225,117.641a15.739,15.739,0,0,1-3.625,0A15.738,15.738,0,0,1,145.225,117.641Z" fill="#e0e0e0"/>
        <path id="Path_1660" data-name="Path 1660" d="M145.225,121.483a15.737,15.737,0,0,1-3.625,0,15.738,15.738,0,0,1,3.625,0Z" fill="#e0e0e0"/>
        <path id="Path_1661" data-name="Path 1661" d="M159.762,67.495c0,.056-2.107.1-4.7.1s-4.709-.048-4.709-.1,2.107-.1,4.709-.1S159.762,67.434,159.762,67.495Z" fill="#90caf9"/>
        <path id="Path_1662" data-name="Path 1662" d="M159.762,121.483c0,.056-2.107.1-4.7.1s-4.709-.048-4.709-.1,2.107-.1,4.709-.1S159.762,121.423,159.762,121.483Z" fill="#90caf9"/>
        <path id="Path_1663" data-name="Path 1663" d="M172.87,75.4c0,.056-3.944.1-8.805.1s-8.805-.048-8.805-.1,3.944-.1,8.805-.1S172.87,75.325,172.87,75.4Z" fill="#90caf9"/>
        <path id="Path_1664" data-name="Path 1664" d="M193.228,75.4c0,.056-3.939.1-8.8.1s-8.805-.048-8.805-.1,3.939-.1,8.805-.1S193.228,75.325,193.228,75.4Z" fill="#e0e0e0"/>
        <path id="Path_1665" data-name="Path 1665" d="M185.45,79.241c0,.056-5.813.1-12.974.1s-12.979-.048-12.979-.1,5.809-.1,12.979-.1S185.45,79.184,185.45,79.241Z" fill="#e0e0e0"/>
        <path id="Path_1666" data-name="Path 1666" d="M185.45,83.079c0,.06-5.813.1-12.974.1s-12.962-.044-12.962-.1,5.809-.1,12.979-.1S185.45,83.023,185.45,83.079Z" fill="#e0e0e0"/>
        <path id="Path_1667" data-name="Path 1667" d="M203.31,94.6c0,.06-5.809.1-12.975.1s-12.974-.044-12.974-.1,5.809-.1,12.974-.1S203.31,94.543,203.31,94.6Z" fill="#e0e0e0"/>
        <path id="Path_1668" data-name="Path 1668" d="M195.6,86.922c0,.056-5.813.1-12.975.1s-12.979-.048-12.979-.1,5.809-.1,12.979-.1S195.6,86.862,195.6,86.922Z" fill="#e0e0e0"/>
        <path id="Path_1669" data-name="Path 1669" d="M227.314,86.922c0,.056-5.809.1-12.975.1s-12.974-.048-12.974-.1,5.809-.1,12.974-.1S227.314,86.862,227.314,86.922Z" fill="#e0e0e0"/>
        <path id="Path_1670" data-name="Path 1670" d="M216.285,79.241c0,.056-5.809.1-12.974.1s-12.975-.048-12.975-.1,5.809-.1,12.975-.1S216.285,79.184,216.285,79.241Z" fill="#fafafa"/>
        <path id="Path_1671" data-name="Path 1671" d="M234.214,94.6c0,.06-5.813.1-12.975.1s-12.987-.044-12.987-.1,5.809-.1,12.979-.1S234.214,94.543,234.214,94.6Z" fill="#fafafa"/>
        <path id="Path_1672" data-name="Path 1672" d="M230.633,83.079c0,.06-9.023.1-20.14.1s-20.14-.044-20.14-.1,9.019-.1,20.14-.1S230.633,83.023,230.633,83.079Z" fill="#455a64"/>
        <path id="Path_1673" data-name="Path 1673" d="M159.762,71.559c0,.06-2.107.1-4.7.1s-4.709-.044-4.709-.1,2.107-.1,4.709-.1S159.762,71.5,159.762,71.559Z" fill="#fafafa"/>
        <path id="Path_1674" data-name="Path 1674" d="M159.762,117.641c0,.06-2.107.1-4.7.1s-4.709-.044-4.709-.1,2.107-.1,4.709-.1S159.762,117.584,159.762,117.641Z" fill="#fafafa"/>
        <path id="Path_1675" data-name="Path 1675" d="M164.423,86.922c0,.056-2.107.1-4.7.1s-4.7-.048-4.7-.1,2.107-.1,4.7-.1S164.423,86.862,164.423,86.922Z" fill="#fafafa"/>
        <path id="Path_1676" data-name="Path 1676" d="M239.853,86.922c0,.056-2.107.1-4.7.1s-4.7-.048-4.7-.1,2.107-.1,4.7-.1S239.853,86.862,239.853,86.922Z" fill="#90caf9"/>
        <path id="Path_1677" data-name="Path 1677" d="M172.87,102.257c0,.06-3.944.1-8.805.1s-8.805-.044-8.805-.1,3.944-.1,8.805-.1S172.87,102.2,172.87,102.257Z" fill="#90caf9"/>
        <path id="Path_1678" data-name="Path 1678" d="M193.228,102.257c0,.06-3.939.1-8.8.1s-8.8-.048-8.8-.1,3.939-.1,8.805-.1S193.228,102.2,193.228,102.257Z" fill="#e0e0e0"/>
        <path id="Path_1679" data-name="Path 1679" d="M185.45,106.1c0,.056-5.813.1-12.974.1s-12.962-.048-12.962-.1,5.809-.1,12.979-.1S185.45,106.04,185.45,106.1Z" fill="#e0e0e0"/>
        <path id="Path_1680" data-name="Path 1680" d="M185.45,109.939c0,.056-5.813.1-12.974.1s-12.979-.048-12.979-.1,5.809-.1,12.979-.1S185.45,109.882,185.45,109.939Z" fill="#e0e0e0"/>
        <path id="Path_1681" data-name="Path 1681" d="M195.6,113.778c0,.06-5.813.1-12.975.1s-12.979-.044-12.979-.1,5.809-.1,12.979-.1S195.6,113.721,195.6,113.778Z" fill="#e0e0e0"/>
        <path id="Path_1682" data-name="Path 1682" d="M227.314,113.778c0,.06-5.809.1-12.975.1s-12.974-.044-12.974-.1,5.809-.1,12.974-.1S227.314,113.721,227.314,113.778Z" fill="#e0e0e0"/>
        <path id="Path_1683" data-name="Path 1683" d="M216.285,106.1c0,.056-5.809.1-12.974.1s-12.975-.048-12.975-.1,5.809-.1,12.975-.1S216.285,106.04,216.285,106.1Z" fill="#fafafa"/>
        <path id="Path_1684" data-name="Path 1684" d="M230.633,109.939c0,.056-9.023.1-20.14.1s-20.14-.048-20.14-.1,9.019-.1,20.14-.1S230.633,109.882,230.633,109.939Z" fill="#455a64"/>
        <path id="Path_1685" data-name="Path 1685" d="M164.423,113.778c0,.06-2.107.1-4.7.1s-4.7-.044-4.7-.1,2.107-.1,4.7-.1S164.423,113.721,164.423,113.778Z" fill="#fafafa"/>
        <path id="Path_1686" data-name="Path 1686" d="M239.853,113.778c0,.06-2.107.1-4.7.1s-4.7-.044-4.7-.1,2.107-.1,4.7-.1S239.853,113.721,239.853,113.778Z" fill="#90caf9"/>
      </g>
      <g id="freepik--React--inject-487">
        <path id="Path_1687" data-name="Path 1687" d="M262.894,125.87c-.077.044-.757-1.088-2.131-3.029-.685-.971-1.551-2.139-2.626-3.436a38.264,38.264,0,0,0-3.943-4.113,21.857,21.857,0,0,0-2.6-2.014,9.841,9.841,0,0,0-3.154-1.418,3.847,3.847,0,0,0-1.7-.024,2.534,2.534,0,0,0-1.386.89,4.1,4.1,0,0,0-.761,1.643,8.894,8.894,0,0,0-.242,1.962,19.377,19.377,0,0,0,.459,4.185,33.994,33.994,0,0,0,1.208,4.278,53.575,53.575,0,0,0,9.365,16.213,34.764,34.764,0,0,0,3.094,3.194,19.416,19.416,0,0,0,3.4,2.493,9.266,9.266,0,0,0,1.821.773,4.177,4.177,0,0,0,1.8.161,2.518,2.518,0,0,0,1.462-.761,3.794,3.794,0,0,0,.83-1.478,9.8,9.8,0,0,0,.346-3.44,21.278,21.278,0,0,0-.431-3.259,37.782,37.782,0,0,0-1.611-5.47c-.584-1.579-1.164-2.912-1.66-3.992-.995-2.163-1.635-3.315-1.559-3.359a3.747,3.747,0,0,1,.564.781c.33.536.806,1.337,1.362,2.4a42.18,42.18,0,0,1,1.841,3.96,36.149,36.149,0,0,1,1.768,5.531,21.946,21.946,0,0,1,.516,3.363,10.61,10.61,0,0,1-.326,3.75,4.714,4.714,0,0,1-1.007,1.833,3.4,3.4,0,0,1-1.962,1.051,5.043,5.043,0,0,1-2.211-.157,9.9,9.9,0,0,1-2.014-.838,19.91,19.91,0,0,1-3.6-2.59,34.74,34.74,0,0,1-3.222-3.275,53.134,53.134,0,0,1-9.547-16.515,34.355,34.355,0,0,1-1.208-4.431,20.047,20.047,0,0,1-.447-4.431,9.849,9.849,0,0,1,.29-2.171,5.092,5.092,0,0,1,.967-2.014,3.44,3.44,0,0,1,1.893-1.172,4.693,4.693,0,0,1,2.095.044,10.627,10.627,0,0,1,3.408,1.591,22.6,22.6,0,0,1,2.659,2.127,36.474,36.474,0,0,1,3.915,4.334c1.047,1.349,1.869,2.562,2.509,3.573s1.1,1.825,1.394,2.381a3.659,3.659,0,0,1,.387.878Z" fill="#90caf9"/>
        <path id="Path_1688" data-name="Path 1688" d="M250.455,125.846c.072.044-.58,1.144-1.611,3.222-.508,1.031-1.1,2.308-1.7,3.823a34.684,34.684,0,0,0-1.639,5.261,19.8,19.8,0,0,0-.451,3.142,9.265,9.265,0,0,0,.322,3.319,3.822,3.822,0,0,0,.806,1.438,2.642,2.642,0,0,0,1.4.781,4.028,4.028,0,0,0,1.752-.048,8.148,8.148,0,0,0,1.8-.644,17.635,17.635,0,0,0,3.4-2.236,31.975,31.975,0,0,0,3.118-2.957,49.352,49.352,0,0,0,9.518-15.379,31.564,31.564,0,0,0,1.253-4.113,17.645,17.645,0,0,0,.487-4.028,8.262,8.262,0,0,0-.226-1.893,4.052,4.052,0,0,0-.737-1.591,2.646,2.646,0,0,0-1.329-.906,3.819,3.819,0,0,0-1.644-.073,9.3,9.3,0,0,0-3.114,1.188,20.441,20.441,0,0,0-2.61,1.809,35.1,35.1,0,0,0-3.976,3.815c-1.088,1.208-1.966,2.316-2.663,3.222-1.394,1.829-2.087,2.9-2.159,2.86a3.062,3.062,0,0,1,.4-.842c.3-.528.765-1.3,1.422-2.256a42.3,42.3,0,0,1,2.55-3.376,33.244,33.244,0,0,1,3.948-4,19.945,19.945,0,0,1,2.671-1.933,10.071,10.071,0,0,1,3.392-1.353,4.741,4.741,0,0,1,2.014.073,3.553,3.553,0,0,1,1.8,1.188,5.024,5.024,0,0,1,.939,1.933,9.363,9.363,0,0,1,.274,2.111,18.39,18.39,0,0,1-.447,4.25,32.223,32.223,0,0,1-1.269,4.254,49.283,49.283,0,0,1-9.728,15.71,32.3,32.3,0,0,1-3.223,3.037,18.465,18.465,0,0,1-3.625,2.328,9.209,9.209,0,0,1-2.014.7,4.947,4.947,0,0,1-2.147.024,3.553,3.553,0,0,1-1.865-1.076,4.725,4.725,0,0,1-.971-1.78,10.07,10.07,0,0,1-.3-3.625,19.958,19.958,0,0,1,.54-3.255,33.224,33.224,0,0,1,1.821-5.321,41.952,41.952,0,0,1,1.881-3.786c.564-1.015,1.047-1.772,1.386-2.28S250.423,125.826,250.455,125.846Z" fill="#90caf9"/>
        <path id="Path_1689" data-name="Path 1689" d="M255.881,121.209c0,.089-1.281.109-3.573.33-1.144.113-2.542.282-4.145.564a35.345,35.345,0,0,0-5.337,1.378,20.169,20.169,0,0,0-2.908,1.269,9.22,9.22,0,0,0-2.655,2.014,3.839,3.839,0,0,0-.806,1.434,2.678,2.678,0,0,0,.073,1.611,4.117,4.117,0,0,0,.963,1.466,8.408,8.408,0,0,0,1.494,1.184,17.656,17.656,0,0,0,3.686,1.712,31.482,31.482,0,0,0,4.161,1.1,49.2,49.2,0,0,0,18.082,0,31.42,31.42,0,0,0,4.161-1.092,17.594,17.594,0,0,0,3.69-1.712,8.412,8.412,0,0,0,1.494-1.184,4.116,4.116,0,0,0,.963-1.466,2.679,2.679,0,0,0,.073-1.611,3.839,3.839,0,0,0-.806-1.434,9.22,9.22,0,0,0-2.655-2.014,19.334,19.334,0,0,0-2.908-1.269,35.347,35.347,0,0,0-5.337-1.378c-1.611-.282-3-.451-4.145-.564-2.292-.222-3.573-.242-3.569-.33a3.126,3.126,0,0,1,.926-.1c.608-.02,1.511-.032,2.671.02a41.334,41.334,0,0,1,4.209.4,33.272,33.272,0,0,1,5.482,1.249,20.428,20.428,0,0,1,3.049,1.257,10.014,10.014,0,0,1,2.936,2.171,4.713,4.713,0,0,1,1,1.76,3.569,3.569,0,0,1-.064,2.151,4.979,4.979,0,0,1-1.152,1.817,8.949,8.949,0,0,1-1.652,1.341,18.4,18.4,0,0,1-3.883,1.849,31.891,31.891,0,0,1-4.286,1.156,49.079,49.079,0,0,1-18.485,0,31.893,31.893,0,0,1-4.286-1.156,18.4,18.4,0,0,1-3.883-1.849,9.083,9.083,0,0,1-1.651-1.341,4.946,4.946,0,0,1-1.152-1.817,3.569,3.569,0,0,1-.064-2.151,4.741,4.741,0,0,1,1-1.76,10.034,10.034,0,0,1,2.936-2.171,19.814,19.814,0,0,1,3.049-1.253,32.824,32.824,0,0,1,5.482-1.253c1.635-.234,3.053-.342,4.209-.4s2.062-.04,2.671-.02a3.17,3.17,0,0,1,.935.093Z" fill="#90caf9"/>
        <circle id="Ellipse_10" data-name="Ellipse 10" cx="3.372" cy="3.372" r="3.372" transform="translate(253 132.603) rotate(-80.76)" fill="#90caf9"/>
      </g>
      <g id="freepik--Device--inject-487">
        <path id="Path_1690" data-name="Path 1690" d="M81.42,94.85H201.236a2.715,2.715,0,0,1,2.715,2.715v74.52a5.869,5.869,0,0,1-5.869,5.869H84.167a5.869,5.869,0,0,1-5.869-5.869V97.967A3.122,3.122,0,0,1,81.42,94.85Z" fill="#455a64"/>
        <path id="Path_1691" data-name="Path 1691" d="M73.046,171.8H209.2v1.744a5.527,5.527,0,0,1-5.527,5.527H78.572a5.527,5.527,0,0,1-5.527-5.527Z" fill="#455a64"/>
        <rect id="Rectangle_259" data-name="Rectangle 259" width="118.555" height="70.169" transform="translate(81.67 98.153)" fill="#e0e0e0"/>
        <path id="Path_1692" data-name="Path 1692" d="M128.738,171.8l1.688,2.687H154.2l1.571-2.687Z" fill="#263238"/>
        <rect id="Rectangle_260" data-name="Rectangle 260" width="125.652" height="0.399" transform="translate(78.318 171.77)" fill="#263238"/>
        <rect id="Rectangle_261" data-name="Rectangle 261" width="111.804" height="66.105" transform="translate(85.19 102.217)" fill="#263238"/>
        <path id="Path_1693" data-name="Path 1693" d="M93.766,166.381c-.056,0-.1-14.078-.1-31.443s.048-31.443.1-31.443.089,14.074.089,31.447S93.822,166.381,93.766,166.381Z" fill="#e0e0e0"/>
        <path id="Path_1694" data-name="Path 1694" d="M91.51,109.194a7.8,7.8,0,0,1-1.817.1,7.8,7.8,0,0,1-1.817-.1,15.81,15.81,0,0,1,3.625,0Z" fill="#e0e0e0"/>
        <path id="Path_1695" data-name="Path 1695" d="M91.651,105.625a7.8,7.8,0,0,1-1.817.1,7.8,7.8,0,0,1-1.817-.1,15.81,15.81,0,0,1,3.625,0Z" fill="#e0e0e0"/>
        <path id="Path_1696" data-name="Path 1696" d="M91.51,113.04a15.811,15.811,0,0,1-3.625,0,15.81,15.81,0,0,1,3.625,0Z" fill="#e0e0e0"/>
        <path id="Path_1697" data-name="Path 1697" d="M91.51,116.887a15.81,15.81,0,0,1-3.625,0,7.8,7.8,0,0,1,1.817-.1,7.8,7.8,0,0,1,1.809.1Z" fill="#e0e0e0"/>
        <path id="Path_1698" data-name="Path 1698" d="M91.51,120.734a15.81,15.81,0,0,1-3.625,0,7.8,7.8,0,0,1,1.817-.1,7.8,7.8,0,0,1,1.809.1Z" fill="#e0e0e0"/>
        <path id="Path_1699" data-name="Path 1699" d="M91.51,124.581a15.81,15.81,0,0,1-3.625,0,7.8,7.8,0,0,1,1.817-.1,7.8,7.8,0,0,1,1.809.1Z" fill="#e0e0e0"/>
        <path id="Path_1700" data-name="Path 1700" d="M91.51,128.424a7.653,7.653,0,0,1-1.817.109,7.653,7.653,0,0,1-1.817-.109,15.81,15.81,0,0,1,3.625,0Z" fill="#e0e0e0"/>
        <path id="Path_1701" data-name="Path 1701" d="M91.51,132.271a7.8,7.8,0,0,1-1.817.1,7.8,7.8,0,0,1-1.817-.1,15.812,15.812,0,0,1,3.625,0Z" fill="#e0e0e0"/>
        <path id="Path_1702" data-name="Path 1702" d="M91.51,136.117a7.8,7.8,0,0,1-1.817.1,7.8,7.8,0,0,1-1.817-.1,15.811,15.811,0,0,1,3.625,0Z" fill="#e0e0e0"/>
        <path id="Path_1703" data-name="Path 1703" d="M91.51,139.964a7.8,7.8,0,0,1-1.817.1,7.8,7.8,0,0,1-1.817-.1,15.811,15.811,0,0,1,3.625,0Z" fill="#e0e0e0"/>
        <path id="Path_1704" data-name="Path 1704" d="M91.51,143.8a15.81,15.81,0,0,1-3.625,0,15.811,15.811,0,0,1,3.625,0Z" fill="#e0e0e0"/>
        <path id="Path_1705" data-name="Path 1705" d="M91.51,147.658a15.811,15.811,0,0,1-3.625,0,7.8,7.8,0,0,1,1.817-.1,7.8,7.8,0,0,1,1.809.1Z" fill="#e0e0e0"/>
        <path id="Path_1706" data-name="Path 1706" d="M91.51,151.5a15.811,15.811,0,0,1-3.625,0,7.8,7.8,0,0,1,1.817-.1,7.8,7.8,0,0,1,1.809.1Z" fill="#e0e0e0"/>
        <path id="Path_1707" data-name="Path 1707" d="M91.51,155.352a15.81,15.81,0,0,1-3.625,0,7.8,7.8,0,0,1,1.817-.1,7.8,7.8,0,0,1,1.809.1Z" fill="#e0e0e0"/>
        <path id="Path_1708" data-name="Path 1708" d="M91.51,159.2a15.81,15.81,0,0,1-3.625,0,7.652,7.652,0,0,1,1.817-.109A7.652,7.652,0,0,1,91.51,159.2Z" fill="#e0e0e0"/>
        <path id="Path_1709" data-name="Path 1709" d="M91.51,163.041a7.8,7.8,0,0,1-1.817.1,7.8,7.8,0,0,1-1.817-.1,15.81,15.81,0,0,1,3.625,0Z" fill="#e0e0e0"/>
        <path id="Path_1710" data-name="Path 1710" d="M106.072,108.968c0,.056-2.111.1-4.713.1s-4.717-.048-4.717-.1,2.111-.1,4.717-.1S106.072,108.908,106.072,108.968Z" fill="#90caf9"/>
        <path id="Path_1711" data-name="Path 1711" d="M106.072,163.041c0,.06-2.111.1-4.713.1s-4.717-.044-4.717-.1,2.111-.1,4.717-.1S106.072,162.985,106.072,163.041Z" fill="#90caf9"/>
        <path id="Path_1712" data-name="Path 1712" d="M119.2,116.887c0,.056-3.952.1-8.822.1s-8.818-.048-8.818-.1,3.948-.1,8.818-.1S119.2,116.815,119.2,116.887Z" fill="#90caf9"/>
        <path id="Path_1713" data-name="Path 1713" d="M139.594,116.887c0,.056-3.952.1-8.822.1s-8.818-.048-8.818-.1,3.948-.1,8.818-.1S139.594,116.815,139.594,116.887Z" fill="#e0e0e0"/>
        <path id="Path_1714" data-name="Path 1714" d="M131.8,120.734c0,.056-5.821.1-13,.1s-12.995-.048-12.995-.1,5.817-.1,12.995-.1S131.8,120.674,131.8,120.734Z" fill="#e0e0e0"/>
        <path id="Path_1715" data-name="Path 1715" d="M131.8,124.581c0,.056-5.821.1-13,.1s-12.995-.048-12.995-.1,5.817-.1,12.995-.1S131.8,124.521,131.8,124.581Z" fill="#e0e0e0"/>
        <path id="Path_1716" data-name="Path 1716" d="M149.688,136.117c0,.06-5.817.1-12.995.1s-13-.044-13-.1,5.821-.1,13-.1S149.688,136.061,149.688,136.117Z" fill="#e0e0e0"/>
        <path id="Path_1717" data-name="Path 1717" d="M141.97,128.424c0,.06-5.821.109-13,.109s-12.995-.048-12.995-.109,5.817-.1,12.995-.1S141.97,128.367,141.97,128.424Z" fill="#e0e0e0"/>
        <path id="Path_1718" data-name="Path 1718" d="M173.732,128.424c0,.06-5.821.109-12.995.109s-13-.048-13-.109,5.821-.1,13-.1S173.732,128.367,173.732,128.424Z" fill="#e0e0e0"/>
        <path id="Path_1719" data-name="Path 1719" d="M162.687,120.734c0,.056-5.821.1-13,.1s-12.995-.048-12.995-.1,5.817-.1,12.995-.1S162.687,120.674,162.687,120.734Z" fill="#fafafa"/>
        <path id="Path_1720" data-name="Path 1720" d="M180.64,136.117c0,.06-5.821.1-12.995.1s-13-.044-13-.1,5.821-.1,13-.1S180.64,136.061,180.64,136.117Z" fill="#fafafa"/>
        <path id="Path_1721" data-name="Path 1721" d="M177.055,124.581c0,.056-9.035.1-20.181.1s-20.181-.048-20.181-.1,9.035-.1,20.181-.1S177.055,124.521,177.055,124.581Z" fill="#455a64"/>
        <path id="Path_1722" data-name="Path 1722" d="M106.072,113.04c0,.056-2.111.1-4.713.1s-4.717-.048-4.717-.1,2.111-.1,4.717-.1S106.072,112.984,106.072,113.04Z" fill="#fafafa"/>
        <path id="Path_1723" data-name="Path 1723" d="M106.072,159.2c0,.056-2.111.1-4.713.1s-4.717-.048-4.717-.1,2.111-.109,4.717-.109S106.072,159.138,106.072,159.2Z" fill="#fafafa"/>
        <path id="Path_1724" data-name="Path 1724" d="M110.74,128.424c0,.06-2.111.109-4.713.109s-4.713-.048-4.713-.109,2.107-.1,4.713-.1S110.74,128.367,110.74,128.424Z" fill="#fafafa"/>
        <path id="Path_1725" data-name="Path 1725" d="M186.291,128.424c0,.06-2.111.109-4.713.109s-4.713-.048-4.713-.109,2.107-.1,4.713-.1S186.291,128.367,186.291,128.424Z" fill="#90caf9"/>
        <path id="Path_1726" data-name="Path 1726" d="M119.2,143.8c0,.06-3.952.1-8.822.1s-8.818-.044-8.818-.1,3.948-.1,8.818-.1S119.2,143.731,119.2,143.8Z" fill="#90caf9"/>
        <path id="Path_1727" data-name="Path 1727" d="M139.594,143.8c0,.06-3.952.1-8.822.1s-8.818-.044-8.818-.1,3.948-.1,8.818-.1S139.594,143.731,139.594,143.8Z" fill="#e0e0e0"/>
        <path id="Path_1728" data-name="Path 1728" d="M131.8,147.634c0,.06-5.821.1-13,.1s-12.995-.044-12.995-.1,5.817-.1,12.995-.1S131.8,147.577,131.8,147.634Z" fill="#e0e0e0"/>
        <path id="Path_1729" data-name="Path 1729" d="M131.8,151.481c0,.06-5.821.1-13,.1s-12.995-.044-12.995-.1,5.817-.1,12.995-.1S131.8,151.424,131.8,151.481Z" fill="#e0e0e0"/>
        <path id="Path_1730" data-name="Path 1730" d="M141.97,155.327c0,.056-5.821.1-13,.1s-12.995-.048-12.995-.1,5.817-.1,12.995-.1S141.97,155.271,141.97,155.327Z" fill="#e0e0e0"/>
        <path id="Path_1731" data-name="Path 1731" d="M173.732,155.327c0,.056-5.821.1-12.995.1s-13-.048-13-.1,5.821-.1,13-.1S173.732,155.271,173.732,155.327Z" fill="#e0e0e0"/>
        <path id="Path_1732" data-name="Path 1732" d="M162.687,147.634c0,.06-5.821.1-13,.1s-12.995-.044-12.995-.1,5.817-.1,12.995-.1S162.687,147.577,162.687,147.634Z" fill="#fafafa"/>
        <path id="Path_1733" data-name="Path 1733" d="M177.055,151.481c0,.06-9.035.1-20.181.1s-20.181-.044-20.181-.1,9.035-.1,20.181-.1S177.055,151.424,177.055,151.481Z" fill="#455a64"/>
        <path id="Path_1734" data-name="Path 1734" d="M110.74,155.327c0,.056-2.111.1-4.713.1s-4.713-.048-4.713-.1,2.107-.1,4.713-.1S110.74,155.271,110.74,155.327Z" fill="#fafafa"/>
        <path id="Path_1735" data-name="Path 1735" d="M186.291,155.327c0,.056-2.111.1-4.713.1s-4.713-.048-4.713-.1,2.107-.1,4.713-.1S186.291,155.271,186.291,155.327Z" fill="#90caf9"/>
      </g>
      <g id="freepik--Floor--inject-487">
        <path id="Path_1736" data-name="Path 1736" d="M282.136,179.073c0,.056-58.693.1-131.074.1s-131.09-.048-131.09-.1,58.681-.1,131.09-.1S282.136,179.013,282.136,179.073Z" fill="#263238"/>
      </g>
      <g id="freepik--character-2--inject-487">
        <path id="Path_1737" data-name="Path 1737" d="M229.07,156.338l1.611,5.031a5.813,5.813,0,0,0,4.511,4.028l10.739,2.014,2.92-.093-2.92-3.625-8.056-2.751a2.163,2.163,0,0,1-1.611-1.547l-3.222-6.993-4.072,2.5Z" fill="#ffbe9d"/>
        <path id="Path_1738" data-name="Path 1738" d="M221.376,122.547a3.541,3.541,0,0,0-.6-2.232,2.727,2.727,0,0,0-1.764-1.361,2.014,2.014,0,0,0-2.091,1.233,2.626,2.626,0,0,0,.322,2.481,3.315,3.315,0,0,0,.979.914,6.147,6.147,0,0,0-2.417,3.081c-.149.427-.25.87-.435,1.281a1.909,1.909,0,0,1-.89.987c-.306.137-.649.149-.963.266a1.764,1.764,0,0,0-1.059,1.208,2.143,2.143,0,0,0,.286,1.611,1.664,1.664,0,0,1,.363.749,1.93,1.93,0,0,1-.117.56,1.531,1.531,0,0,0,2.514,1.494,2.179,2.179,0,0,0,.926,1.164c.459.218,1.136.02,1.208-.479a1.208,1.208,0,0,0,2.3-.435l8.66-9.47C227.305,122.16,222.25,122.454,221.376,122.547Z" fill="#90caf9"/>
        <path id="Path_1739" data-name="Path 1739" d="M219.91,125.838a1.088,1.088,0,0,0-.967,1.1h0l.612,14.582c.024,1.724,3.15,3.762,4.991,3.722h0c1.865-.04,1.317-2.014,1.341-3.653.048-2.739.044-3.766.048-3.75s2.352-.4,2.84-3.46a32.854,32.854,0,0,0,.036-6.074c-.117-1.841-1.337-4.1-3.17-3.907Z" fill="#ffbe9d"/>
        <path id="Path_1740" data-name="Path 1740" d="M228.014,130.285a.4.4,0,0,1-.379.4.379.379,0,0,1-.4-.354.4.4,0,0,1,.379-.4.379.379,0,0,1,.4.354Z" fill="#263238"/>
        <path id="Path_1741" data-name="Path 1741" d="M228.268,129.6c-.048.052-.346-.169-.769-.169s-.737.213-.781.161.028-.113.161-.213a1.1,1.1,0,0,1,.624-.193,1.055,1.055,0,0,1,.616.2C228.248,129.483,228.292,129.576,228.268,129.6Z" fill="#263238"/>
        <path id="Path_1742" data-name="Path 1742" d="M223.874,130.285a.4.4,0,0,1-.379.4.379.379,0,0,1-.4-.354.4.4,0,0,1,.379-.4.379.379,0,0,1,.4.354Z" fill="#263238"/>
        <path id="Path_1743" data-name="Path 1743" d="M224.1,129.681c-.048.048-.346-.169-.769-.169s-.733.213-.781.161.028-.117.165-.213a1.063,1.063,0,0,1,.624-.193,1.051,1.051,0,0,1,.612.2C224.083,129.564,224.127,129.656,224.1,129.681Z" fill="#263238"/>
        <path id="Path_1744" data-name="Path 1744" d="M225.642,132.822a2.633,2.633,0,0,1,.689-.125c.109,0,.209-.032.23-.109a.556.556,0,0,0-.072-.318c-.1-.262-.209-.536-.322-.826a13.942,13.942,0,0,1-.717-2.155,14.162,14.162,0,0,1,.89,2.095c.1.29.209.564.306.826a.632.632,0,0,1,.056.427.274.274,0,0,1-.177.157.669.669,0,0,1-.185.024,2.8,2.8,0,0,1-.7,0Z" fill="#263238"/>
        <path id="Path_1745" data-name="Path 1745" d="M225.936,137.833a7.823,7.823,0,0,1-4.113-1.1,3.9,3.9,0,0,0,4.068,1.821Z" fill="#eb996e"/>
        <path id="Path_1746" data-name="Path 1746" d="M225.461,133.842a.757.757,0,0,0-.681-.282.7.7,0,0,0-.483.258.439.439,0,0,0-.032.5.511.511,0,0,0,.556.141,1.579,1.579,0,0,0,.54-.322.508.508,0,0,0,.121-.125.141.141,0,0,0,0-.157" fill="#eb996e"/>
        <path id="Path_1747" data-name="Path 1747" d="M224.393,133.112c.073,0,.073.459.463.806s.886.274.89.338-.113.089-.318.1a1.18,1.18,0,0,1-.741-.258,1.011,1.011,0,0,1-.358-.657C224.313,133.225,224.365,133.112,224.393,133.112Z" fill="#263238"/>
        <path id="Path_1748" data-name="Path 1748" d="M224.3,128.939c-.044.113-.467.06-.963.121s-.9.193-.967.089.04-.157.205-.266a1.612,1.612,0,0,1,.713-.254,1.636,1.636,0,0,1,.753.089C224.22,128.794,224.313,128.9,224.3,128.939Z" fill="#90caf9"/>
        <path id="Path_1749" data-name="Path 1749" d="M228.111,128.375c-.073.1-.367,0-.717,0s-.649.064-.717-.036,0-.145.149-.238a1.007,1.007,0,0,1,.584-.157,1,1,0,0,1,.572.193C228.1,128.23,228.147,128.327,228.111,128.375Z" fill="#90caf9"/>
        <path id="Path_1750" data-name="Path 1750" d="M219.286,130.748a.777.777,0,0,0-.806.04,1.422,1.422,0,0,0,.9,2.642" fill="#ffbe9d"/>
        <path id="Path_1751" data-name="Path 1751" d="M224.111,123.369a6.235,6.235,0,0,1,2.949.914,4.282,4.282,0,0,1,2.107,2.5.878.878,0,0,1-.024.693.681.681,0,0,1-.842.181,1.974,1.974,0,0,1-.685-.632,1.313,1.313,0,0,1-2.55-.028,1.152,1.152,0,0,1-1.184,1.055,1.51,1.51,0,0,1-1.305-1.031,3.871,3.871,0,0,1-.54,1.5,1.313,1.313,0,0,1-1.39.568,2.731,2.731,0,0,1,0,1.374.939.939,0,0,1-1.084.632c-.427-.145-.592-.649-.689-1.088a10.138,10.138,0,0,1-.33-2.574,3.766,3.766,0,0,1,3.041-3.819,10.07,10.07,0,0,1,2.671-.246" fill="#90caf9"/>
        <path id="Path_1752" data-name="Path 1752" d="M219.072,132.524c0-.02-.121.028-.27-.04a.536.536,0,0,1-.262-.524.544.544,0,0,1,.326-.5,1.767,1.767,0,0,1,.274-.052.348.348,0,0,0-.306-.052.548.548,0,0,0-.3.185.689.689,0,0,0-.153.4.612.612,0,0,0,.4.636A.268.268,0,0,0,219.072,132.524Z" fill="#eb996e"/>
        <path id="Path_1753" data-name="Path 1753" d="M217.92,132.677a.41.41,0,0,0-.129.032,2.614,2.614,0,0,0-1.341,1.1,1.97,1.97,0,0,0-.274.922,2.163,2.163,0,0,0,.258,1.08,2.534,2.534,0,0,0,.806.91,2.272,2.272,0,0,0,1.253.4,2.381,2.381,0,0,0,2.074-1.3,2.014,2.014,0,0,0,.218-1.088,2.268,2.268,0,0,0-.3-.914,2.191,2.191,0,0,0-1.015-.926,1.463,1.463,0,0,0-.359-.109q-.129-.024-.133,0a2.468,2.468,0,0,1,.463.177,2.232,2.232,0,0,1,.947.922,2.2,2.2,0,0,1,.262.874,1.922,1.922,0,0,1-.218,1.011,2.24,2.24,0,0,1-1.942,1.208,2.288,2.288,0,0,1-1.938-1.208,1.917,1.917,0,0,1,0-1.877,2.634,2.634,0,0,1,.935-.947A2.666,2.666,0,0,1,217.92,132.677Z" fill="#263238"/>
        <path id="Path_1754" data-name="Path 1754" d="M220.438,123.163c-.032,0-.1-.27-.286-.669a3.686,3.686,0,0,0-2.606-2.054c-.435-.093-.717-.089-.717-.125a1.531,1.531,0,0,1,.741-.024,3.428,3.428,0,0,1,1.652.7,3.387,3.387,0,0,1,1.063,1.442,1.53,1.53,0,0,1,.153.729Z" fill="#e0e0e0"/>
        <path id="Path_1755" data-name="Path 1755" d="M213.38,134.824s-.052,0-.109-.1a.588.588,0,0,1-.072-.4.874.874,0,0,1,.379-.556,7.341,7.341,0,0,1,.761-.4.93.93,0,0,0,.532-.757,4.455,4.455,0,0,0-.209-1.156,2.3,2.3,0,0,1-.064-.677,1.128,1.128,0,0,1,.29-.669,2.775,2.775,0,0,1,1.293-.681,2.151,2.151,0,0,0,1.16-.669,1.736,1.736,0,0,0,.193-1.208,6.314,6.314,0,0,1-.085-1.208,3.351,3.351,0,0,1,1.164-2.272,2.067,2.067,0,0,1,.342-.238.468.468,0,0,1,.133-.064,4.23,4.23,0,0,0-.4.363,3.383,3.383,0,0,0-.826,1.229,3.274,3.274,0,0,0-.222.995,6.546,6.546,0,0,0,.1,1.18,1.9,1.9,0,0,1-.214,1.353,2.3,2.3,0,0,1-1.265.749,2.622,2.622,0,0,0-1.208.62,1.245,1.245,0,0,0-.189,1.168,4.351,4.351,0,0,1,.193,1.208,1.047,1.047,0,0,1-.218.548,1.261,1.261,0,0,1-.4.326,6.023,6.023,0,0,0-.765.4.806.806,0,0,0-.367.479A.6.6,0,0,0,213.38,134.824Z" fill="#e0e0e0"/>
        <path id="Path_1756" data-name="Path 1756" d="M224.321,126.885c-.032,0-.06-.326-.222-.806a4.294,4.294,0,0,0-1.039-1.7,4.362,4.362,0,0,0-1.7-1.031c-.491-.161-.806-.185-.806-.222a1.9,1.9,0,0,1,.858.081,3.923,3.923,0,0,1,2.844,2.82A1.832,1.832,0,0,1,224.321,126.885Z" fill="#e0e0e0"/>
        <path id="Path_1757" data-name="Path 1757" d="M226.782,125.556a7.657,7.657,0,0,0-.536-.951,4.2,4.2,0,0,0-2.1-1.462,6.505,6.505,0,0,0-2.6-.209c-.673.073-1.084.165-1.092.133a3.585,3.585,0,0,1,1.071-.278,5.933,5.933,0,0,1,2.683.153,4.069,4.069,0,0,1,2.159,1.579,2.727,2.727,0,0,1,.359.737.72.72,0,0,1,.056.3Z" fill="#e0e0e0"/>
        <path id="Path_1758" data-name="Path 1758" d="M221.441,122.394a1.485,1.485,0,0,1-.314.447,3.025,3.025,0,0,1-1.12.7,2.965,2.965,0,0,1-1.309.165,1.043,1.043,0,0,1-.528-.149,5.3,5.3,0,0,0,1.768-.214A5.4,5.4,0,0,0,221.441,122.394Z" fill="#263238"/>
        <path id="Path_1759" data-name="Path 1759" d="M223.6,179.1c-7.375-2.441-2.32-12.2-2.32-12.2l32.225,3.033a4.661,4.661,0,0,1,4.7,4.665h0a4.66,4.66,0,0,1-4.656,4.652l-29.949-.161" fill="#263238"/>
        <path id="Path_1760" data-name="Path 1760" d="M216.047,179.089c-7.186-2.417-2.232-12.193-2.232-12.193l31.419,2.965c3.069.04,4.568,1.523,4.568,4.652h0c0,2.574-.959,4.745-4.556,4.673l-29.2-.1" fill="#263238"/>
        <path id="Path_1761" data-name="Path 1761" d="M223.342,168.548h.35l1.007.04,3.694.189,12.193.669c.6.028,1.184.081,1.764.089s1.156.032,1.716.068,1.116.077,1.656.133a6.018,6.018,0,0,1,1.571.322,3.879,3.879,0,0,1,1.309.838,3.46,3.46,0,0,1,.806,1.273,6.232,6.232,0,0,1,.326,1.374,9.75,9.75,0,0,1,.085,1.3,5.543,5.543,0,0,1-.4,2.187,3.625,3.625,0,0,1-.979,1.333,2.658,2.658,0,0,1-.89.5c-.222.073-.226.048,0-.032a2.756,2.756,0,0,0,.862-.52,3.65,3.65,0,0,0,.934-1.321,5.5,5.5,0,0,0,.4-2.147,9.516,9.516,0,0,0-.1-1.281,6.249,6.249,0,0,0-.322-1.341,3.355,3.355,0,0,0-.769-1.208,3.561,3.561,0,0,0-1.261-.806,5.735,5.735,0,0,0-1.535-.31c-.536-.056-1.088-.1-1.648-.129s-1.132-.056-1.708-.064-1.172-.06-1.768-.089l-12.245-.721-3.7-.238-1-.072-.262-.024Z" fill="#455a64"/>
        <path id="Path_1762" data-name="Path 1762" d="M234.516,169.18l-2.582-1.269-1.8-5.982-.173-7.653,3.649-1.539-2.9-7.271c-.528-1.076-1.611-3.923-4.334-4.858a3.283,3.283,0,0,1,.1-1.208c.214-.359-6.683-.572-7.073-.431s.064,1.4.02,1.611c-2.453.677-4.834,1.688-5.732,5.059a18.386,18.386,0,0,0-.04,5.422l1.913,10.123-1.076,3.323s-3.766,7.847-2.336,10.912a6.833,6.833,0,0,0,3.855,3.758l18.763-.04Z" fill="#90caf9"/>
        <g id="Group_62" data-name="Group 62" opacity="0.3">
          <path id="Path_1763" data-name="Path 1763" d="M215.688,157.176a37.825,37.825,0,0,0,1.378,4.789,10.34,10.34,0,0,0,1.506,2.763,6.989,6.989,0,0,0,3.625,2.2,11.388,11.388,0,0,0,4.274.209l-7.1-4.028-1.889-6.562Z"/>
        </g>
        <path id="Path_1764" data-name="Path 1764" d="M230.129,161.708a3,3,0,0,1-.052-.544c0-.379-.04-.878-.073-1.478-.052-1.249-.113-2.977-.173-4.886s-.1-3.625-.121-4.886v-1.482a3.374,3.374,0,0,1,0-.544,3.22,3.22,0,0,1,.048.54c.02.379.044.878.072,1.482.052,1.249.117,2.977.173,4.886s.1,3.625.125,4.886v1.482A3.374,3.374,0,0,1,230.129,161.708Z" fill="#263238"/>
        <path id="Path_1765" data-name="Path 1765" d="M223.181,154.558a.634.634,0,0,1-.129.056l-.4.145-1.547.544-5.663,1.954-.093.032-.02-.1c-.383-2.058-.834-4.467-1.321-7.073h0a28.35,28.35,0,0,1-.226-4.028,3.657,3.657,0,0,1,.278-.987,4.459,4.459,0,0,1,.467-.89,3.778,3.778,0,0,1,1.49-1.273,3.263,3.263,0,0,1,3.537.383,4.431,4.431,0,0,1,.947,1.442,13.541,13.541,0,0,1,.552,1.515c.3.991.528,1.929.749,2.791l1.027,4.028c.117.463.205.826.27,1.092.028.113.048.205.068.278s0,.1,0,.093a.45.45,0,0,1-.036-.1q-.036-.117-.085-.29c-.077-.266-.177-.632-.31-1.1-.262-.963-.636-2.328-1.1-4-.234-.838-.463-1.772-.769-2.755a13.452,13.452,0,0,0-.556-1.49,4.217,4.217,0,0,0-.9-1.374,3.077,3.077,0,0,0-3.319-.342,3.569,3.569,0,0,0-1.41,1.208,4.383,4.383,0,0,0-.447.85,3.517,3.517,0,0,0-.262.935,28.467,28.467,0,0,0,.222,4h0c.475,2.606.914,5.015,1.289,7.077l-.113-.064,5.639-1.857,1.583-.508.4-.133Z" fill="#263238"/>
        <path id="Path_1766" data-name="Path 1766" d="M217.517,156.431a1.693,1.693,0,0,1-.334-.7c-.133-.4-.189-.745-.133-.761s.205.294.334.7S217.586,156.415,217.517,156.431Z" fill="#263238"/>
        <path id="Path_1767" data-name="Path 1767" d="M219.378,155.911c-.056,0-.181-.29-.274-.681s-.129-.713-.072-.729.181.29.274.681S219.435,155.887,219.378,155.911Z" fill="#263238"/>
        <path id="Path_1768" data-name="Path 1768" d="M221.243,155.243c-.056,0-.181-.234-.278-.556s-.129-.6-.072-.616.177.234.274.556S221.3,155.227,221.243,155.243Z" fill="#263238"/>
        <path id="Path_1769" data-name="Path 1769" d="M231.33,153.7c-.048.028-.262-.238-.4-.628s-.165-.729-.113-.737.169.294.31.665S231.382,153.668,231.33,153.7Z" fill="#263238"/>
        <path id="Path_1770" data-name="Path 1770" d="M232.731,152.9c-.052.028-.222-.205-.379-.516s-.242-.584-.189-.612.222.205.379.516S232.784,152.878,232.731,152.9Z" fill="#263238"/>
        <path id="Path_1771" data-name="Path 1771" d="M220.486,140.9a.5.5,0,0,1,.036.181h-.109a6.937,6.937,0,0,1-.129-.959,3.268,3.268,0,0,1,0-1.148,3.105,3.105,0,0,1,.2,1.132,7.167,7.167,0,0,1,.028.967h-.109C220.442,140.959,220.466,140.895,220.486,140.9Z" fill="#263238"/>
        <path id="Path_1772" data-name="Path 1772" d="M222.162,140.9a2.292,2.292,0,0,1-.173-.935,2.111,2.111,0,0,1,.036-.947,2.291,2.291,0,0,1,.173.935A2.111,2.111,0,0,1,222.162,140.9Z" fill="#263238"/>
        <path id="Path_1773" data-name="Path 1773" d="M223.918,141.277a3.05,3.05,0,0,1-.121-1.128,3.2,3.2,0,0,1,.089-1.132,3.049,3.049,0,0,1,.121,1.128,3.2,3.2,0,0,1-.089,1.132Z" fill="#263238"/>
        <path id="Path_1774" data-name="Path 1774" d="M225.352,141.04a2.332,2.332,0,0,1-.1-.963,2.36,2.36,0,0,1,.1-.967,2.243,2.243,0,0,1,.109.967A2.219,2.219,0,0,1,225.352,141.04Z" fill="#263238"/>
        <path id="Path_1775" data-name="Path 1775" d="M234.637,169.4c0,.056-3.5-.133-7.81-.427s-7.8-.58-7.794-.636,3.5.133,7.81.427S234.641,169.341,234.637,169.4Z" fill="#263238"/>
        <path id="Path_1776" data-name="Path 1776" d="M216.522,156.91l1.728,5.639a5.841,5.841,0,0,0,4.5,4.085l10.739,2.042,2.92-.1-.991-2.493-10-3.956a2.179,2.179,0,0,1-1.611-1.567L222.3,154.9Z" fill="#ffbe9d"/>
        <path id="Path_1777" data-name="Path 1777" d="M226.016,168.749l.093-.7,8.25-.322,4.048-10.211,15.424,1.047-5.2,11.335Z" fill="#455a64"/>
        <path id="Path_1778" data-name="Path 1778" d="M244.477,164.141a.806.806,0,1,1-.25-1.112A.806.806,0,0,1,244.477,164.141Z" fill="#fff"/>
      </g>
      <g id="freepik--character-1--inject-487">
        <path id="Path_1779" data-name="Path 1779" d="M114,95.422c6.723-2.441,3.271-12.58,3.271-12.58L83.148,85.968a4.81,4.81,0,0,0-4.834,4.81h0a4.81,4.81,0,0,0,4.81,4.81L114,95.422" fill="#263238"/>
        <path id="Path_1780" data-name="Path 1780" d="M70.061,123.5l-.068-3.384,6.489-2.308.27,4.713-.367.177c-1.611.769-8.338,3.8-9.591,3.915C65.4,126.736,70.061,123.5,70.061,123.5Z" fill="#90caf9"/>
        <g id="Group_63" data-name="Group 63" opacity="0.4">
          <path id="Path_1781" data-name="Path 1781" d="M67.817,125.169s-1.587,1.249-1.241,1.454,7.251-2.6,10.175-4.1l-.064-.133-8.016,3.343S68.176,125.04,67.817,125.169Z" fill="#fff"/>
        </g>
        <path id="Path_1782" data-name="Path 1782" d="M76.78,122.345l-.1.052-.29.141-1.063.491c-.914.4-2.183.963-3.6,1.539s-2.711,1.076-3.649,1.418l-1.116.4-.306.1-.109.028.1-.044.3-.117,1.108-.427c.935-.359,2.224-.858,3.625-1.438s2.687-1.12,3.625-1.515l1.088-.471.294-.125a.451.451,0,0,1,.089-.04Z" fill="#263238"/>
        <path id="Path_1783" data-name="Path 1783" d="M68.711,125.822a3.126,3.126,0,0,0-.4-.439,2.767,2.767,0,0,0-.548-.27,1.067,1.067,0,0,1,.967.709Z" fill="#263238"/>
        <path id="Path_1784" data-name="Path 1784" d="M70.125,124.194a1.445,1.445,0,0,1-.286-.153c-.145-.1-.254-.2-.238-.222s.137.052.282.157S70.137,124.174,70.125,124.194Z" fill="#263238"/>
        <path id="Path_1785" data-name="Path 1785" d="M70.492,123.735c0,.02-.129,0-.27-.056s-.254-.109-.246-.129.129,0,.27.056S70.516,123.715,70.492,123.735Z" fill="#263238"/>
        <path id="Path_1786" data-name="Path 1786" d="M70.584,123.038a.844.844,0,0,1-.3.169.806.806,0,0,1-.33.1.844.844,0,0,1,.3-.169A.806.806,0,0,1,70.584,123.038Z" fill="#263238"/>
        <path id="Path_1787" data-name="Path 1787" d="M70.528,122.6a.7.7,0,0,1-.31.246.636.636,0,0,1-.383.1,2.312,2.312,0,0,1,.346-.169A2.133,2.133,0,0,1,70.528,122.6Z" fill="#263238"/>
        <path id="Path_1788" data-name="Path 1788" d="M69.686,123.751a1.209,1.209,0,0,1-.4.153,2.184,2.184,0,0,1-.451.077,1.244,1.244,0,0,1-.274,0,.222.222,0,0,1-.149-.081.181.181,0,0,1,0-.181.773.773,0,0,1,.967-.149.765.765,0,0,1,.234.209c.04.06.056.1.052.1a1.108,1.108,0,0,0-.314-.262.753.753,0,0,0-.4-.081.648.648,0,0,0-.447.222c-.044.073,0,.133.093.145a1.1,1.1,0,0,0,.258,0,3.146,3.146,0,0,0,.443-.056C69.549,123.8,69.686,123.739,69.686,123.751Z" fill="#263238"/>
        <path id="Path_1789" data-name="Path 1789" d="M69.61,123.812a.439.439,0,0,1-.153-.254.673.673,0,0,1,0-.326.4.4,0,0,1,.242-.33.169.169,0,0,1,.193.133.487.487,0,0,1,0,.2,1.386,1.386,0,0,1-.089.306.616.616,0,0,1-.157.25,2.558,2.558,0,0,0,.1-.27,1.305,1.305,0,0,0,.068-.3c.02-.1,0-.266-.109-.242s-.161.165-.189.266a.681.681,0,0,0,0,.3A1.611,1.611,0,0,0,69.61,123.812Z" fill="#263238"/>
        <path id="Path_1790" data-name="Path 1790" d="M75.982,120.742a2.439,2.439,0,0,0-.439.2,2.042,2.042,0,0,0-1.067,1.905,2.564,2.564,0,0,0,.06.479.543.543,0,0,1-.052-.125,1.716,1.716,0,0,1-.064-.35,1.974,1.974,0,0,1,1.1-1.958,1.523,1.523,0,0,1,.334-.129.4.4,0,0,1,.129-.02Z" fill="#263238"/>
        <path id="Path_1791" data-name="Path 1791" d="M74.334,118.482a11.437,11.437,0,0,1,.556,1.208,10.684,10.684,0,0,1,.483,1.249,11.128,11.128,0,0,1-.556-1.208,11.865,11.865,0,0,1-.483-1.249Z" fill="#263238"/>
        <path id="Path_1792" data-name="Path 1792" d="M73.541,123.083a3.963,3.963,0,0,1-.846.447,3.8,3.8,0,0,1-.914.286c0-.02.4-.157.882-.363S73.529,123.062,73.541,123.083Z" fill="#263238"/>
        <path id="Path_1793" data-name="Path 1793" d="M74.725,122.6c.02,0,0,.1,0,.2v.205a.306.306,0,0,1-.068-.209C74.661,122.672,74.705,122.587,74.725,122.6Z" fill="#263238"/>
        <path id="Path_1794" data-name="Path 1794" d="M74.943,121.862a.642.642,0,0,1-.028.173c-.028.089-.085.157-.1.149s0-.089.032-.177S74.923,121.854,74.943,121.862Z" fill="#263238"/>
        <path id="Path_1795" data-name="Path 1795" d="M75.478,121.346c0,.024-.077.056-.153.121s-.121.141-.141.133,0-.109.089-.189S75.478,121.326,75.478,121.346Z" fill="#263238"/>
        <path id="Path_1796" data-name="Path 1796" d="M75.885,121.044a.137.137,0,0,1-.052.1c-.052.04-.089.056-.1.04s0-.06.048-.1S75.869,121.028,75.885,121.044Z" fill="#263238"/>
        <path id="Path_1797" data-name="Path 1797" d="M96.106,85.508l-19.053.359A6.115,6.115,0,0,0,71.1,91.236l-3.778,30.706H77.666l3.158-26.521H95.869Z" fill="#263238"/>
        <path id="Path_1798" data-name="Path 1798" d="M67.446,119.989c0,.048,2.268.1,5.063.121s5.015-.052,5.063-.056c.322-.032-2.268-.1-5.063-.121S67.446,119.941,67.446,119.989Z" fill="#455a64"/>
        <path id="Path_1799" data-name="Path 1799" d="M106.587,84.542h-.375l-1.08.048-3.939.185-12.979.669c-.636.028-1.261.081-1.877.089s-1.233.036-1.833.068-1.184.077-1.76.137a6.469,6.469,0,0,0-1.676.326,4.056,4.056,0,0,0-1.39.842,3.484,3.484,0,0,0-.846,1.285,6.163,6.163,0,0,0-.342,1.386A8.791,8.791,0,0,0,78.4,90.89a5.285,5.285,0,0,0,.443,2.207,3.589,3.589,0,0,0,1.039,1.345,2.9,2.9,0,0,0,.947.508c.238.068.242.048,0-.032a3.045,3.045,0,0,1-.918-.528,3.625,3.625,0,0,1-.995-1.329,5.273,5.273,0,0,1-.4-2.171,9.132,9.132,0,0,1,.1-1.293,6.251,6.251,0,0,1,.346-1.353,3.364,3.364,0,0,1,.806-1.208,3.951,3.951,0,0,1,1.345-.806,6.686,6.686,0,0,1,1.635-.31c.572-.056,1.16-.1,1.756-.129s1.208-.056,1.821-.064,1.245-.06,1.881-.089l12.991-.725,3.939-.242L106.2,84.6l.278-.024A.3.3,0,0,0,106.587,84.542Z" fill="#455a64"/>
        <path id="Path_1800" data-name="Path 1800" d="M100.517,71.8l-1.656,5.188a5.99,5.99,0,0,1-4.652,4.169L84.59,83.829l-.749-1.78-.7-2.63,8.322-2.82a2.228,2.228,0,0,0,1.68-1.611l3.315-7.21,4.2,2.574Z" fill="#b78876"/>
        <path id="Path_1801" data-name="Path 1801" d="M104.553,55.588c-3.525.4-4.661,1.845-6.1,3.927a11.786,11.786,0,0,0-1.426,2.791l-2.671,7.565,5.571,1.72-.185,6.151-2.538,7.52,21.4,1.684-.06-10.928-.153-6.594c.2-2.5.721-7.79.278-9.047-1.905-5.369-6.107-4.338-9.188-5.1a20.753,20.753,0,0,0-4.246,0" fill="#90caf9"/>
        <path id="Path_1802" data-name="Path 1802" d="M118.607,75.325c0,.056-4.185.1-9.349.1s-9.361-.036-9.361-.1,4.185-.1,9.349-.1S118.607,75.277,118.607,75.325Z" fill="#fafafa"/>
        <path id="Path_1803" data-name="Path 1803" d="M118.293,79.072c0,.06-4.185.1-9.349.1s-9.349-.044-9.349-.1,4.185-.1,9.349-.1S118.293,79.015,118.293,79.072Z" fill="#fafafa"/>
        <path id="Path_1804" data-name="Path 1804" d="M118.394,83.357c0,.06-4.431.1-9.885.1s-9.889-.044-9.889-.1,4.431-.1,9.889-.1S118.394,83.3,118.394,83.357Z" fill="#fafafa"/>
        <g id="Group_64" data-name="Group 64" opacity="0.3">
          <path id="Path_1805" data-name="Path 1805" d="M115.8,72.949a30.507,30.507,0,0,1-.894,4.4,10.65,10.65,0,0,1-1.43,2.912,7.2,7.2,0,0,1-3.625,2.417c-1.414.439-8.209,1.958-9.667,1.845l12.431-5.885,1.5-6.187Z"/>
        </g>
        <path id="Path_1806" data-name="Path 1806" d="M115.071,72.731l-1.366,5.261a6.042,6.042,0,0,1-4.471,4.431l-10.973,2.57-3.017.032V80.872l11.045-2.985A2.248,2.248,0,0,0,107.9,76.2l1.063-4.628Z" fill="#b78876"/>
        <path id="Path_1807" data-name="Path 1807" d="M118.716,60.071c0,.056-4.612.1-10.3.1s-10.3-.048-10.3-.1,4.612-.1,10.3-.1S118.716,60.019,118.716,60.071Z" fill="#fafafa"/>
        <path id="Path_1808" data-name="Path 1808" d="M118.829,63.644c0,.06-4.971.1-11.105.1s-11.105-.044-11.105-.1,4.971-.1,11.105-.1S118.829,63.579,118.829,63.644Z" fill="#fafafa"/>
        <path id="Path_1809" data-name="Path 1809" d="M118.559,67.491c0,.06-5.237.149-11.681.2s-11.681.044-11.681,0,5.237-.145,11.681-.2S118.555,67.434,118.559,67.491Z" fill="#fafafa"/>
        <path id="Path_1810" data-name="Path 1810" d="M118.394,71.575c0,.056-4.185.1-9.349.1s-9.349-.048-9.349-.1,4.185-.1,9.349-.1S118.394,71.519,118.394,71.575Z" fill="#fafafa"/>
        <path id="Path_1811" data-name="Path 1811" d="M116.952,73.17a.214.214,0,0,1,0-.089l.036-.254c.036-.238.089-.564.149-.975.133-.854.326-2.091.54-3.625s.459-3.412.584-5.514a6.278,6.278,0,0,0-.4-3.222,3.416,3.416,0,0,0-1.132-1.281,4.028,4.028,0,0,0-1.656-.64h-.024a3.424,3.424,0,0,0-2.038.141,5.8,5.8,0,0,0-1.885,1.023,1.47,1.47,0,0,0-.29.326,4.1,4.1,0,0,0-.213.4,6.248,6.248,0,0,0-.31.846,16.515,16.515,0,0,0-.371,1.752c-.209,1.164-.4,2.3-.608,3.392-.4,2.183-.753,4.2-1.076,5.982l-.06-.093,6.2,1.3,1.7.379.447.1a.761.761,0,0,1,.149.044l-.157-.02-.447-.081-1.716-.334-6.219-1.257h-.073V71.4c.314-1.784.665-3.8,1.047-5.99.193-1.092.4-2.228.6-3.4a15.734,15.734,0,0,1,.375-1.768,5.877,5.877,0,0,1,.318-.878q.1-.207.226-.4a1.8,1.8,0,0,1,.326-.371,6.042,6.042,0,0,1,1.962-1.067,3.625,3.625,0,0,1,2.167-.133h-.02a4.217,4.217,0,0,1,1.748.681,3.625,3.625,0,0,1,1.208,1.357,4.3,4.3,0,0,1,.314.826,5.153,5.153,0,0,1,.125.85l.024.4v.4c0,.274-.02.54-.036.806-.137,2.115-.4,3.976-.628,5.527s-.447,2.783-.6,3.625c-.077.4-.141.733-.185.971l-.052.25a.506.506,0,0,1-.052.081Z" fill="#263238"/>
        <path id="Path_1812" data-name="Path 1812" d="M99.869,77.658a3.668,3.668,0,0,0,.028-.56V75.567c0-1.289,0-3.069-.036-5.039s-.052-3.75-.085-5.039c-.02-.624-.036-1.136-.048-1.531a3.739,3.739,0,0,0-.04-.56,3.1,3.1,0,0,0-.028.56c0,.4,0,.906,0,1.531,0,1.289,0,3.073.036,5.039s.056,3.754.089,5.043c0,.62.036,1.136.048,1.527a3.1,3.1,0,0,0,.036.56Z" fill="#263238"/>
        <path id="Path_1813" data-name="Path 1813" d="M106.587,85.911l.189-.9-8.31-.886L94.842,73.714,77.915,73.6l5.547,12.076Z" fill="#455a64"/>
        <path id="Path_1814" data-name="Path 1814" d="M88.763,80.256a.834.834,0,1,0-.63.11.834.834,0,0,0,.63-.11" fill="#fff"/>
        <path id="Path_1815" data-name="Path 1815" d="M100.3,38.432a2.248,2.248,0,0,0-.806,4.149,1.208,1.208,0,0,0,1.132.129,1.39,1.39,0,0,0,.612-.886,4.745,4.745,0,0,0-.27-3.46" fill="#263238"/>
        <path id="Path_1816" data-name="Path 1816" d="M107.264,58.991h0a3.625,3.625,0,0,1-3.625-3.653c0-1.253.032-2.34.032-2.34a3.456,3.456,0,0,1-3.114-3.142c-.213-2.872-.121-9.5-.121-9.5h0A10.022,10.022,0,0,1,110.551,41l.443.3-.137,14.1A3.625,3.625,0,0,1,107.264,58.991Z" fill="#b78876"/>
        <path id="Path_1817" data-name="Path 1817" d="M103.679,52.957a6.683,6.683,0,0,0,3.682-1.3,3.537,3.537,0,0,1-3.625,2.042Z" fill="#aa6550"/>
        <path id="Path_1818" data-name="Path 1818" d="M110.269,44.474c.056,0,1.821-.25,1.652,1.837s-2.215,1.208-2.215,1.164S110.269,44.474,110.269,44.474Z" fill="#b78876"/>
        <path id="Path_1819" data-name="Path 1819" d="M110.4,46.794a1.067,1.067,0,0,0,.1.064.358.358,0,0,0,.27.024.894.894,0,0,0,.479-.769,1.208,1.208,0,0,0-.06-.532.4.4,0,0,0-.25-.3.181.181,0,0,0-.222.081c-.032.056-.024.1-.036.1s-.04-.04,0-.125a.238.238,0,0,1,.093-.125.27.27,0,0,1,.205-.036.508.508,0,0,1,.35.354,1.176,1.176,0,0,1,.081.588.947.947,0,0,1-.6.858.4.4,0,0,1-.33-.081C110.4,46.847,110.394,46.8,110.4,46.794Z" fill="#aa6550"/>
        <path id="Path_1820" data-name="Path 1820" d="M102.434,41.542a8.2,8.2,0,0,0,1.353-.979,2.2,2.2,0,0,0,3.38.4,1.128,1.128,0,0,0,.568.906,1.116,1.116,0,0,0,1.067,0l.044,3.323a1.519,1.519,0,0,0,.209.918.528.528,0,0,0,.806.068,2.3,2.3,0,0,1,.113-1.208.806.806,0,0,1,1-.447,8.258,8.258,0,0,0,.117-1.966,1.744,1.744,0,0,1,.081-.6c.113-.185.165-.044.379-.089a1.486,1.486,0,0,0,1.12-1.341,1.873,1.873,0,0,0-.806-1.611,2.566,2.566,0,0,0-1.78-.427,1.132,1.132,0,0,0,0-1.515,1.849,1.849,0,0,0-1.515-.556c-.56.036-1.188.346-1.257.9a2.3,2.3,0,0,0-4.536-.125,3.068,3.068,0,0,0-2.272-.322,2.2,2.2,0,0,0-1.382,1.913s-.169,2.28,1.277,2.739S102.434,41.542,102.434,41.542Z" fill="#263238"/>
        <path id="Path_1821" data-name="Path 1821" d="M101.21,44.954a.4.4,0,1,0,.4-.363A.4.4,0,0,0,101.21,44.954Z" fill="#263238"/>
        <path id="Path_1822" data-name="Path 1822" d="M101.105,44.5c.048.052.354-.173.806-.169s.749.218.806.165-.028-.121-.165-.222a1.12,1.12,0,0,0-.64-.2,1.067,1.067,0,0,0-.628.205A.391.391,0,0,0,101.105,44.5Z" fill="#263238"/>
        <path id="Path_1823" data-name="Path 1823" d="M105.456,45.054a.4.4,0,1,0,.4-.363A.4.4,0,0,0,105.456,45.054Z" fill="#263238"/>
        <path id="Path_1824" data-name="Path 1824" d="M105.383,44.579c.048.056.354-.173.806-.169s.749.218.806.165-.028-.121-.165-.222a1.12,1.12,0,0,0-.64-.2,1.067,1.067,0,0,0-.628.205C105.4,44.462,105.359,44.559,105.383,44.579Z" fill="#263238"/>
        <path id="Path_1825" data-name="Path 1825" d="M103.808,47.8a2.82,2.82,0,0,0-.7-.129c-.113,0-.218-.032-.238-.109a.556.556,0,0,1,.077-.326l.326-.846a14.673,14.673,0,0,0,.737-2.2,14.414,14.414,0,0,0-.914,2.139c-.109.3-.214.58-.31.85a.628.628,0,0,0-.06.435.294.294,0,0,0,.181.161.693.693,0,0,0,.189.024,2.92,2.92,0,0,0,.713,0Z" fill="#263238"/>
        <path id="Path_1826" data-name="Path 1826" d="M105.085,48.1c-.068,0-.073.467-.475.806s-.9.282-.906.346.113.093.322.1a1.152,1.152,0,0,0,.757-.262,1.031,1.031,0,0,0,.371-.673C105.17,48.208,105.133,48.091,105.085,48.1Z" fill="#263238"/>
        <path id="Path_1827" data-name="Path 1827" d="M105.27,42.883c.044.117.475.06.983.121s.922.2.991.1-.044-.161-.209-.278a1.647,1.647,0,0,0-.733-.254,1.611,1.611,0,0,0-.769.089C105.347,42.734,105.254,42.827,105.27,42.883Z" fill="#263238"/>
        <path id="Path_1828" data-name="Path 1828" d="M101.282,43.246c.077.1.375,0,.733,0s.661.064.733-.036,0-.149-.149-.242a1.067,1.067,0,0,0-1.184.036C101.291,43.1,101.246,43.2,101.282,43.246Z" fill="#263238"/>
        <path id="Path_1829" data-name="Path 1829" d="M102.1,38.3a.313.313,0,0,1-.113-.032.371.371,0,0,0-.3.077.4.4,0,0,0-.133.435.709.709,0,0,0,.431.471.922.922,0,0,0,.773-.048.959.959,0,0,0,.467-.745,1.071,1.071,0,0,0-.363-.91,1.273,1.273,0,0,0-1.015-.326,1.655,1.655,0,0,0-.987.491,1.845,1.845,0,0,0-.471.922,2.493,2.493,0,0,0,.294,1.752,2.9,2.9,0,0,0,.806.918c.238.169.4.242.4.258a1.313,1.313,0,0,1-.427-.189,2.747,2.747,0,0,1-.906-.91,2.61,2.61,0,0,1-.354-1.865,2.014,2.014,0,0,1,.516-1.031,1.813,1.813,0,0,1,1.108-.552,1.478,1.478,0,0,1,1.18.379,1.265,1.265,0,0,1,.4,1.084,1.132,1.132,0,0,1-.576.878,1.084,1.084,0,0,1-.918.032.806.806,0,0,1-.483-.58.5.5,0,0,1,.2-.532.4.4,0,0,1,.354-.052C102.084,38.267,102.108,38.291,102.1,38.3Z" fill="#455a64"/>
      </g>
      <g id="freepik--Plants--inject-487">
        <path id="Path_1830" data-name="Path 1830" d="M34.662,171.6a3.274,3.274,0,0,0-1.208-2.912,8.354,8.354,0,0,1-2.147-2.485c-.673-1.66.205-3.819-.935-5.2-.669-.806-1.865-1.08-2.457-1.95a4.431,4.431,0,0,1-.564-1.555,15.854,15.854,0,0,0-3.988-7.339,13.728,13.728,0,0,0,1.611,7.089,9.007,9.007,0,0,1,1.188,2.691c.258,1.579-.616,3.222-.222,4.761.455,1.772,2.457,2.949,2.562,4.777.089,1.543-1.253,2.908-1.14,4.451a4.157,4.157,0,0,0,.7,1.829,6.142,6.142,0,0,0,5.639,3.275l3.259.1Z" fill="#90caf9"/>
        <g id="Group_65" data-name="Group 65" opacity="0.3">
          <path id="Path_1831" data-name="Path 1831" d="M34.662,171.6a3.274,3.274,0,0,0-1.208-2.912,8.354,8.354,0,0,1-2.147-2.485c-.673-1.66.205-3.819-.935-5.2-.669-.806-1.865-1.08-2.457-1.95a4.431,4.431,0,0,1-.564-1.555,15.854,15.854,0,0,0-3.988-7.339,13.728,13.728,0,0,0,1.611,7.089,9.007,9.007,0,0,1,1.188,2.691c.258,1.579-.616,3.222-.222,4.761.455,1.772,2.457,2.949,2.562,4.777.089,1.543-1.253,2.908-1.14,4.451a4.157,4.157,0,0,0,.7,1.829,6.142,6.142,0,0,0,5.639,3.275l3.259.1Z"/>
        </g>
        <path id="Path_1832" data-name="Path 1832" d="M37.59,179.21a2.526,2.526,0,0,0,.894-.024,5.424,5.424,0,0,0,1.059-.274,4.463,4.463,0,0,0,1.3-.721,1.881,1.881,0,0,0,.536-.721,3.335,3.335,0,0,0,.145-.975,9.547,9.547,0,0,1,.073-1.051,2.856,2.856,0,0,1,.4-1.051,7.841,7.841,0,0,0,1.208-2.236,7.888,7.888,0,0,0-.1-2.856,6.074,6.074,0,0,1,.056-3.061c.367-1.019,1.055-1.946,1.406-3.094a15.473,15.473,0,0,0,.242-3.625,4.874,4.874,0,0,1,.4-1.809c.262-.58.624-1.124.906-1.732a12.377,12.377,0,0,0,.806-3.988c.073-.685.149-1.382.222-2.083a10.473,10.473,0,0,1,.35-2.087,18.164,18.164,0,0,1,.769-2.014,6.8,6.8,0,0,0,.371-1.055,10.8,10.8,0,0,0,.1-1.12,13.221,13.221,0,0,0-.1-2.256c-.093-.753-.234-1.494-.318-2.248v-.282l-.133.068a5.035,5.035,0,0,0-1.744,1.49,7.915,7.915,0,0,0-1.067,1.99,24.534,24.534,0,0,0-.991,4.274,11.508,11.508,0,0,1-1.317,3.948c-.35.58-.781,1.112-1.156,1.68a4.612,4.612,0,0,0-.806,1.861c-.185,1.382.58,2.586.431,3.807a4.213,4.213,0,0,1-.584,1.7c-.294.52-.64,1.007-.967,1.494a9.528,9.528,0,0,0-.866,1.507,4.806,4.806,0,0,0-.4,1.635c-.073,1.1.089,2.139,0,3.126a7.2,7.2,0,0,1-.806,2.679c-.4.806-.806,1.531-1.208,2.236-.181.354-.35.7-.487,1.043a5.035,5.035,0,0,0-.278,1.031,6.4,6.4,0,0,0,0,1.857,4.693,4.693,0,0,0,.947,2.369,2.278,2.278,0,0,0,.266.282,1.51,1.51,0,0,0,.214.181c.121.089.189.129.189.129a4.027,4.027,0,0,1-.636-.62,4.7,4.7,0,0,1-.9-2.348,6.409,6.409,0,0,1,.032-1.833,5.031,5.031,0,0,1,.282-1.007,10.774,10.774,0,0,1,.491-1.027c.367-.7.806-1.426,1.208-2.232a7.279,7.279,0,0,0,.806-2.731c.081-1-.077-2.05,0-3.122a4.7,4.7,0,0,1,.4-1.583,9.8,9.8,0,0,1,.858-1.474c.326-.483.677-.971.975-1.507a4.35,4.35,0,0,0,.612-1.76c.149-1.3-.608-2.518-.423-3.8a4.451,4.451,0,0,1,.773-1.78c.367-.556.806-1.088,1.164-1.688a11.75,11.75,0,0,0,1.345-4.028,24.7,24.7,0,0,1,.983-4.234,7.774,7.774,0,0,1,1.039-1.942,4.8,4.8,0,0,1,1.672-1.426l-.149-.085v.133c.085.761.226,1.507.318,2.248a13.264,13.264,0,0,1,.1,2.219c-.02.367-.04.745-.093,1.088a6.408,6.408,0,0,1-.363,1.019,18.964,18.964,0,0,0-.773,2.042,10.538,10.538,0,0,0-.354,2.119c-.073.7-.145,1.4-.218,2.087a12.178,12.178,0,0,1-.806,3.927c-.27.588-.632,1.136-.9,1.732a5.067,5.067,0,0,0-.4,1.881,15.637,15.637,0,0,1-.23,3.6c-.334,1.116-1.035,2.038-1.39,3.09a6.478,6.478,0,0,0-.052,3.138,7.3,7.3,0,0,1,.121,2.8,8.959,8.959,0,0,1-1.184,2.207,3.061,3.061,0,0,0-.4,1.092,9.031,9.031,0,0,0-.06,1.067,3.247,3.247,0,0,1-.137.951,1.728,1.728,0,0,1-.5.685,4.431,4.431,0,0,1-1.237.717,5.72,5.72,0,0,1-1.043.29,4.118,4.118,0,0,1-.661.064Z" fill="#263238"/>
        <path id="Path_1833" data-name="Path 1833" d="M47.664,140.778a.3.3,0,0,0-.032.1,1.342,1.342,0,0,1-.073.294c-.06.258-.137.645-.254,1.128A16.283,16.283,0,0,1,46.637,144a23.619,23.619,0,0,0-.761,2.312c-.242.87-.459,1.837-.681,2.872a12.028,12.028,0,0,1-1.027,3.186c-.262.532-.56,1.071-.806,1.656A7.677,7.677,0,0,0,42.9,155.9a37.462,37.462,0,0,1-.681,3.944c-.636,2.675-1.245,5.237-1.8,7.541s-1.076,4.391-1.507,6.147-.761,3.15-1,4.149c-.113.475-.2.854-.262,1.128-.028.121-.048.218-.064.3a.318.318,0,0,0,0,.1l.032-.1q.036-.117.085-.29l.3-1.12c.258-.995.62-2.417,1.063-4.133l1.555-6.139c.556-2.32,1.172-4.866,1.817-7.541a36.854,36.854,0,0,0,.677-3.96,7.464,7.464,0,0,1,.443-1.825c.226-.572.52-1.108.781-1.643a12.084,12.084,0,0,0,1.023-3.222c.218-1.035.4-2.014.657-2.868s.479-1.643.725-2.312a16.493,16.493,0,0,0,.636-1.724c.117-.516.169-.882.222-1.144a1.643,1.643,0,0,1,.048-.3.608.608,0,0,0,.012-.117Z" fill="#263238"/>
        <path id="Path_1834" data-name="Path 1834" d="M38.162,179.218c2.123-1.277,2.711-5.12,1.809-7.424s-2.465-4.411-2.719-6.872c-.193-1.893.4-3.839-.036-5.688-.608-2.493-3.061-4.431-3.045-6.985,0-1.438.806-2.82.745-4.238-.089-1.768-1.454-3.158-2.3-4.709-1.3-2.373-1.4-5.188-1.853-7.855s-1.49-5.518-3.863-6.82c-.314,2.284-.922,3.827-.717,6.9.073,1.1,1.366,3.2,1.551,5.619.113,1.442.193,2.888.29,4.334a13.853,13.853,0,0,0,.7,4.149,31.038,31.038,0,0,1,1.313,2.957c.548,1.958-.149,4.08.3,6.062.379,1.68,1.551,3.122,1.8,4.834.346,2.393-1.208,4.89-.4,7.17.4,1.128,1.337,2.034,1.611,3.2.209.91,0,1.873.185,2.783.306,1.466,3.118,2.594,4.612,2.493" fill="#90caf9"/>
        <path id="Path_1835" data-name="Path 1835" d="M27.5,130.877a.62.62,0,0,0,0,.129c0,.093.032.218.052.371.048.326.109.806.222,1.43s.447,1.325.709,2.171.552,1.817.806,2.908.459,2.3.681,3.6a15.021,15.021,0,0,0,1.116,4.064c.3.681.64,1.357.894,2.083a9.329,9.329,0,0,1,.463,2.3,45.969,45.969,0,0,0,.653,4.955c.669,3.351,1.309,6.546,1.889,9.454l1.611,7.7c.483,2.179.866,3.952,1.132,5.2.133.6.238,1.071.314,1.41q.056.222.085.363a.528.528,0,0,0,.036.125.447.447,0,0,0,0-.129,2.626,2.626,0,0,0-.064-.367c-.064-.338-.157-.806-.274-1.418-.254-1.241-.608-3.017-1.051-5.2s-.987-4.814-1.583-7.714l-1.873-9.45a47.53,47.53,0,0,1-.689-4.951,9.5,9.5,0,0,0-.475-2.344c-.266-.737-.608-1.418-.91-2.091a15.113,15.113,0,0,1-1.12-4.028c-.226-1.3-.447-2.51-.7-3.6a29.514,29.514,0,0,0-.818-2.9c-.274-.85-.612-1.547-.741-2.155s-.2-1.092-.262-1.414c-.028-.153-.052-.278-.068-.371a.753.753,0,0,0-.028-.125Z" fill="#263238"/>
        <path id="Path_1836" data-name="Path 1836" d="M267.023,168.527a1.267,1.267,0,0,1-1.889.04,3.577,3.577,0,0,1-.806-1.639,8.54,8.54,0,0,1-.491-4.145,2.3,2.3,0,0,1,.528-1.128,1.208,1.208,0,0,1,1.14-.379,1.752,1.752,0,0,1,1,1.043,9.925,9.925,0,0,1,.975,4.242,3.408,3.408,0,0,1-.463,1.966" fill="#90caf9"/>
        <g id="Group_66" data-name="Group 66" opacity="0.2">
          <path id="Path_1837" data-name="Path 1837" d="M267.023,168.527a1.267,1.267,0,0,1-1.889.04,3.577,3.577,0,0,1-.806-1.639,8.54,8.54,0,0,1-.491-4.145,2.3,2.3,0,0,1,.528-1.128,1.208,1.208,0,0,1,1.14-.379,1.752,1.752,0,0,1,1,1.043,9.925,9.925,0,0,1,.975,4.242,3.408,3.408,0,0,1-.463,1.966"/>
        </g>
        <path id="Path_1838" data-name="Path 1838" d="M265.182,172.076a4.234,4.234,0,0,0-2.638-.318,2.187,2.187,0,0,0-1.305.58.939.939,0,0,0,0,1.3,1.233,1.233,0,0,0,.806.209,3.236,3.236,0,0,1,2.014.29c.318.238.528.636.91.753a.894.894,0,0,0,.987-.439,1.527,1.527,0,0,0,.113-1.132,1.736,1.736,0,0,0-.886-1.245Z" fill="#90caf9"/>
        <path id="Path_1839" data-name="Path 1839" d="M268.372,169.531a2.538,2.538,0,0,1-.4-2.344,4.519,4.519,0,0,1,1.39-2.014,7.5,7.5,0,0,1,2.493-1.47,2.67,2.67,0,0,1,1.12-.189,1.172,1.172,0,0,1,.939.568,1.815,1.815,0,0,1-.262,1.611,18.982,18.982,0,0,1-1.635,2.493,4.431,4.431,0,0,1-1.8,1.539,1.63,1.63,0,0,1-1.921-.266" fill="#90caf9"/>
        <path id="Path_1840" data-name="Path 1840" d="M267.063,179.105a1.717,1.717,0,0,1-.044-.322c0-.23-.048-.52-.085-.866a12.739,12.739,0,0,0-.193-1.277,10.1,10.1,0,0,0-.463-1.506,5.72,5.72,0,0,0-.769-1.361,2.82,2.82,0,0,0-.971-.806,2.727,2.727,0,0,0-.806-.258,1.61,1.61,0,0,1-.314-.044,1.413,1.413,0,0,1,.322,0,2.417,2.417,0,0,1,.854.222,2.868,2.868,0,0,1,1.023.806,5.389,5.389,0,0,1,.806,1.39,9.317,9.317,0,0,1,.459,1.531,10.646,10.646,0,0,1,.169,1.289c.028.371.04.669.044.878A1.285,1.285,0,0,1,267.063,179.105Z" fill="#263238"/>
        <path id="Path_1841" data-name="Path 1841" d="M266.994,178.445a.979.979,0,0,1,0-.145q0-.169,0-.423c0-.367,0-.9-.02-1.555-.032-1.309-.145-3.122-.363-5.112s-.512-3.778-.777-5.063c-.064-.322-.125-.612-.185-.866s-.1-.471-.153-.649l-.1-.4a.566.566,0,0,1-.028-.149.613.613,0,0,1,.052.141l.125.4c.052.177.109.4.173.649s.133.54.205.862a49.5,49.5,0,0,1,.806,5.071c.218,1.994.318,3.807.326,5.124,0,.657,0,1.188-.024,1.555a2.151,2.151,0,0,1-.024.423C266.986,178.421,267,178.445,266.994,178.445Z" fill="#263238"/>
        <path id="Path_1842" data-name="Path 1842" d="M266.986,174.932a2.823,2.823,0,0,1,0-.439,11.934,11.934,0,0,1,.137-1.208,15.628,15.628,0,0,1,.4-1.744,15.366,15.366,0,0,1,.729-2.062,10.936,10.936,0,0,1,2.143-3.335,5.173,5.173,0,0,1,.5-.467c.077-.064.145-.129.213-.181l.2-.137a2.678,2.678,0,0,1,.371-.238,12.788,12.788,0,0,0-1.208,1.088,11.593,11.593,0,0,0-2.087,3.323,16.157,16.157,0,0,0-.733,2.042,14.167,14.167,0,0,0-.4,1.724c-.085.516-.141.906-.173,1.188A3.03,3.03,0,0,1,266.986,174.932Z" fill="#263238"/>
      </g>
    </g>
  </g>
</svg>
