<svg xmlns="http://www.w3.org/2000/svg" xmlns:xlink="http://www.w3.org/1999/xlink" width="30" height="30" viewBox="0 0 30 30">
  <defs>
    <clipPath id="clip-path">
      <rect id="Rectangle_262" data-name="Rectangle 262" width="30" height="30" transform="translate(1439 815)" fill="#fff" stroke="#707070" stroke-width="1"/>
    </clipPath>
  </defs>
  <g id="git" transform="translate(-1439 -815)" clip-path="url(#clip-path)">
    <path id="icons8-github" d="M21.25,6.25a14.991,14.991,0,0,0-3.635,29.538,2.189,2.189,0,0,1-.115-.729V32.5H15.615a2.61,2.61,0,0,1-2.381-1.261c-.491-.911-.576-2.305-1.794-3.158-.361-.284-.086-.608.33-.564a3.931,3.931,0,0,1,2.006,1.528A1.927,1.927,0,0,0,15.771,30a14.332,14.332,0,0,0,2.114-.151A4.706,4.706,0,0,1,19.87,27.4c-5-.514-7.379-3-7.379-6.372a6.131,6.131,0,0,1,1.67-4.041c-.345-1.175-.779-3.571.132-4.484a5.221,5.221,0,0,1,3.932,1.851,11.342,11.342,0,0,1,7.3,0A5.218,5.218,0,0,1,29.456,12.5c.915.914.476,3.32.127,4.493a6.129,6.129,0,0,1,1.66,4.032c0,3.371-2.38,5.855-7.368,6.371a5.262,5.262,0,0,1,2.374,4.245v3.417a2.2,2.2,0,0,1-.044.335A14.992,14.992,0,0,0,21.25,6.25Z" transform="translate(1432.75 808.981)"/>
  </g>
</svg>
