<svg xmlns="http://www.w3.org/2000/svg" xmlns:xlink="http://www.w3.org/1999/xlink" width="30" height="30" viewBox="0 0 30 30">
  <defs>
    <clipPath id="clip-path">
      <rect id="Rectangle_264" data-name="Rectangle 264" width="30" height="30" transform="translate(1527 889)" fill="#fff" stroke="#707070" stroke-width="1"/>
    </clipPath>
  </defs>
  <g id="lin" transform="translate(-1527 -889)" clip-path="url(#clip-path)">
    <path id="icons8-linkedin" d="M8.333,4.762A3.582,3.582,0,0,0,4.762,8.333V31.19a3.582,3.582,0,0,0,3.571,3.571H31.19a3.582,3.582,0,0,0,3.571-3.571V8.333A3.582,3.582,0,0,0,31.19,4.762Zm0,1.429H31.19a2.132,2.132,0,0,1,2.143,2.143V31.19a2.132,2.132,0,0,1-2.143,2.143H8.333A2.132,2.132,0,0,1,6.19,31.19V8.333A2.132,2.132,0,0,1,8.333,6.19ZM11.9,9.77a3.085,3.085,0,0,0-2.007.672,2.355,2.355,0,0,0-.841,1.8,2.635,2.635,0,0,0,2.628,2.476h0a.706.706,0,0,0,.218.038,2.674,2.674,0,0,0,2.849-2.515q0-.019,0-.038A2.705,2.705,0,0,0,11.9,9.77Zm0,1.412c.994,0,1.387.444,1.43,1.074-.009.612-.387,1.085-1.43,1.085-.99,0-1.437-.507-1.437-1.1a.876.876,0,0,1,.338-.716A1.687,1.687,0,0,1,11.9,11.182ZM9.762,15.476a.714.714,0,0,0-.714.714V29.762a.714.714,0,0,0,.714.714h4.286a.714.714,0,0,0,.714-.714V16.19a.714.714,0,0,0-.714-.714Zm6.429,0a.714.714,0,0,0-.714.714V29.762a.714.714,0,0,0,.714.714h4.286a.714.714,0,0,0,.714-.714V22.619a2.736,2.736,0,0,1,.446-1.568,1.431,1.431,0,0,1,1.327-.605,1.546,1.546,0,0,1,1.359.632,2.644,2.644,0,0,1,.439,1.542v7.143a.714.714,0,0,0,.714.714h4.286a.714.714,0,0,0,.714-.714v-7.67a6.981,6.981,0,0,0-1.7-4.925,5.622,5.622,0,0,0-4.148-1.691,6.235,6.235,0,0,0-3.437,1.017v-.3a.714.714,0,0,0-.714-.714ZM10.476,16.9h2.857V29.048H10.476Zm6.429,0h2.857v1.115a.714.714,0,0,0,1.285.43A4.487,4.487,0,0,1,24.628,16.9a4.144,4.144,0,0,1,3.111,1.244,5.528,5.528,0,0,1,1.309,3.942v6.956H26.19V22.619a3.979,3.979,0,0,0-.721-2.4,3.108,3.108,0,0,0-2.48-1.207,3,3,0,0,0-2.5,1.187,4.045,4.045,0,0,0-.725,2.415v6.429H16.9Z" transform="translate(1522.238 884.238)"/>
  </g>
</svg>
