<svg xmlns="http://www.w3.org/2000/svg" xmlns:xlink="http://www.w3.org/1999/xlink" width="380" height="160" viewBox="0 0 380 160">
  <defs>
    <clipPath id="clip-path">
      <rect id="Rectangle_238" data-name="Rectangle 238" width="380" height="160" transform="translate(945 879)" fill="#fff" stroke="#707070" stroke-width="1"/>
    </clipPath>
  </defs>
  <g id="responsivo" transform="translate(-945 -879)" clip-path="url(#clip-path)">
    <g id="Payment_Information-pana" data-name="Payment Information-pana" transform="translate(1038.369 864.544)">
      <g id="freepik--background-complete--inject-405">
        <path id="Path_1366" data-name="Path 1366" d="M108.008,132c-5.87-4.074-7.221-11.671-7.01-18.5a7.43,7.43,0,0,1,.444-3.343,2.32,2.32,0,0,1,2.824-1.212c.847.4,1.22,1.378,1.7,2.191a6.664,6.664,0,0,0,2.681,2.549,2.541,2.541,0,0,0,2.342.2c.979-.546,1.092-1.905,1.081-3.038l-.056-6.34a10.542,10.542,0,0,1,.331-3.388,3.525,3.525,0,0,1,2.2-2.383,2.121,2.121,0,0,1,2.635,1.423,10.351,10.351,0,0,1,.038,1.412,1.216,1.216,0,0,0,.7,1.129c.448.139.907-.192,1.246-.523a15.33,15.33,0,0,0,2.692-4.092,21.206,21.206,0,0,1,2.511-4.224,6.108,6.108,0,0,1,4.141-2.346,3.677,3.677,0,0,1,3.765,2.492c.41,1.593-.512,3.223-1.525,4.518a25.331,25.331,0,0,1-5.252,5.037,2.1,2.1,0,0,0-.881.949c-.241.753.474,1.506,1.224,1.754a13.14,13.14,0,0,0,2.635.29,2.557,2.557,0,0,1,2.18,1.321c.467,1.156-.5,2.376-1.449,3.174a21.648,21.648,0,0,1-6.4,3.724,7.269,7.269,0,0,0-2.379,1.167,2.1,2.1,0,0,0-.666,2.4,2.145,2.145,0,0,0,2.327.889,15.251,15.251,0,0,0,2.485-.96c1.555-.591,3.569-.489,4.571.855a3.588,3.588,0,0,1,.376,3.17,8.283,8.283,0,0,1-1.709,2.809,21.837,21.837,0,0,1-9.292,6.57c-3.611,1.265-6.958,1.611-10.542.309" fill="#f5f5f5"/>
        <path id="Path_1367" data-name="Path 1367" d="M109.759,127.718a101.678,101.678,0,0,1,4-10.952l1.2-2.816c.4-.922.787-1.837,1.224-2.711a51.315,51.315,0,0,1,2.794-4.868c.968-1.506,1.939-2.9,2.858-4.19s1.8-2.485,2.654-3.535a40.467,40.467,0,0,1,4.375-4.657c.557-.5,1.005-.885,1.31-1.129l.346-.286.124-.09a.921.921,0,0,1-.109.105l-.335.3c-.3.264-.734.655-1.28,1.171a42.044,42.044,0,0,0-4.3,4.68c-.84,1.05-1.713,2.259-2.635,3.543s-1.882,2.692-2.839,4.194a51.981,51.981,0,0,0-2.782,4.857c-.433.866-.821,1.777-1.216,2.7l-1.193,2.816a103.975,103.975,0,0,0-4.006,10.918" fill="#e0e0e0"/>
        <path id="Path_1368" data-name="Path 1368" d="M116.239,111.231a2.232,2.232,0,0,1-.113-.482c-.06-.316-.132-.772-.215-1.337-.166-1.129-.335-2.692-.52-4.42s-.376-3.287-.561-4.409c-.087-.561-.166-1.017-.222-1.329a2.334,2.334,0,0,1-.064-.493,2.184,2.184,0,0,1,.143.474c.083.309.181.753.29,1.321.218,1.129.437,2.681.621,4.413s.335,3.245.459,4.424c.056.535.109.983.147,1.34A2.334,2.334,0,0,1,116.239,111.231Z" fill="#e0e0e0"/>
        <path id="Path_1369" data-name="Path 1369" d="M130.805,108.464a3.784,3.784,0,0,1-.58.072c-.377.034-.915.079-1.581.158-1.337.151-3.174.418-5.184.806s-3.821.817-5.12,1.167c-.648.169-1.171.32-1.532.422a2.989,2.989,0,0,1-.569.143,2.889,2.889,0,0,1,.542-.218c.358-.128.873-.3,1.506-.489,1.291-.376,3.1-.843,5.117-1.235a51.785,51.785,0,0,1,5.211-.753c.67-.06,1.216-.087,1.593-.094a2.921,2.921,0,0,1,.6.023Z" fill="#e0e0e0"/>
        <path id="Path_1370" data-name="Path 1370" d="M109.936,127.447a1.163,1.163,0,0,1-.1-.177l-.252-.527c-.215-.456-.512-1.129-.866-1.962-.708-1.668-1.611-4-2.579-6.592s-1.849-4.932-2.519-6.611c-.331-.817-.6-1.487-.8-1.988l-.218-.542a.727.727,0,0,1-.06-.2.852.852,0,0,1,.1.181l.248.523c.218.459.512,1.129.866,1.965.708,1.668,1.615,4,2.579,6.592s1.849,4.928,2.519,6.611l.806,1.988q.124.32.215.542a.776.776,0,0,1,.06.192Z" fill="#e0e0e0"/>
        <path id="Path_1371" data-name="Path 1371" d="M129.288,121.148a.715.715,0,0,1-.192.079l-.561.188-2.074.681c-1.747.572-4.141,1.393-6.815,2.3s-5.075,1.709-6.837,2.259c-.881.271-1.6.482-2.093.617l-.576.151a.632.632,0,0,1-.2.038,1.057,1.057,0,0,1,.192-.079l.561-.188,2.074-.681c1.751-.572,4.141-1.389,6.815-2.3s5.079-1.709,6.841-2.259c.881-.271,1.6-.482,2.093-.614l.572-.154A.647.647,0,0,1,129.288,121.148Z" fill="#e0e0e0"/>
        <path id="Path_1372" data-name="Path 1372" d="M20.349,35.334s-3.483.953-.486,8.464a94.052,94.052,0,0,0,5.2,11.295s.493,1.724-.93,1.852-4.469-.648-5.252,1.009c-.813,1.717.324,3.516,2.809,5.233s7.786,5.67,8.283,6.024.9,1.175-.06,1.416-7.967.324-7.729,3.648,7.94,6.965,8.776,7.379,1.005.8.892,1.269-2.474.275-4.465.376-4.284.576-3.987,2.485,4.657,6.257,16.02,8.441l5.331.67,3.328-4.247c6.57-9.525,6.63-15.685,5.5-17.255S50.5,73.1,49,74.421s-3.038,3.114-3.449,2.861-.557-.651-.252-1.532,3.245-8.878,1.084-11.415-7.217,2.319-8.068,2.82-1.129-.376-1.039-.971,1.1-7.131,1.668-10.094.117-5.045-1.668-5.7c-1.721-.633-3.343,2.056-4.45,2.963s-1.98-.644-1.98-.644a93.336,93.336,0,0,0-4.213-11.7c-3.132-7.455-6.351-5.647-6.351-5.647" fill="#ebebeb"/>
        <path id="Path_1373" data-name="Path 1373" d="M44.889,96.19C42.63,90.7,38.73,80.89,35.353,72.471s-6.446-16-8.693-21.509L23.99,44.456l-.727-1.77-.184-.459a1.689,1.689,0,0,1-.056-.162s.026.053.072.154.117.26.2.456c.177.407.429,1,.753,1.758.651,1.506,1.581,3.742,2.718,6.487C29.043,56.4,32.126,64.008,35.5,72.415s7.244,18.234,9.491,23.719" fill="#e0e0e0"/>
        <path id="Path_1374" data-name="Path 1374" d="M23.09,59.219a1.57,1.57,0,0,1,.376.136c.23.1.557.252.96.44.806.376,1.905.945,3.11,1.581l3.072,1.645c.376.2.685.376.934.493a1.713,1.713,0,0,1,.339.192,1.57,1.57,0,0,1-.376-.136c-.23-.1-.557-.248-.96-.444-.8-.376-1.882-.964-3.1-1.6L24.363,59.9l-.937-.489a2.184,2.184,0,0,1-.335-.2Z" fill="#e0e0e0"/>
        <path id="Path_1375" data-name="Path 1375" d="M32.265,63.4c-.041,0,1.009-2.338,2.349-5.177s2.455-5.128,2.5-5.109S36.1,55.45,34.765,58.292,32.307,63.42,32.265,63.4Z" fill="#e0e0e0"/>
        <path id="Path_1376" data-name="Path 1376" d="M36.87,76.549a1.8,1.8,0,0,1,.248-.312l.715-.806c.6-.685,1.427-1.63,2.3-2.711s1.638-2.078,2.18-2.8l.648-.866a1.671,1.671,0,0,1,.252-.3,1.789,1.789,0,0,1-.2.343c-.136.215-.343.523-.6.9-.52.753-1.269,1.766-2.146,2.843s-1.721,2.018-2.346,2.684c-.316.331-.572.595-.753.772a1.883,1.883,0,0,1-.3.267Z" fill="#e0e0e0"/>
        <path id="Path_1377" data-name="Path 1377" d="M27.74,74.591a1.536,1.536,0,0,1,.376.041l.983.169c.828.151,1.969.376,3.227.625s2.4.489,3.223.67l.971.222a1.506,1.506,0,0,1,.35.105,1.551,1.551,0,0,1-.376-.041l-.983-.169c-.828-.151-1.969-.376-3.227-.625s-2.4-.489-3.219-.67L28.09,74.7A1.506,1.506,0,0,1,27.74,74.591Z" fill="#e0e0e0"/>
        <path id="Path_1378" data-name="Path 1378" d="M30.33,86.714a2.75,2.75,0,0,1,.467.056l1.261.215c1.062.188,2.526.456,4.141.753s3.08.6,4.141.817l1.25.264a2.533,2.533,0,0,1,.452.12,2.334,2.334,0,0,1-.463-.056l-1.261-.211c-1.062-.188-2.526-.459-4.141-.753s-3.08-.6-4.141-.813l-1.25-.267A2.282,2.282,0,0,1,30.33,86.714Z" fill="#e0e0e0"/>
        <path id="Path_1379" data-name="Path 1379" d="M41.791,88.819a3.07,3.07,0,0,1,.3-.4l.866-1.058c.753-.892,1.739-2.131,2.812-3.528s2.014-2.688,2.688-3.626l.8-1.111a2.79,2.79,0,0,1,.309-.4,3.193,3.193,0,0,1-.256.437c-.173.271-.429.663-.753,1.129-.648.956-1.574,2.259-2.635,3.66s-2.1,2.635-2.854,3.5c-.376.437-.689.787-.907,1.024a2.927,2.927,0,0,1-.373.369Z" fill="#e0e0e0"/>
        <rect id="Rectangle_239" data-name="Rectangle 239" width="28.549" height="29.758" transform="translate(129.781 53.616)" fill="#e0e0e0"/>
        <rect id="Rectangle_240" data-name="Rectangle 240" width="28.549" height="29.758" transform="translate(127.85 53.616)" fill="#fafafa"/>
        <path id="Path_1380" data-name="Path 1380" d="M156.407,83.382H127.838V53.605h28.568Zm-28.549,0h28.531V53.639H127.857Z" fill="#e0e0e0"/>
        <rect id="Rectangle_241" data-name="Rectangle 241" width="20.873" height="21.758" transform="translate(131.686 57.615)" fill="#fafafa"/>
        <path id="Path_1381" data-name="Path 1381" d="M131.686,79.519a3.389,3.389,0,0,1-.516.6c-.331.35-.8.828-1.325,1.344s-1.009.979-1.367,1.306a3.109,3.109,0,0,1-.6.5,3.471,3.471,0,0,1,.512-.595c.335-.35.806-.828,1.329-1.348s1.013-.979,1.367-1.306a3.249,3.249,0,0,1,.6-.5Z" fill="#e0e0e0"/>
        <path id="Path_1382" data-name="Path 1382" d="M152.559,79.466a3.188,3.188,0,0,1,.6.516c.35.331.828.8,1.344,1.325s.979,1.009,1.306,1.363a3.388,3.388,0,0,1,.5.6,3.423,3.423,0,0,1-.595-.512c-.35-.331-.828-.8-1.348-1.329s-.979-1.009-1.306-1.367a3.317,3.317,0,0,1-.5-.6Z" fill="#e0e0e0"/>
        <path id="Path_1383" data-name="Path 1383" d="M152.5,57.675a3.057,3.057,0,0,1,.516-.6c.331-.354.8-.828,1.325-1.348s1.009-.975,1.363-1.3a3.562,3.562,0,0,1,.6-.5,3.2,3.2,0,0,1-.512.6c-.331.35-.8.828-1.329,1.348s-1.009.979-1.367,1.306a3.317,3.317,0,0,1-.6.5Z" fill="#e0e0e0"/>
        <path id="Path_1384" data-name="Path 1384" d="M131.63,57.728a3.23,3.23,0,0,1-.61-.5c-.354-.335-.828-.8-1.348-1.325s-.975-1.009-1.3-1.367a3.241,3.241,0,0,1-.5-.6,3.388,3.388,0,0,1,.6.512c.35.335.828.806,1.348,1.329s.979,1.013,1.306,1.367a3.249,3.249,0,0,1,.512.587Z" fill="#e0e0e0"/>
        <path id="Path_1385" data-name="Path 1385" d="M152.5,79.372a.437.437,0,0,1,0-.105V77.791c0-1.032,0-2.53-.023-4.435,0-3.81-.023-9.239-.041-15.741l.083.083H131.7l.068-.094V79.361l-.079-.079,15.06.041,4.236.023h1.506a.433.433,0,0,1-.094,0h-1.385l-4.213.023-15.124.041H131.6V57.479h20.99V57.6c0,6.521-.03,11.969-.041,15.794,0,1.882,0,3.388-.019,4.416v1.453a.776.776,0,0,1-.026.105Z" fill="#e0e0e0"/>
        <rect id="Rectangle_242" data-name="Rectangle 242" width="6.965" height="6.965" transform="translate(138.64 65.013)" fill="#ebebeb"/>
        <rect id="Rectangle_243" data-name="Rectangle 243" width="2.865" height="14.25" transform="translate(151.151 19.791) rotate(-0.31)" fill="#e0e0e0"/>
        <rect id="Rectangle_244" data-name="Rectangle 244" width="7.417" height="7.869" transform="translate(126.344 19.85) rotate(-0.31)" fill="#ebebeb"/>
        <rect id="Rectangle_245" data-name="Rectangle 245" width="7.417" height="7.869" transform="translate(133.723 19.806) rotate(-0.31)" fill="#f5f5f5"/>
        <path id="Path_1386" data-name="Path 1386" d="M126.351,22.029c4.928.041,9.872,0,14.8-.068a.079.079,0,0,0,0-.158q-7.391-.038-14.8.09a.068.068,0,0,0,0,.136Z" fill="#e0e0e0"/>
        <rect id="Rectangle_246" data-name="Rectangle 246" width="13.475" height="6.412" transform="translate(121.718 27.62) rotate(-0.31)" fill="#ebebeb"/>
        <rect id="Rectangle_247" data-name="Rectangle 247" width="13.475" height="6.412" transform="translate(135.128 27.547) rotate(-0.31)" fill="#f5f5f5"/>
        <path id="Path_1387" data-name="Path 1387" d="M121.724,29.408c8.953.1,17.936,0,26.885-.132a.079.079,0,0,0,0-.158c-8.953-.049-17.936-.041-26.885.154a.068.068,0,0,0,0,.136Z" fill="#e0e0e0"/>
        <rect id="Rectangle_248" data-name="Rectangle 248" width="52.205" height="2.297" transform="translate(116.687 34.035)" fill="#e0e0e0"/>
        <rect id="Rectangle_249" data-name="Rectangle 249" width="2.12" height="7.839" transform="translate(125.233 35.142)" fill="#e0e0e0"/>
        <rect id="Rectangle_250" data-name="Rectangle 250" width="2.12" height="7.839" transform="translate(156.87 35.142)" fill="#e0e0e0"/>
        <rect id="Rectangle_251" data-name="Rectangle 251" width="2.865" height="19.6" transform="translate(153.946 14.471) rotate(-0.31)" fill="#ebebeb"/>
        <rect id="Rectangle_252" data-name="Rectangle 252" width="4.45" height="15.884" transform="translate(156.834 18.13) rotate(-0.31)" fill="#f5f5f5"/>
        <path id="Path_1388" data-name="Path 1388" d="M161.256,21.174a31.35,31.35,0,0,1-4.45,0,32.913,32.913,0,0,1,4.45,0Z" fill="#e0e0e0"/>
        <path id="Path_1389" data-name="Path 1389" d="M161.256,20.508a16.565,16.565,0,0,1-2.225.075,16.509,16.509,0,0,1-2.225-.075,31.351,31.351,0,0,1,4.45,0Z" fill="#e0e0e0"/>
        <path id="Path_1390" data-name="Path 1390" d="M161.256,31.625a31.351,31.351,0,0,1-4.45,0,32.913,32.913,0,0,1,4.45,0Z" fill="#e0e0e0"/>
        <path id="Path_1391" data-name="Path 1391" d="M161.256,30.94a31.351,31.351,0,0,1-4.45,0,32.913,32.913,0,0,1,4.45,0Z" fill="#e0e0e0"/>
        <path id="Path_1392" data-name="Path 1392" d="M159.1,29.483c-.041,0-.079-1.6-.079-3.577s.038-3.58.079-3.58.075,1.6.075,3.58S159.144,29.483,159.1,29.483Z" fill="#e0e0e0"/>
        <rect id="Rectangle_253" data-name="Rectangle 253" width="4.845" height="11.988" transform="translate(161.305 22.014)" fill="#ebebeb"/>
        <path id="Path_1393" data-name="Path 1393" d="M156.158,17.812a.825.825,0,1,1-.821-.825.825.825,0,0,1,.821.825Z" fill="#e0e0e0"/>
        <rect id="Rectangle_254" data-name="Rectangle 254" width="0.508" height="11.66" transform="translate(155.081 20.075)" fill="#e0e0e0"/>
      </g>
      <g id="freepik--Floor--inject-405">
        <path id="Path_1394" data-name="Path 1394" d="M179.056,174.35c0,.053-35.571.1-79.44.1s-79.44-.045-79.44-.1,35.564-.1,79.44-.1S179.056,174.294,179.056,174.35Z" fill="#263238"/>
      </g>
      <g id="freepik--Screen--inject-405">
        <path id="Path_1395" data-name="Path 1395" d="M101.07,17.428H91.315a2.421,2.421,0,0,0-2.368,2.477v1.77a2.425,2.425,0,0,1-2.372,2.474H67.565A2.425,2.425,0,0,1,65.2,21.671V19.9a2.425,2.425,0,0,0-2.368-2.477H50.86a7.673,7.673,0,0,0-7.677,7.647l-.026,123.113a7.673,7.673,0,0,0,7.669,7.684l50.209.03a7.673,7.673,0,0,0,7.677-7.673l.026-123.113A7.677,7.677,0,0,0,101.07,17.428Z" fill="#fff"/>
        <path id="Path_1396" data-name="Path 1396" d="M101.07,17.428h.26a5.512,5.512,0,0,1,.779.06,7.21,7.21,0,0,1,2.88.994A7.364,7.364,0,0,1,106.74,19.9a7.662,7.662,0,0,1,1.461,2.312,7.944,7.944,0,0,1,.576,3.117v3.618c0,10.226,0,25.022.026,43.3s0,40.051,0,64.222v11.494a8.245,8.245,0,0,1-.3,2.342,7.669,7.669,0,0,1-.979,2.161,8.26,8.26,0,0,1-1.6,1.777,7.775,7.775,0,0,1-4.431,1.721c-1.608.045-3.208,0-4.823.019H51.41a8.1,8.1,0,0,1-5-1.378,7.88,7.88,0,0,1-3.046-4.2,8.569,8.569,0,0,1-.32-2.6V25.195c0-.309.03-.621.045-.93a4.433,4.433,0,0,1,.158-.915,7.764,7.764,0,0,1,7.921-6.031H62.656a2.47,2.47,0,0,1,1.506.422,2.538,2.538,0,0,1,.937,1.235,4.179,4.179,0,0,1,.158,1.506v.753a5.18,5.18,0,0,0,.026.73,2.41,2.41,0,0,0,.572,1.284,2.259,2.259,0,0,0,1.16.749,2.673,2.673,0,0,0,.693.068h3.479l10.135.03h5.5a2.259,2.259,0,0,0,.941-.331,2.436,2.436,0,0,0,1.084-1.551,4.518,4.518,0,0,0,.06-.93v-.93a5.072,5.072,0,0,1,.041-.9,2.537,2.537,0,0,1,.275-.821,2.41,2.41,0,0,1,1.224-1.084,3.882,3.882,0,0,1,1.506-.162h0a3.765,3.765,0,0,0-1.506.162,2.368,2.368,0,0,0-1.186,1.054,2.538,2.538,0,0,0-.279.8,5.222,5.222,0,0,0-.038.881v.983a4.281,4.281,0,0,1-.023.941,2.526,2.526,0,0,1-1.111,1.6,2.368,2.368,0,0,1-.979.346c-.354.03-.7,0-1.054,0H67.712a2.79,2.79,0,0,1-.723-.072,2.376,2.376,0,0,1-1.239-.753,2.553,2.553,0,0,1-.606-1.352,5.583,5.583,0,0,1-.026-.753v-.753a4,4,0,0,0-.151-1.472,2.383,2.383,0,0,0-.889-1.163,2.33,2.33,0,0,0-1.434-.4H51.162a7.607,7.607,0,0,0-7.714,5.911c-.075.29-.1.595-.151.892a5.668,5.668,0,0,0-.041.915V147.781a8.2,8.2,0,0,0,.312,2.534,7.635,7.635,0,0,0,2.955,4.085,7.884,7.884,0,0,0,4.894,1.344H96.7c1.611,0,3.227.026,4.812-.023a7.53,7.53,0,0,0,4.315-1.672,7.99,7.99,0,0,0,1.555-1.728,7.489,7.489,0,0,0,.956-2.1,7.929,7.929,0,0,0,.286-2.285v-11.5c0-24.171.026-45.932.038-64.222s.034-33.079.041-43.3V25.293a7.88,7.88,0,0,0-.565-3.08,7.739,7.739,0,0,0-6.035-4.687,5.877,5.877,0,0,0-.776-.072Z" fill="#263238"/>
        <path id="Path_1397" data-name="Path 1397" d="M102.538,31.512c0,.034-1.265.068-2.831.083s-2.835,0-2.835-.038,1.269-.068,2.835-.083S102.538,31.479,102.538,31.512Z" fill="#263238"/>
        <path id="Path_1398" data-name="Path 1398" d="M102.553,32.962c0,.034-1.269.072-2.835.083s-2.831,0-2.831-.038,1.265-.068,2.831-.083S102.553,32.928,102.553,32.962Z" fill="#263238"/>
        <path id="Path_1399" data-name="Path 1399" d="M102.564,34.411c0,.034-1.269.072-2.835.083s-2.831,0-2.831-.038,1.265-.068,2.831-.083S102.564,34.378,102.564,34.411Z" fill="#263238"/>
        <path id="Path_1400" data-name="Path 1400" d="M51.015,36.113h.444l1.209-.026-.034.034V34.735a.463.463,0,0,1,.407-.376h.576a.467.467,0,0,1,.4.467v1.28l-.056-.056h1.506l-.056.056V33.741a.482.482,0,0,0-.215-.376l-.666-.659-.644-.636-.312-.3a.712.712,0,0,0-.316-.237.4.4,0,0,0-.35.068c-.09.079-.188.188-.282.279l-.55.5c-.343.358-.7.685-.964.994a1.077,1.077,0,0,0-.075.569V36.1a1.066,1.066,0,0,1,0-.184v-.546c0-.218,0-.538-.019-.87v-.851a.617.617,0,0,1,.083-.32c.282-.346.617-.651.968-1.02l.542-.557c.1-.094.177-.188.294-.29a.52.52,0,0,1,.444-.087.821.821,0,0,1,.376.26l.312.309.648.633.666.655a1.174,1.174,0,0,1,.173.184.527.527,0,0,1,.079.26v2.47H53.978V34.807a.376.376,0,0,0-.309-.376h-.553a.376.376,0,0,0-.328.3v1.416H51.207A.5.5,0,0,1,51.015,36.113Z" fill="#263238"/>
        <path id="Path_1401" data-name="Path 1401" d="M81.153,44.426A5.237,5.237,0,1,1,79.631,40.7,5.237,5.237,0,0,1,81.153,44.426Z" fill="#263238"/>
        <g id="Group_57" data-name="Group 57" opacity="0.4">
          <path id="Path_1402" data-name="Path 1402" d="M77.527,41.365V45.4H70.8a5.648,5.648,0,0,1,.919-4.141Z" fill="#455a64"/>
        </g>
        <path id="Path_1403" data-name="Path 1403" d="M75.088,43.447a1.31,1.31,0,1,1-.385-.928A1.314,1.314,0,0,1,75.088,43.447Z" fill="#263238"/>
        <path id="Path_1404" data-name="Path 1404" d="M77.78,47.009a1.6,1.6,0,1,1,1.6-1.6,1.6,1.6,0,0,1-1.6,1.6Zm0-2.635a1.009,1.009,0,1,1,0,.015Z" fill="#90caf9"/>
        <path id="Path_1405" data-name="Path 1405" d="M73.864,43.342v4.281h6.19a5.007,5.007,0,0,0,.99-4.281Z" fill="#fff"/>
        <path id="Path_1406" data-name="Path 1406" d="M79.09,45.48a1.314,1.314,0,1,1-1.31-1.31A1.314,1.314,0,0,1,79.09,45.48Z" fill="#263238"/>
        <rect id="Rectangle_255" data-name="Rectangle 255" width="33.094" height="10.109" rx="5.053" transform="translate(59.388 129.981)" fill="#90caf9"/>
        <path id="Path_1407" data-name="Path 1407" d="M68.484,134.427c0,.55-.4.885-1.058.885h-.7v.817h-.271v-2.59h.968C68.085,133.538,68.484,133.87,68.484,134.427Zm-.271,0c0-.414-.275-.651-.794-.651H66.73v1.3h.689C67.938,135.071,68.213,134.834,68.213,134.427Z" fill="#fff"/>
        <path id="Path_1408" data-name="Path 1408" d="M70.476,134.92v1.209h-.252v-.3a.73.73,0,0,1-.67.324c-.44,0-.712-.23-.712-.565s.192-.553.753-.553h.617v-.117c0-.335-.188-.516-.553-.516a.994.994,0,0,0-.648.23l-.117-.2a1.22,1.22,0,0,1,.791-.264.693.693,0,0,1,.791.753Zm-.264.625v-.32H69.6c-.376,0-.5.147-.5.35s.181.376.493.376a.625.625,0,0,0,.617-.414Z" fill="#fff"/>
        <path id="Path_1409" data-name="Path 1409" d="M72.787,134.182l-.971,2.18c-.166.376-.376.5-.648.5a.666.666,0,0,1-.474-.177l.12-.2a.486.486,0,0,0,.358.151c.173,0,.29-.083.4-.328l.083-.188-.877-1.943h.275l.734,1.653.73-1.653Z" fill="#fff"/>
        <path id="Path_1410" data-name="Path 1410" d="M75,136.147v.425h-.184v-.422a1.4,1.4,0,0,1-.885-.335l.109-.215a1.246,1.246,0,0,0,.776.312v-.975c-.407-.1-.821-.226-.821-.712,0-.358.256-.663.821-.708v-.425H75v.422a1.435,1.435,0,0,1,.753.23l-.09.218a1.374,1.374,0,0,0-.663-.215v.979c.422.1.862.218.862.715C75.867,135.8,75.6,136.114,75,136.147Zm-.184-1.465v-.926c-.376.034-.55.23-.55.463S74.519,134.6,74.821,134.683Zm.776.776c0-.294-.271-.376-.591-.471v.926C75.415,135.884,75.6,135.7,75.6,135.459Z" fill="#fff"/>
        <path id="Path_1411" data-name="Path 1411" d="M77.934,135.383c0,.437-.316.753-.941.753a1.344,1.344,0,0,1-.934-.331l.128-.215a1.13,1.13,0,0,0,.806.3c.429,0,.666-.2.666-.523s-.218-.512-.7-.512h-.184v-.2l.715-.9H76.165v-.237h1.668v.188l-.734.922C77.64,134.679,77.934,134.969,77.934,135.383Z" fill="#fff"/>
        <path id="Path_1412" data-name="Path 1412" d="M80.012,135.368c0,.441-.3.783-.941.783a1.333,1.333,0,0,1-.926-.331l.128-.215a1.107,1.107,0,0,0,.794.3c.44,0,.674-.215.674-.531s-.207-.538-.866-.538h-.565l.132-1.3h1.419v.237H78.687l-.087.825h.331C79.719,134.6,80.012,134.909,80.012,135.368Z" fill="#fff"/>
        <path id="Path_1413" data-name="Path 1413" d="M80.355,135.944a.192.192,0,0,1,.2-.2.2.2,0,0,1,.2.2.2.2,0,0,1-.2.2A.2.2,0,0,1,80.355,135.944Z" fill="#fff"/>
        <path id="Path_1414" data-name="Path 1414" d="M81.093,134.834c0-.825.433-1.318,1.035-1.318s1.035.493,1.035,1.318-.437,1.318-1.035,1.318S81.093,135.658,81.093,134.834Zm1.8,0c0-.693-.309-1.073-.753-1.073s-.753.376-.753,1.073.312,1.073.753,1.073S82.889,135.538,82.889,134.834Z" fill="#fff"/>
        <path id="Path_1415" data-name="Path 1415" d="M83.548,134.834c0-.825.433-1.318,1.032-1.318s1.035.493,1.035,1.318-.437,1.318-1.035,1.318S83.548,135.658,83.548,134.834Zm1.792,0c0-.693-.309-1.073-.753-1.073s-.753.376-.753,1.073.312,1.073.753,1.073S85.34,135.538,85.34,134.834Z" fill="#fff"/>
        <path id="Path_1416" data-name="Path 1416" d="M104.289,86.725c0,.053-12.27.1-27.4.1s-27.4-.045-27.4-.1,12.266-.1,27.4-.1S104.289,86.673,104.289,86.725Z" fill="#e0e0e0"/>
        <path id="Path_1417" data-name="Path 1417" d="M103.02,110.813c0,.056-12.27.1-27.4.1s-27.4-.041-27.4-.1,12.266-.1,27.4-.1S103.02,110.761,103.02,110.813Z" fill="#263238"/>
        <path id="Path_1418" data-name="Path 1418" d="M103.02,124.1c0,.053-12.27.1-27.4.1s-27.4-.045-27.4-.1,12.266-.1,27.4-.1S103.02,124.047,103.02,124.1Z" fill="#263238"/>
        <path id="Path_1419" data-name="Path 1419" d="M70.852,113.724h-.9v-.233h2.074v.233h-.9v2.33h-.271Z" fill="#263238"/>
        <path id="Path_1420" data-name="Path 1420" d="M72.14,114.947H73.1v.23H72.14Z" fill="#263238"/>
        <path id="Path_1421" data-name="Path 1421" d="M73.416,115.836l.117-.207a1.179,1.179,0,0,0,.685.218c.376,0,.52-.124.52-.316,0-.5-1.25-.105-1.25-.87,0-.312.271-.55.753-.55a1.3,1.3,0,0,1,.681.181l-.113.207a.99.99,0,0,0-.569-.162c-.346,0-.5.136-.5.316,0,.523,1.25.128,1.25.87,0,.335-.294.55-.794.55a1.3,1.3,0,0,1-.779-.237Z" fill="#263238"/>
        <path id="Path_1422" data-name="Path 1422" d="M77.253,114.936v1.129h-.26v-1.092a.538.538,0,0,0-.58-.614.629.629,0,0,0-.674.693v1.013h-.26v-2.741h.26v1.129a.809.809,0,0,1,.723-.354.753.753,0,0,1,.791.836Z" fill="#263238"/>
        <path id="Path_1423" data-name="Path 1423" d="M77.9,113.52a.188.188,0,1,1,.055.137.188.188,0,0,1-.055-.137Zm.06.606h.26v1.928h-.26Z" fill="#263238"/>
        <path id="Path_1424" data-name="Path 1424" d="M79.918,114.111v.252h-.064a.625.625,0,0,0-.648.712v.983h-.26V114.13H79.2v.376a.727.727,0,0,1,.723-.4Z" fill="#263238"/>
        <path id="Path_1425" data-name="Path 1425" d="M81.484,115.937a.625.625,0,0,1-.407.136.508.508,0,0,1-.561-.561v-1.163H80.17v-.222h.346V113.7h.26v.422h.584v.222h-.584v1.129a.309.309,0,0,0,.331.354.422.422,0,0,0,.286-.1Z" fill="#263238"/>
        <path id="Path_1426" data-name="Path 1426" d="M69.177,121.415v.569h-.41v-.565A2.18,2.18,0,0,1,67.539,121l.226-.508a1.882,1.882,0,0,0,1,.376v-1c-.557-.136-1.152-.316-1.152-1.013,0-.508.376-.956,1.152-1.032v-.565h.41v.576a2.094,2.094,0,0,1,1.013.3l-.2.5a2.1,2.1,0,0,0-.809-.271v1.013c.553.136,1.16.309,1.16,1.005C70.336,120.892,69.96,121.332,69.177,121.415Zm-.41-2.142v-.892c-.376.056-.508.237-.508.456s.218.35.508.437Zm.93,1.156c0-.245-.222-.376-.52-.444v.87c.365-.041.52-.211.52-.425Z" fill="#263238"/>
        <path id="Path_1427" data-name="Path 1427" d="M73.19,120.323c0,.591-.444,1.1-1.385,1.1a2.214,2.214,0,0,1-1.314-.4l.279-.508a1.634,1.634,0,0,0,1.028.346c.463,0,.753-.2.753-.531s-.23-.52-.753-.52h-.32v-.459l.794-.945H70.683v-.546H73.04v.433l-.851,1.013a.994.994,0,0,1,1,1.02Z" fill="#263238"/>
        <path id="Path_1428" data-name="Path 1428" d="M76.112,120.3c0,.617-.444,1.129-1.385,1.129a2.21,2.21,0,0,1-1.318-.4l.275-.508a1.66,1.66,0,0,0,1.032.346c.467,0,.753-.2.753-.535s-.215-.546-.941-.546H73.68l.181-1.905H75.92v.546H74.414l-.075.809h.335C75.7,119.228,76.112,119.676,76.112,120.3Z" fill="#263238"/>
        <path id="Path_1429" data-name="Path 1429" d="M76.466,120.994a.41.41,0,1,1,.41.41A.41.41,0,0,1,76.466,120.994Z" fill="#263238"/>
        <path id="Path_1430" data-name="Path 1430" d="M77.644,119.623c0-1.152.633-1.8,1.465-1.8s1.465.651,1.465,1.8-.629,1.8-1.465,1.8S77.644,120.775,77.644,119.623Zm2.259,0c0-.847-.331-1.235-.809-1.235s-.806.376-.806,1.235.328,1.235.806,1.235.825-.38.825-1.235Z" fill="#263238"/>
        <path id="Path_1431" data-name="Path 1431" d="M81.01,119.623c0-1.152.633-1.8,1.461-1.8s1.468.651,1.468,1.8-.632,1.8-1.468,1.8S81.01,120.775,81.01,119.623Zm2.259,0c0-.847-.331-1.235-.813-1.235s-.8.376-.8,1.235.328,1.235.8,1.235.828-.38.828-1.235Z" fill="#263238"/>
        <path id="Path_1432" data-name="Path 1432" d="M50.266,92.022v1.724a.215.215,0,0,0,.215.222h3.663a.218.218,0,0,0,.218-.222V92.026" fill="#263238"/>
        <path id="Path_1433" data-name="Path 1433" d="M50.266,91.507h4.04s0-.482-.346-.482H50.571S50.235,91.055,50.266,91.507Z" fill="#263238"/>
        <path id="Path_1434" data-name="Path 1434" d="M51.892,93.431c0,.166-.2.3-.44.3s-.444-.132-.444-.3.2-.294.444-.294S51.892,93.269,51.892,93.431Z" fill="#263238"/>
        <path id="Path_1435" data-name="Path 1435" d="M56.263,92.681a.753.753,0,0,1,.776-.753.7.7,0,0,1,.538.218l-.1.1a.568.568,0,0,0-.437-.181.621.621,0,1,0,0,1.242.58.58,0,0,0,.437-.177l.1.1a.708.708,0,0,1-.542.222.753.753,0,0,1-.772-.772Z" fill="#263238"/>
        <path id="Path_1436" data-name="Path 1436" d="M58.7,92.734v.7h-.147v-.177a.4.4,0,0,1-.376.184c-.252,0-.407-.132-.407-.328s.109-.32.429-.32h.354v-.068a.275.275,0,0,0-.316-.3.572.572,0,0,0-.376.132l-.068-.113a.708.708,0,0,1,.452-.151.4.4,0,0,1,.456.437Zm-.151.376v-.184H58.2c-.215,0-.286.083-.286.2s.105.215.282.215a.376.376,0,0,0,.354-.245Z" fill="#263238"/>
        <path id="Path_1437" data-name="Path 1437" d="M59.67,92.3v.147h-.038a.362.362,0,0,0-.376.414v.576h-.147V92.3h.143v.222A.418.418,0,0,1,59.67,92.3Z" fill="#263238"/>
        <path id="Path_1438" data-name="Path 1438" d="M60.943,91.842v1.593H60.8v-.226a.474.474,0,0,1-.429.233.572.572,0,0,1,0-1.129.482.482,0,0,1,.422.222v-.678ZM60.8,92.87a.41.41,0,1,0-.11.311A.414.414,0,0,0,60.8,92.87Z" fill="#263238"/>
        <path id="Path_1439" data-name="Path 1439" d="M73.134,107.233a2.259,2.259,0,0,0,.659-.143,1.837,1.837,0,0,0,1.129-1.438,4.27,4.27,0,0,0,.019-.666v-2.436c0-.6,0-1.257-.023-1.928a1.8,1.8,0,0,0-1.291-1.506,4.518,4.518,0,0,0-1.129-.068H49.912a1.766,1.766,0,0,0-1.412.708,1.7,1.7,0,0,0-.324.753,5.421,5.421,0,0,0-.034.828v4.145a1.72,1.72,0,0,0,.222.73,1.8,1.8,0,0,0,1.186.862,4.227,4.227,0,0,0,.753.038h2.3l10.681.023,7.2.03h2.466a1.479,1.479,0,0,1,.173,0H70.483l-7.2.034-10.681.019H50.3a4.173,4.173,0,0,1-.8-.038,1.977,1.977,0,0,1-1.314-.956,1.883,1.883,0,0,1-.248-.806c0-.286,0-.546,0-.825v-3.336a5.233,5.233,0,0,1,.038-.866,1.883,1.883,0,0,1,.358-.817,1.977,1.977,0,0,1,1.57-.783H72.49a4.419,4.419,0,0,1,1.178.079,1.92,1.92,0,0,1,1.374,1.611c.034.7,0,1.337,0,1.943v2.436a4.45,4.45,0,0,1-.03.678,1.882,1.882,0,0,1-.508,1.009,1.807,1.807,0,0,1-.7.456,1.86,1.86,0,0,1-.5.109Z" fill="#263238"/>
        <path id="Path_1440" data-name="Path 1440" d="M102,107.233a2.308,2.308,0,0,0,.663-.143,1.834,1.834,0,0,0,.666-.456,1.8,1.8,0,0,0,.474-.983,4.269,4.269,0,0,0,.019-.666v-2.436c0-.6,0-1.257-.023-1.928a1.8,1.8,0,0,0-1.291-1.506,4.517,4.517,0,0,0-1.129-.068H78.793a1.766,1.766,0,0,0-1.412.708,1.7,1.7,0,0,0-.324.753,5.422,5.422,0,0,0-.034.828v4.145a1.72,1.72,0,0,0,.222.73,1.8,1.8,0,0,0,1.186.862,4.226,4.226,0,0,0,.753.038h2.3l10.677.023,7.2.03h2.466a1.477,1.477,0,0,1,.173,0H99.364l-7.2.034-10.677.019h-2.3a4.172,4.172,0,0,1-.8-.038,1.977,1.977,0,0,1-1.314-.956,1.92,1.92,0,0,1-.248-.806v-4.16a4.842,4.842,0,0,1,.034-.866,1.943,1.943,0,0,1,.376-.817,1.977,1.977,0,0,1,1.57-.783h22.586a4.409,4.409,0,0,1,1.178.079,1.931,1.931,0,0,1,1.378,1.611c.03.7,0,1.337,0,1.943v2.436a4.45,4.45,0,0,1-.03.678,1.882,1.882,0,0,1-.508,1.009,1.807,1.807,0,0,1-.7.456,1.882,1.882,0,0,1-.5.109Z" fill="#263238"/>
        <path id="Path_1441" data-name="Path 1441" d="M103.02,53.27c0,.056-12.27.1-27.4.1s-27.4-.041-27.4-.1,12.266-.1,27.4-.1S103.02,53.217,103.02,53.27Z" fill="#263238"/>
        <path id="Path_1442" data-name="Path 1442" d="M49.5,70.528c0,.331-.237.531-.633.531h-.414v.474h-.166V69.986h.58C49.264,70,49.5,70.2,49.5,70.528Zm-.162,0c0-.248-.166-.376-.474-.376h-.41V70.9h.41C49.174,70.913,49.339,70.781,49.339,70.528Z" fill="#263238"/>
        <path id="Path_1443" data-name="Path 1443" d="M50.687,70.826v.708h-.151v-.181a.433.433,0,0,1-.4.192c-.264,0-.425-.136-.425-.339s.117-.328.448-.328h.376v-.072c0-.2-.109-.3-.328-.3a.6.6,0,0,0-.376.136l-.072-.117a.753.753,0,0,1,.474-.158.414.414,0,0,1,.452.463Zm-.158.376V71.01h-.376c-.226,0-.3.09-.3.207s.109.218.294.218a.376.376,0,0,0,.384-.237Z" fill="#263238"/>
        <path id="Path_1444" data-name="Path 1444" d="M50.951,71.413l.072-.124a.7.7,0,0,0,.414.132c.222,0,.312-.075.312-.192,0-.3-.753-.064-.753-.523,0-.188.166-.331.463-.331a.772.772,0,0,1,.41.109l-.068.124a.625.625,0,0,0-.343-.1c-.211,0-.3.083-.3.192,0,.312.753.079.753.523,0,.2-.177.331-.482.331A.779.779,0,0,1,50.951,71.413Z" fill="#263238"/>
        <path id="Path_1445" data-name="Path 1445" d="M52.031,71.413l.072-.124a.689.689,0,0,0,.414.132c.222,0,.312-.075.312-.192,0-.3-.753-.064-.753-.523,0-.188.166-.331.463-.331a.772.772,0,0,1,.41.109l-.068.124a.625.625,0,0,0-.343-.1c-.211,0-.3.083-.3.192,0,.312.753.079.753.523,0,.2-.173.331-.478.331A.779.779,0,0,1,52.031,71.413Z" fill="#263238"/>
        <path id="Path_1446" data-name="Path 1446" d="M54.968,70.382l-.448,1.152h-.147L54,70.581l-.376.953H53.47l-.437-1.163h.151l.376.99.376-.99h.136l.376.99.376-.99Z" fill="#263238"/>
        <path id="Path_1447" data-name="Path 1447" d="M55.043,70.965a.591.591,0,1,1,.595.591.572.572,0,0,1-.595-.591Zm1.024,0a.433.433,0,1,0-.429.452.422.422,0,0,0,.429-.452Z" fill="#263238"/>
        <path id="Path_1448" data-name="Path 1448" d="M57.133,70.374v.154H57.1a.376.376,0,0,0-.376.429v.576h-.158V70.37h.151v.23A.444.444,0,0,1,57.133,70.374Z" fill="#263238"/>
        <path id="Path_1449" data-name="Path 1449" d="M58.466,69.9v1.63h-.151V71.3a.5.5,0,0,1-.448.241.591.591,0,1,1,0-1.182.508.508,0,0,1,.441.23v-.7Zm-.154,1.062a.433.433,0,1,0-.433.452.425.425,0,0,0,.433-.452Z" fill="#263238"/>
        <path id="Path_1450" data-name="Path 1450" d="M101.864,66.508a2.708,2.708,0,0,0,.309-.049,1.337,1.337,0,0,0,.753-.5,1.3,1.3,0,0,0,.248-.61c.026-.241,0-.52,0-.813V61.274a1.37,1.37,0,0,0-.452-1.171,1.3,1.3,0,0,0-.614-.294,5.924,5.924,0,0,0-.753-.019H92.35l-42.973.03a1.242,1.242,0,0,0-1.129.753,1.705,1.705,0,0,0-.1.727v3.9a1.235,1.235,0,0,0,.753,1.129,1.559,1.559,0,0,0,.7.105H64.783l19.322.019,13.023.034h3.543l-3.543.019-13.023.03-19.322.023H49.58a1.668,1.668,0,0,1-.779-.12,1.434,1.434,0,0,1-.858-1.291V61.286a3.633,3.633,0,0,1,0-.4,1.532,1.532,0,0,1,.1-.407,1.449,1.449,0,0,1,1.329-.877l42.973.03h9a5.57,5.57,0,0,1,.753.026,1.393,1.393,0,0,1,.663.316,1.453,1.453,0,0,1,.471,1.242v3.264c0,.3,0,.565-.019.821a1.371,1.371,0,0,1-.267.629,1.336,1.336,0,0,1-.753.489A1.156,1.156,0,0,1,101.864,66.508Z" fill="#263238"/>
        <path id="Path_1451" data-name="Path 1451" d="M49.385,58.567v.143h-1.1V57.159h1.062V57.3h-.9v.55h.8v.128h-.8v.576Z" fill="#263238"/>
        <path id="Path_1452" data-name="Path 1452" d="M51.655,58.033v.678H51.5v-.663c0-.245-.124-.376-.335-.376a.376.376,0,0,0-.376.418V58.7h-.158V58.04c0-.245-.124-.376-.335-.376a.376.376,0,0,0-.376.418V58.7h-.158V57.532h.151v.211a.474.474,0,0,1,.425-.222.422.422,0,0,1,.414.245.508.508,0,0,1,.459-.245.441.441,0,0,1,.448.512Z" fill="#263238"/>
        <path id="Path_1453" data-name="Path 1453" d="M52.958,57.98V58.7h-.151v-.184a.437.437,0,0,1-.4.2c-.264,0-.425-.139-.425-.339s.113-.331.448-.331h.376V57.98c0-.2-.113-.3-.328-.3a.6.6,0,0,0-.376.136l-.072-.117a.727.727,0,0,1,.474-.158.414.414,0,0,1,.452.444Zm-.158.376v-.192h-.376c-.226,0-.3.09-.3.211s.109.218.294.218a.377.377,0,0,0,.38-.237Z" fill="#263238"/>
        <path id="Path_1454" data-name="Path 1454" d="M53.345,57.178a.117.117,0,1,1,.117.113.113.113,0,0,1-.117-.113Zm.038.376h.158v1.163h-.158Z" fill="#263238"/>
        <path id="Path_1455" data-name="Path 1455" d="M53.978,57.069h.154V58.71h-.154Z" fill="#263238"/>
        <path id="Path_1456" data-name="Path 1456" d="M101.864,80.769a2.708,2.708,0,0,0,.309-.049,1.336,1.336,0,0,0,.753-.5,1.3,1.3,0,0,0,.248-.61c.026-.241,0-.52,0-.813V75.536a1.367,1.367,0,0,0-.452-1.171,1.3,1.3,0,0,0-.614-.294,5.924,5.924,0,0,0-.753-.019H92.35l-42.973.03a1.242,1.242,0,0,0-1.129.753,1.706,1.706,0,0,0-.1.727v3.863a1.235,1.235,0,0,0,.753,1.129,1.559,1.559,0,0,0,.7.105H64.783l19.322.019,13.023.03,3.543.019H97.128l-13.023.03-19.322.023H49.58a1.668,1.668,0,0,1-.779-.12,1.434,1.434,0,0,1-.858-1.291c0-1.02,0-2.052,0-3.087V75.5a3.633,3.633,0,0,1,0-.4,1.532,1.532,0,0,1,.1-.407,1.449,1.449,0,0,1,1.329-.877l42.973.03h9a5.572,5.572,0,0,1,.753.026,1.393,1.393,0,0,1,.663.316,1.453,1.453,0,0,1,.471,1.242V78.7c0,.3,0,.565-.019.821a1.371,1.371,0,0,1-.267.629,1.337,1.337,0,0,1-.753.489A1.156,1.156,0,0,1,101.864,80.769Z" fill="#263238"/>
        <path id="Path_1457" data-name="Path 1457" d="M52.709,77.4a.629.629,0,1,1-.629-.629.629.629,0,0,1,.629.629Z" fill="#263238"/>
        <circle id="Ellipse_7" data-name="Ellipse 7" cx="0.629" cy="0.629" r="0.629" transform="translate(54.362 76.767)" fill="#263238"/>
        <circle id="Ellipse_8" data-name="Ellipse 8" cx="0.629" cy="0.629" r="0.629" transform="translate(57.257 76.767)" fill="#263238"/>
        <path id="Path_1458" data-name="Path 1458" d="M61.41,77.4a.629.629,0,1,1-.629-.629.629.629,0,0,1,.629.629Z" fill="#263238"/>
        <path id="Path_1459" data-name="Path 1459" d="M64.305,77.4a.629.629,0,1,1-.629-.629.629.629,0,0,1,.629.629Z" fill="#263238"/>
        <path id="Path_1460" data-name="Path 1460" d="M67.2,77.4a.629.629,0,1,1-.629-.629.629.629,0,0,1,.629.629Z" fill="#263238"/>
        <path id="Path_1461" data-name="Path 1461" d="M70.1,77.4a.629.629,0,1,1-.629-.629.629.629,0,0,1,.629.629Z" fill="#263238"/>
        <path id="Path_1462" data-name="Path 1462" d="M72.991,77.4a.629.629,0,1,1-.629-.629.629.629,0,0,1,.629.629Z" fill="#263238"/>
        <circle id="Ellipse_9" data-name="Ellipse 9" cx="0.629" cy="0.629" r="0.629" transform="translate(74.628 76.767)" fill="#263238"/>
        <path id="Path_1463" data-name="Path 1463" d="M79.312,77.4a.629.629,0,1,1-.625-.629A.629.629,0,0,1,79.312,77.4Z" fill="#263238"/>
        <path id="Path_1464" data-name="Path 1464" d="M101.864,95.878a2.708,2.708,0,0,0,.309-.049,1.336,1.336,0,0,0,.753-.5,1.3,1.3,0,0,0,.248-.61c.026-.241,0-.52,0-.813v-3.26a1.374,1.374,0,0,0-.452-1.175,1.3,1.3,0,0,0-.614-.294,6.748,6.748,0,0,0-.753-.019H92.35l-42.969.068a1.242,1.242,0,0,0-1.129.753,1.706,1.706,0,0,0-.1.727v3.867a1.235,1.235,0,0,0,.753,1.129,1.559,1.559,0,0,0,.7.105H64.787l19.322.019,13.023.034,3.543.019H97.131l-13.023.03-19.352.056H49.58a1.721,1.721,0,0,1-.779-.124,1.427,1.427,0,0,1-.858-1.291V90.686a3.633,3.633,0,0,1,0-.4,1.532,1.532,0,0,1,.1-.407,1.446,1.446,0,0,1,1.329-.873l42.973.026h9a5.572,5.572,0,0,1,.753.026,1.367,1.367,0,0,1,.663.32,1.446,1.446,0,0,1,.471,1.242c0,.425,0,.832,0,1.216v2.044c0,.3,0,.565-.019.821a1.371,1.371,0,0,1-.267.629,1.318,1.318,0,0,1-.753.489A.986.986,0,0,1,101.864,95.878Z" fill="#263238"/>
        <path id="Path_1465" data-name="Path 1465" d="M69.651,93.118h-.376v.459h-.256v-.459H67.98v-.184l.956-1.224h.286l-.915,1.178h.719v-.4h.248v.4h.376Z" fill="#263238"/>
        <path id="Path_1466" data-name="Path 1466" d="M71.21,93.016c0,.324-.23.584-.708.584a1.065,1.065,0,0,1-.685-.23l.124-.211a.817.817,0,0,0,.557.2c.282,0,.444-.132.444-.335s-.132-.343-.565-.343h-.425l.1-.975H71.1v.233h-.828l-.053.512h.211C70.992,92.455,71.21,92.685,71.21,93.016Z" fill="#263238"/>
        <path id="Path_1467" data-name="Path 1467" d="M72.833,93.016c0,.324-.23.584-.708.584a1.065,1.065,0,0,1-.685-.23l.124-.211a.817.817,0,0,0,.557.2c.282,0,.444-.132.444-.335s-.136-.343-.565-.343h-.425l.1-.975h1.054v.233H71.91l-.053.512h.211C72.614,92.455,72.833,92.685,72.833,93.016Z" fill="#263238"/>
        <path id="Path_1468" data-name="Path 1468" d="M74.455,93.016c0,.324-.23.584-.708.584a1.065,1.065,0,0,1-.685-.23l.124-.211a.817.817,0,0,0,.557.2c.282,0,.444-.132.444-.335s-.132-.343-.565-.343H73.2l.1-.975H74.35v.233h-.828l-.053.512h.211C74.237,92.455,74.455,92.685,74.455,93.016Z" fill="#263238"/>
        <path id="Path_1469" data-name="Path 1469" d="M75.6,92.644c0-.606.328-.953.753-.953s.753.346.753.953-.328.956-.753.956S75.6,93.254,75.6,92.644Zm1.257,0c0-.478-.2-.715-.493-.715s-.5.237-.5.715.2.719.5.719S76.861,93.122,76.861,92.644Z" fill="#263238"/>
        <path id="Path_1470" data-name="Path 1470" d="M77.49,92.644c0-.606.324-.953.753-.953s.753.346.753.953-.324.956-.753.956S77.49,93.254,77.49,92.644Zm1.254,0c0-.478-.2-.715-.493-.715s-.5.237-.5.715.2.719.5.719S78.744,93.122,78.744,92.644Z" fill="#263238"/>
        <path id="Path_1471" data-name="Path 1471" d="M79.372,92.644c0-.606.324-.953.753-.953s.753.346.753.953-.324.956-.753.956S79.372,93.254,79.372,92.644Zm1.257,0c0-.478-.2-.715-.493-.715s-.5.237-.5.715.2.719.5.719S80.63,93.122,80.63,92.644Z" fill="#263238"/>
        <path id="Path_1472" data-name="Path 1472" d="M81.255,92.644c0-.606.328-.953.753-.953s.753.346.753.953-.328.956-.753.956S81.255,93.254,81.255,92.644Zm1.257,0c0-.478-.2-.715-.493-.715s-.5.237-.5.715.2.719.5.719S82.512,93.122,82.512,92.644Z" fill="#263238"/>
        <path id="Path_1473" data-name="Path 1473" d="M85.325,91.71v.181l-.753,1.687h-.282l.753-1.634h-.851v.331h-.256V91.71Z" fill="#263238"/>
        <path id="Path_1474" data-name="Path 1474" d="M87.023,91.71v.181l-.753,1.687h-.282l.753-1.634h-.855v.331H85.63V91.71Z" fill="#263238"/>
        <path id="Path_1475" data-name="Path 1475" d="M88.724,91.71v.181l-.753,1.687h-.282l.753-1.634h-.87v.331h-.256V91.71Z" fill="#263238"/>
        <path id="Path_1476" data-name="Path 1476" d="M90.422,91.71v.181l-.753,1.687h-.282l.753-1.634h-.855v.331h-.256V91.71Z" fill="#263238"/>
        <path id="Path_1477" data-name="Path 1477" d="M93.031,92.994a.606.606,0,0,1-.663.591c-.5,0-.783-.339-.783-.934a.858.858,0,0,1,.885-.975.9.9,0,0,1,.463.109l-.1.207a.655.655,0,0,0-.358-.087c-.376,0-.621.237-.621.7a.409.409,0,0,0,0,.068.621.621,0,0,1,.535-.245.58.58,0,0,1,.644.565Zm-.26,0a.382.382,0,0,0-.425-.376.376.376,0,0,0-.429.376c0,.192.154.358.444.358a.376.376,0,0,0,.41-.331Z" fill="#263238"/>
        <path id="Path_1478" data-name="Path 1478" d="M94.782,92.994a.606.606,0,0,1-.663.591c-.5,0-.783-.339-.783-.934a.858.858,0,0,1,.881-.975.9.9,0,0,1,.467.109l-.1.207a.655.655,0,0,0-.358-.087c-.376,0-.621.237-.621.7a.41.41,0,0,0,0,.068.621.621,0,0,1,.535-.245.58.58,0,0,1,.644.565Zm-.26,0a.382.382,0,0,0-.425-.376.376.376,0,0,0-.429.376c0,.192.154.358.44.358a.376.376,0,0,0,.414-.331Z" fill="#263238"/>
        <path id="Path_1479" data-name="Path 1479" d="M96.533,92.994a.606.606,0,0,1-.663.591c-.5,0-.783-.339-.783-.934a.858.858,0,0,1,.885-.975.9.9,0,0,1,.463.109l-.1.207a.655.655,0,0,0-.376-.087c-.376,0-.621.237-.621.7a.41.41,0,0,0,0,.068.621.621,0,0,1,.535-.245.58.58,0,0,1,.663.565Zm-.26,0a.382.382,0,0,0-.425-.376.376.376,0,0,0-.429.376c0,.192.154.358.441.358a.376.376,0,0,0,.414-.331Z" fill="#263238"/>
        <path id="Path_1480" data-name="Path 1480" d="M98.284,92.994a.606.606,0,0,1-.663.591c-.5,0-.783-.339-.783-.934a.858.858,0,0,1,.881-.975.9.9,0,0,1,.467.109l-.1.207a.655.655,0,0,0-.358-.087c-.376,0-.621.237-.621.7a.409.409,0,0,0,0,.068.621.621,0,0,1,.535-.245.58.58,0,0,1,.644.565Zm-.26,0a.382.382,0,0,0-.425-.376.376.376,0,0,0-.429.376c0,.192.154.358.441.358a.376.376,0,0,0,.414-.331Z" fill="#263238"/>
        <path id="Path_1481" data-name="Path 1481" d="M51.817,62.52l-.685,1.555a.5.5,0,0,1-.5.376.52.52,0,0,1-.376-.132l.109-.192a.35.35,0,0,0,.252.105c.12,0,.2-.056.267-.218l.045-.1L50.3,62.505h.264l.5,1.129.486-1.129Z" fill="#263238"/>
        <path id="Path_1482" data-name="Path 1482" d="M51.99,63.228a.753.753,0,1,1,.753.723.708.708,0,0,1-.753-.723Zm1.212,0a.478.478,0,1,0-.474.5.463.463,0,0,0,.474-.5Z" fill="#263238"/>
        <path id="Path_1483" data-name="Path 1483" d="M55.235,62.52v1.412h-.241v-.211a.576.576,0,0,1-.482.23.557.557,0,0,1-.606-.617V62.52h.256V63.3c0,.279.139.418.376.418a.414.414,0,0,0,.429-.471v-.73Z" fill="#263238"/>
        <path id="Path_1484" data-name="Path 1484" d="M56.591,62.5v.248h-.06a.418.418,0,0,0-.444.474v.7H55.83V62.513h.245v.237a.542.542,0,0,1,.516-.252Z" fill="#263238"/>
        <path id="Path_1485" data-name="Path 1485" d="M58.27,63.311H57.122a.482.482,0,0,0,.512.414.538.538,0,0,0,.41-.169l.139.166a.719.719,0,0,1-.557.23.708.708,0,0,1-.753-.723.7.7,0,0,1,.712-.723.681.681,0,0,1,.7.73A.55.55,0,0,0,58.27,63.311Zm-1.148-.184h.907a.456.456,0,0,0-.907,0Z" fill="#263238"/>
        <path id="Path_1486" data-name="Path 1486" d="M61.079,63.119v.813h-.256v-.783c0-.279-.132-.414-.376-.414a.414.414,0,0,0-.422.471v.727h-.256v-.783c0-.279-.132-.414-.376-.414a.414.414,0,0,0-.425.471v.727h-.233V62.52h.248v.211a.565.565,0,0,1,.5-.233.52.52,0,0,1,.489.264.64.64,0,0,1,.546-.264.542.542,0,0,1,.557.621Z" fill="#263238"/>
        <path id="Path_1487" data-name="Path 1487" d="M62.776,63.081v.851h-.241v-.184a.527.527,0,0,1-.463.2c-.32,0-.523-.173-.523-.418s.147-.414.569-.414h.4V63.07c0-.215-.124-.343-.376-.343a.708.708,0,0,0-.448.154l-.109-.192a.922.922,0,0,1,.584-.184.527.527,0,0,1,.606.576Zm-.256.422v-.2h-.4c-.252,0-.324.1-.324.218s.117.23.312.23a.407.407,0,0,0,.41-.248Z" fill="#263238"/>
        <path id="Path_1488" data-name="Path 1488" d="M63.311,62.084a.169.169,0,1,1,.168.169.169.169,0,0,1-.168-.169Zm.045.437h.271v1.412h-.256Z" fill="#263238"/>
        <path id="Path_1489" data-name="Path 1489" d="M64.207,61.956h.256v1.977h-.256Z" fill="#263238"/>
        <path id="Path_1490" data-name="Path 1490" d="M67.441,63.221c0,.452-.173.73-.474.73a.3.3,0,0,1-.32-.256.569.569,0,0,1-.5.256.685.685,0,0,1,0-1.367.591.591,0,0,1,.489.226V62.6h.23v.96c0,.139.072.192.154.192.154,0,.245-.192.245-.527a.979.979,0,0,0-1.058-1,1.035,1.035,0,1,0,0,2.071,1.129,1.129,0,0,0,.512-.117l.06.169a1.337,1.337,0,0,1-.572.124,1.212,1.212,0,1,1,0-2.421,1.152,1.152,0,0,1,1.239,1.171Zm-.8.03a.44.44,0,0,0-.456-.474.474.474,0,1,0,0,.949.441.441,0,0,0,.456-.474Z" fill="#263238"/>
        <path id="Path_1491" data-name="Path 1491" d="M69.192,63.311H68.044a.482.482,0,0,0,.512.414.527.527,0,0,0,.407-.169l.143.166a.719.719,0,0,1-.557.23.708.708,0,0,1-.753-.723.7.7,0,0,1,.712-.723.681.681,0,0,1,.7.73A.549.549,0,0,0,69.192,63.311Zm-1.148-.184h.907a.456.456,0,0,0-.907,0Z" fill="#263238"/>
        <path id="Path_1492" data-name="Path 1492" d="M72,63.119v.813h-.256v-.783c0-.279-.132-.414-.376-.414a.416.416,0,0,0-.422.471v.727H70.69v-.783c0-.279-.136-.414-.376-.414a.414.414,0,0,0-.425.471v.727h-.237V62.52H69.9v.211a.565.565,0,0,1,.5-.233.52.52,0,0,1,.489.264.64.64,0,0,1,.546-.264.542.542,0,0,1,.561.621Z" fill="#263238"/>
        <path id="Path_1493" data-name="Path 1493" d="M73.7,63.081v.851h-.241v-.184a.531.531,0,0,1-.467.2c-.32,0-.52-.173-.52-.418s.147-.414.569-.414h.4V63.07c0-.215-.124-.343-.376-.343a.708.708,0,0,0-.448.154l-.109-.192a.922.922,0,0,1,.584-.184.527.527,0,0,1,.606.576Zm-.256.422v-.2h-.376c-.252,0-.324.1-.324.218s.117.23.312.23A.407.407,0,0,0,73.443,63.5Z" fill="#263238"/>
        <path id="Path_1494" data-name="Path 1494" d="M74.233,62.084a.169.169,0,1,1,.168.169.169.169,0,0,1-.168-.169Zm.045.437h.267v1.412H74.29Z" fill="#263238"/>
        <path id="Path_1495" data-name="Path 1495" d="M75.129,61.956h.256v1.977h-.256Z" fill="#263238"/>
        <path id="Path_1496" data-name="Path 1496" d="M75.86,63.767a.177.177,0,0,1,.181-.181.173.173,0,0,1,.177.181.177.177,0,0,1-.177.184.181.181,0,0,1-.181-.184Z" fill="#263238"/>
        <path id="Path_1497" data-name="Path 1497" d="M76.53,63.228a.708.708,0,0,1,.753-.723.632.632,0,0,1,.576.3l-.2.124a.441.441,0,0,0-.377-.2.5.5,0,0,0,0,.994.44.44,0,0,0,.376-.2l.2.124a.64.64,0,0,1-.576.3.708.708,0,0,1-.753-.723Z" fill="#263238"/>
        <path id="Path_1498" data-name="Path 1498" d="M78.134,63.228a.753.753,0,1,1,.753.723.708.708,0,0,1-.753-.723Zm1.212,0a.478.478,0,1,0-.474.5.463.463,0,0,0,.474-.5Z" fill="#263238"/>
        <path id="Path_1499" data-name="Path 1499" d="M82.411,63.119v.813h-.256v-.783c0-.279-.136-.414-.376-.414a.414.414,0,0,0-.425.471v.727H81.1v-.783c0-.279-.132-.414-.376-.414a.416.416,0,0,0-.422.471v.727h-.256V62.52h.245v.211a.576.576,0,0,1,.486-.226.527.527,0,0,1,.493.264.629.629,0,0,1,.542-.264.546.546,0,0,1,.6.614Z" fill="#263238"/>
        <path id="Path_1500" data-name="Path 1500" d="M51.647,101.984v.2H50.518V100.6h1.129v.2h-.892v.482h.794v.192h-.794v.512Z" fill="#263238"/>
        <path id="Path_1501" data-name="Path 1501" d="M52.675,102.18l-.346-.459-.35.459h-.241l.471-.61-.448-.587H52l.328.433.328-.433h.237l-.452.587.478.61Z" fill="#263238"/>
        <path id="Path_1502" data-name="Path 1502" d="M54.351,101.582a.58.58,0,0,1-.6.614.512.512,0,0,1-.418-.2v.617h-.218v-1.634h.207v.192a.508.508,0,0,1,.429-.2.58.58,0,0,1,.6.61Zm-.218,0a.4.4,0,1,0-.4.422.376.376,0,0,0,.4-.422Z" fill="#263238"/>
        <path id="Path_1503" data-name="Path 1503" d="M54.569,100.614a.143.143,0,1,1,.142.143.143.143,0,0,1-.142-.143Zm.038.376h.218v1.2h-.233Z" fill="#263238"/>
        <path id="Path_1504" data-name="Path 1504" d="M55.838,100.972v.211h-.053a.376.376,0,0,0-.376.407v.595h-.215v-1.2H55.4v.2A.452.452,0,0,1,55.838,100.972Z" fill="#263238"/>
        <path id="Path_1505" data-name="Path 1505" d="M57,101.457v.723H56.8v-.151a.441.441,0,0,1-.376.173c-.271,0-.444-.147-.444-.354s.124-.35.482-.35H56.8v-.041c0-.184-.105-.29-.32-.29a.61.61,0,0,0-.376.128l-.09-.162a.813.813,0,0,1,.5-.154A.431.431,0,0,1,57,101.457Zm-.218.358v-.162h-.335c-.215,0-.275.083-.275.184s.1.192.264.192a.343.343,0,0,0,.346-.215Z" fill="#263238"/>
        <path id="Path_1506" data-name="Path 1506" d="M58.033,102.113a.422.422,0,0,1-.26.083.343.343,0,0,1-.376-.376v-.655h-.2v-.181h.2v-.26H57.6v.26h.343v.181H57.6v.648a.173.173,0,0,0,.184.2.264.264,0,0,0,.169-.056Z" fill="#263238"/>
        <path id="Path_1507" data-name="Path 1507" d="M58.213,100.614a.143.143,0,1,1,.142.143.143.143,0,0,1-.142-.143Zm.038.376h.218v1.2h-.218Z" fill="#263238"/>
        <path id="Path_1508" data-name="Path 1508" d="M58.733,101.582a.625.625,0,1,1,.625.614.595.595,0,0,1-.625-.614Zm1.024,0a.4.4,0,1,0-.4.4A.4.4,0,0,0,59.757,101.582Z" fill="#263238"/>
        <path id="Path_1509" data-name="Path 1509" d="M61.368,101.491v.689h-.215v-.663c0-.237-.12-.35-.324-.35a.354.354,0,0,0-.376.4v.617h-.215v-1.2h.211v.181a.512.512,0,0,1,.429-.192.463.463,0,0,1,.489.52Z" fill="#263238"/>
        <path id="Path_1510" data-name="Path 1510" d="M62.313,100.6h.666a.794.794,0,1,1,0,1.581h-.666Zm.651,1.385a.595.595,0,1,0,0-1.19h-.425v1.19Z" fill="#263238"/>
        <path id="Path_1511" data-name="Path 1511" d="M65.051,101.457v.723h-.207v-.151a.441.441,0,0,1-.377.173c-.271,0-.444-.147-.444-.354s.124-.35.482-.35h.343v-.041c0-.184-.105-.29-.32-.29a.61.61,0,0,0-.377.128l-.09-.162a.813.813,0,0,1,.5-.154A.431.431,0,0,1,65.051,101.457Zm-.218.358v-.162H64.5c-.215,0-.279.083-.279.184s.1.192.267.192a.339.339,0,0,0,.343-.215Z" fill="#263238"/>
        <path id="Path_1512" data-name="Path 1512" d="M66.444,100.983l-.58,1.318c-.105.252-.245.331-.425.331a.456.456,0,0,1-.309-.109l.094-.166a.3.3,0,0,0,.215.09c.1,0,.169-.049.226-.184l.038-.087-.527-1.193H65.4l.418.956.414-.956Z" fill="#263238"/>
        <path id="Path_1513" data-name="Path 1513" d="M79.041,101.582a.6.6,0,0,1,.633-.61.535.535,0,0,1,.486.256l-.162.105a.377.377,0,0,0-.328-.169.422.422,0,0,0,0,.84.377.377,0,0,0,.328-.169l.162.1a.527.527,0,0,1-.486.26.6.6,0,0,1-.632-.614Z" fill="#263238"/>
        <path id="Path_1514" data-name="Path 1514" d="M81.439,100.983l-.523,1.2h-.222l-.523-1.2H80.4l.41.96.422-.96Z" fill="#263238"/>
        <path id="Path_1515" data-name="Path 1515" d="M82.64,100.983l-.527,1.2h-.218l-.523-1.2H81.6l.41.96.418-.96Z" fill="#263238"/>
        <path id="Path_1516" data-name="Path 1516" d="M51.237,104v1.581h-.222V104.2h-.358V104Z" fill="#263238"/>
        <path id="Path_1517" data-name="Path 1517" d="M52.649,105.384v.2H51.519v-.162l.644-.621c.166-.162.2-.26.2-.358,0-.166-.113-.264-.335-.264a.486.486,0,0,0-.4.173l-.154-.136a.727.727,0,0,1,.576-.237c.331,0,.542.169.542.437a.636.636,0,0,1-.26.5l-.482.467Z" fill="#263238"/>
        <path id="Path_1518" data-name="Path 1518" d="M53.925,103.679h.2l-.753,2.127h-.2Z" fill="#263238"/>
        <path id="Path_1519" data-name="Path 1519" d="M55.747,105.117c0,.264-.2.482-.6.482a.889.889,0,0,1-.58-.192l.1-.177a.727.727,0,0,0,.478.169c.237,0,.376-.109.376-.282s-.12-.275-.376-.275h-.124v-.158l.4-.486h-.753V104H55.71v.154l-.441.512C55.585,104.691,55.747,104.872,55.747,105.117Z" fill="#263238"/>
        <path id="Path_1520" data-name="Path 1520" d="M55.913,104.789c0-.512.275-.806.644-.806s.644.294.644.806-.275.809-.644.809S55.913,105.305,55.913,104.789Zm1.062,0c0-.4-.169-.606-.418-.606s-.418.2-.418.606.169.61.418.61S56.975,105.2,56.975,104.789Z" fill="#263238"/>
        <path id="Path_1521" data-name="Path 1521" d="M79.064,104.789c0-.512.275-.806.644-.806s.644.294.644.806-.275.809-.644.809S79.064,105.305,79.064,104.789Zm1.062,0c0-.4-.173-.606-.418-.606s-.418.2-.418.606.151.629.41.629.418-.222.418-.629Z" fill="#263238"/>
        <path id="Path_1522" data-name="Path 1522" d="M80.517,104.789c0-.512.275-.806.644-.806s.644.294.644.806-.275.809-.644.809S80.517,105.305,80.517,104.789Zm1.062,0c0-.4-.169-.606-.418-.606s-.418.2-.418.606.169.61.418.61.418-.2.418-.61Z" fill="#263238"/>
        <path id="Path_1523" data-name="Path 1523" d="M81.978,104.789c0-.512.275-.806.644-.806s.644.294.644.806-.275.809-.644.809S81.978,105.305,81.978,104.789Zm1.062,0c0-.4-.169-.606-.418-.606s-.418.2-.418.606.169.61.418.61.418-.2.418-.61Z" fill="#263238"/>
        <path id="Path_1524" data-name="Path 1524" d="M67.136,33.354c0,.617-.456,1-1.193,1H65.31v.809h-.52v-2.8h1.152C66.681,32.356,67.136,32.732,67.136,33.354Zm-.527,0c0-.354-.233-.557-.693-.557H65.31v1.129h.606C66.376,33.911,66.609,33.707,66.609,33.354Z" fill="#263238"/>
        <path id="Path_1525" data-name="Path 1525" d="M69.331,34.509h-1.4l-.275.651h-.538l1.261-2.8h.52l1.265,2.8h-.55Zm-.169-.407-.531-1.227L68.108,34.1Z" fill="#263238"/>
        <path id="Path_1526" data-name="Path 1526" d="M71.553,34.171v.99h-.52v-.983l-1.1-1.822h.557l.821,1.367.828-1.367h.527Z" fill="#263238"/>
        <path id="Path_1527" data-name="Path 1527" d="M75.525,35.161V33.3l-.922,1.54h-.233l-.919-1.506v1.834h-.5V32.356h.429l1.111,1.86,1.1-1.86h.429v2.8Z" fill="#263238"/>
        <path id="Path_1528" data-name="Path 1528" d="M78.872,34.724v.437h-2.1v-2.8h2.044v.437H77.29v.715h1.355v.425H77.29v.776Z" fill="#263238"/>
        <path id="Path_1529" data-name="Path 1529" d="M81.944,32.356v2.8h-.429l-1.547-1.882v1.882H79.44v-2.8h.429l1.547,1.882V32.356Z" fill="#263238"/>
        <path id="Path_1530" data-name="Path 1530" d="M83.261,32.8h-.93v-.44h2.379v.44h-.93v2.364h-.52Z" fill="#263238"/>
        <path id="Path_1531" data-name="Path 1531" d="M84.839,34.863l.181-.4a1.562,1.562,0,0,0,.922.3c.437,0,.621-.154.621-.376,0-.606-1.664-.211-1.664-1.25,0-.452.376-.836,1.129-.836a1.8,1.8,0,0,1,.934.245l-.166.407a1.57,1.57,0,0,0-.753-.222c-.433,0-.61.169-.61.376,0,.6,1.66.211,1.66,1.239,0,.448-.376.832-1.129.832a1.815,1.815,0,0,1-1.126-.316Z" fill="#263238"/>
      </g>
      <g id="freepik--Character--inject-405">
        <path id="Path_1532" data-name="Path 1532" d="M113.547,123.783s-3.678-3.43-4.364-3.637a28.191,28.191,0,0,0-6.449.147c-.358.279-5.726,3.464-4.8,3.893s4.642-1.845,4.642-1.845l.64.064a27.083,27.083,0,0,0-3.818,2.575c-.569.693.023,1.378.633,1.069a40.985,40.985,0,0,1,3.618-1.984c.23.056-2.959,2.063-3.249,2.425-.376.486-.094,1.393.52,1.107.376-.166,3.294-2.259,3.294-2.259a29.606,29.606,0,0,0-2.353,2.3c-.248.52.275.964.787.625.35-.23,1.841-1.8,2.312-2.1,0,0,.531-.056,1.337.753s6.845,3.52,6.845,3.52Z" fill="#ffbe9d"/>
        <path id="Path_1533" data-name="Path 1533" d="M112.255,124.344a1.223,1.223,0,0,1-1.333.508c-.5-.09-.964-.346-1.461-.471-1.483-.376-3.091.459-4.552,0-.207-.064-.437-.2-.422-.418s.237-.3.422-.376l4.778-1.694" fill="#ffbe9d"/>
        <path id="Path_1534" data-name="Path 1534" d="M109.688,121.916a2.086,2.086,0,0,0-.538.132c-.335.1-.825.256-1.423.456l-2.1.712-.606.211c-.188.083-.467.105-.64.41a.429.429,0,0,0,.09.471.922.922,0,0,0,.354.215,3.323,3.323,0,0,0,.734.139,19.292,19.292,0,0,0,2.722-.237,3.878,3.878,0,0,1,1.129.072c.346.083.663.222.968.32a1.792,1.792,0,0,0,1.506-.038c.324-.2.377-.437.354-.433a1.386,1.386,0,0,1-.407.331,1.724,1.724,0,0,1-1.389-.053,10.126,10.126,0,0,0-.979-.377,3.983,3.983,0,0,0-1.212-.105,22.47,22.47,0,0,1-2.681.215,2.9,2.9,0,0,1-.666-.12c-.2-.064-.339-.2-.279-.3a1.037,1.037,0,0,1,.471-.264l.6-.218,2.078-.772c.591-.222,1.069-.407,1.393-.542A2.195,2.195,0,0,0,109.688,121.916Z" fill="#eb996e"/>
        <path id="Path_1535" data-name="Path 1535" d="M97.945,124.2a2.929,2.929,0,0,0,1.16-.113,6.418,6.418,0,0,0,1.2-.4c.422-.218.873-.467,1.352-.73l1.013-.569-.068.019a16.344,16.344,0,0,0,2.775-.169,16.728,16.728,0,0,0-2.779-.105h-.034l-.034.019-1.009.55-1.325.753a8.735,8.735,0,0,1-1.129.448A10.43,10.43,0,0,0,97.945,124.2Z" fill="#eb996e"/>
        <path id="Path_1536" data-name="Path 1536" d="M153.553,112.447l-24.758,10.3H113.547v4.917l20,2.959,17.944-11.182Z" fill="#90caf9"/>
        <g id="Group_58" data-name="Group 58" opacity="0.3">
          <path id="Path_1537" data-name="Path 1537" d="M153.553,112.447l-24.758,10.3H113.547v4.917l20,2.959,17.944-11.182Z"/>
        </g>
        <path id="Path_1538" data-name="Path 1538" d="M136.486,127.891a.55.55,0,0,1-.275-.173,1.506,1.506,0,0,1-.377-.794,8.732,8.732,0,0,1-.038-1.288,6.245,6.245,0,0,0-.215-1.525,6.634,6.634,0,0,0-1.28-2.481c-.459-.561-.825-.832-.8-.862a1.175,1.175,0,0,1,.267.177,4.893,4.893,0,0,1,.636.595,6.107,6.107,0,0,1,1.363,2.519,5.945,5.945,0,0,1,.207,1.578,10.206,10.206,0,0,0,0,1.269,1.543,1.543,0,0,0,.3.753C136.4,127.819,136.494,127.876,136.486,127.891Z" fill="#fafafa"/>
        <path id="Path_1539" data-name="Path 1539" d="M145.575,122.515a2.985,2.985,0,0,1-.877-.376,8.06,8.06,0,0,1-1.83-1.427,8.2,8.2,0,0,1-1.355-1.882,3.03,3.03,0,0,1-.354-.892,12.865,12.865,0,0,0,1.852,2.635,13.026,13.026,0,0,0,2.564,1.943Z" fill="#fafafa"/>
        <path id="Path_1540" data-name="Path 1540" d="M130.237,129.89a2.368,2.368,0,0,0,.346-1.013,2.93,2.93,0,0,0-.154-1.129,6.729,6.729,0,0,0-.636-1.3,9.534,9.534,0,0,1-.681-1.314,3.305,3.305,0,0,1-.237-1.2,2.048,2.048,0,0,1,.169-.806c.083-.177.158-.256.166-.248a2.7,2.7,0,0,0-.2,1.054,3.388,3.388,0,0,0,.267,1.129,10.492,10.492,0,0,0,.681,1.284,6.446,6.446,0,0,1,.64,1.337,2.944,2.944,0,0,1,.12,1.216,1.845,1.845,0,0,1-.279.776.674.674,0,0,1-.207.207Z" fill="#fafafa"/>
        <path id="Path_1541" data-name="Path 1541" d="M121.054,127.311a4.194,4.194,0,0,1-.448-2.259,4.141,4.141,0,0,1,.625-2.2,7.428,7.428,0,0,0-.177,4.446Z" fill="#fafafa"/>
        <path id="Path_1542" data-name="Path 1542" d="M105.362,155.9l-6.186,8.147s-10.361-3.55-11.649-2.157l15.365,12.564,10.165-12.3Z" fill="#455a64"/>
        <path id="Path_1543" data-name="Path 1543" d="M104.469,167.268a.806.806,0,0,1-.151,1.069.779.779,0,0,1-1.062-.139.855.855,0,0,1,.166-1.129.809.809,0,0,1,1.088.267" fill="#e0e0e0"/>
        <path id="Path_1544" data-name="Path 1544" d="M102.892,174.456l1.009-1.224L88.77,161.61s-.926-.26-1.242.282Z" fill="#e0e0e0"/>
        <path id="Path_1545" data-name="Path 1545" d="M98.988,163.775c-.056.079.29.418.463.964s.109,1.017.2,1.043.335-.5.117-1.152S99.018,163.684,98.988,163.775Z" fill="#263238"/>
        <path id="Path_1546" data-name="Path 1546" d="M96.834,163.116c-.079.06.143.452.139.979s-.207.922-.128.979.471-.328.463-.979S96.894,163.048,96.834,163.116Z" fill="#263238"/>
        <path id="Path_1547" data-name="Path 1547" d="M94.342,164.3c.053.072.463-.218.606-.787s-.072-1.017-.154-.983-.045.437-.169.9S94.274,164.23,94.342,164.3Z" fill="#263238"/>
        <path id="Path_1548" data-name="Path 1548" d="M100.607,162.069c-.026.094.4.271.8.648s.625.779.715.753,0-.561-.486-.994S100.618,161.979,100.607,162.069Z" fill="#263238"/>
        <path id="Path_1549" data-name="Path 1549" d="M101.883,160.446c-.026.03.233.32.772.625a4.386,4.386,0,0,0,1.009.41,4.583,4.583,0,0,0,.633.128,1.254,1.254,0,0,0,.376,0,.418.418,0,0,0,.376-.376.527.527,0,0,0-.188-.441,1.2,1.2,0,0,0-.32-.2,3.587,3.587,0,0,0-.629-.211,3.422,3.422,0,0,0-1.092-.117,1.641,1.641,0,0,0-.964.256c0,.053.376-.041.968,0a3.943,3.943,0,0,1,1,.173,3.565,3.565,0,0,1,.553.226c.2.09.335.2.32.309,0,.038,0,.053-.087.072a1.014,1.014,0,0,1-.279,0,4.717,4.717,0,0,1-.6-.1,5.27,5.27,0,0,1-.975-.324,7.321,7.321,0,0,0-.877-.433Z" fill="#263238"/>
        <path id="Path_1550" data-name="Path 1550" d="M101.894,160.635c0,.034.376-.113.809-.576a3.314,3.314,0,0,0,.584-.93,3.141,3.141,0,0,0,.185-.629.817.817,0,0,0-.173-.787.459.459,0,0,0-.5-.049,1.246,1.246,0,0,0-.309.218,2.15,2.15,0,0,0-.422.516,2.281,2.281,0,0,0-.324,1.065,1.3,1.3,0,0,0,.241.968,8.45,8.45,0,0,1,0-.945,2.259,2.259,0,0,1,.35-.922,1.932,1.932,0,0,1,.377-.433c.158-.143.328-.226.376-.158a.553.553,0,0,1,.064.471,3.265,3.265,0,0,1-.151.572,3.494,3.494,0,0,1-.478.889C102.173,160.386,101.86,160.589,101.894,160.635Z" fill="#263238"/>
        <path id="Path_1551" data-name="Path 1551" d="M95.422,155.029l-6.7,8.283s-10.659-4.028-12.048-2.635L92.252,174.23l10.967-12.462Z" fill="#455a64"/>
        <path id="Path_1552" data-name="Path 1552" d="M94.123,166.82a.847.847,0,0,1-.192,1.129.809.809,0,0,1-1.1-.181.892.892,0,0,1,.207-1.175.843.843,0,0,1,1.129.316" fill="#e0e0e0"/>
        <path id="Path_1553" data-name="Path 1553" d="M92.241,174.245l1.092-1.239L77.979,160.424s-.956-.3-1.306.256Z" fill="#e0e0e0"/>
        <path id="Path_1554" data-name="Path 1554" d="M88.54,163.022c-.064.079.286.444.448,1.013s.083,1.065.177,1.1.376-.508.158-1.193S88.585,162.92,88.54,163.022Z" fill="#263238"/>
        <path id="Path_1555" data-name="Path 1555" d="M86.315,162.269c-.079.06.136.478.117,1.024s-.245.953-.166,1.013.5-.324.516-1.005S86.383,162.186,86.315,162.269Z" fill="#263238"/>
        <path id="Path_1556" data-name="Path 1556" d="M83.687,163.4c.053.079.489-.211.659-.8s-.045-1.062-.132-1.028-.06.452-.207.93S83.615,163.33,83.687,163.4Z" fill="#263238"/>
        <path id="Path_1557" data-name="Path 1557" d="M90.276,161.286c-.03.1.41.3.817.7s.621.832.715.8,0-.584-.471-1.054S90.291,161.2,90.276,161.286Z" fill="#263238"/>
        <path id="Path_1558" data-name="Path 1558" d="M91.657,159.633c-.026.03.233.339.783.678a4.778,4.778,0,0,0,1.035.459,4.277,4.277,0,0,0,.655.151,1.189,1.189,0,0,0,.376.023.437.437,0,0,0,.376-.377.565.565,0,0,0-.181-.467,1.615,1.615,0,0,0-.328-.215,4.2,4.2,0,0,0-.633-.256,3.764,3.764,0,0,0-1.129-.154,1.724,1.724,0,0,0-1.009.237c.015.038.4-.03,1,0a4.229,4.229,0,0,1,1.039.215,4.164,4.164,0,0,1,.569.252c.2.1.343.222.32.331,0,.041,0,.056-.09.075a1.162,1.162,0,0,1-.29,0,4.838,4.838,0,0,1-.617-.124,5.736,5.736,0,0,1-1.009-.376A7.028,7.028,0,0,0,91.657,159.633Z" fill="#263238"/>
        <path id="Path_1559" data-name="Path 1559" d="M91.661,159.836a1.72,1.72,0,0,0,.862-.572,3.332,3.332,0,0,0,.636-.949,3.042,3.042,0,0,0,.215-.648.84.84,0,0,0-.154-.825.478.478,0,0,0-.516-.068,1.506,1.506,0,0,0-.328.215,2.312,2.312,0,0,0-.459.527,2.424,2.424,0,0,0-.376,1.1c-.045.67.192,1.035.222,1.017a7.823,7.823,0,0,1,.026-.986,2.323,2.323,0,0,1,.376-.945,2.127,2.127,0,0,1,.407-.441c.169-.143.346-.222.4-.154a.61.61,0,0,1,.049.5,3.264,3.264,0,0,1-.177.591,3.67,3.67,0,0,1-.527.907C91.958,159.577,91.631,159.791,91.661,159.836Z" fill="#263238"/>
        <path id="Path_1560" data-name="Path 1560" d="M138.015,86.036c1.506-1.129,3.821-.207,5.452-1.16.986-.58,1.506-1.706,2.259-2.56a5.757,5.757,0,0,1,4.781-1.882c1.694.23,2.9.685,3.652,2.221,1.05-1.209,3.814-.324,5.113,1.009a7.607,7.607,0,0,1,1.86,4.894,24.532,24.532,0,0,1-.986,9.506c-.083.271-.252.6-.535.572-.2-.023-.324-.211-.418-.376a20.569,20.569,0,0,1-1.566-4.759,12.355,12.355,0,0,0-1.939-4.593,4.858,4.858,0,0,0-4.33-2.052,5.314,5.314,0,0,0-3.1,1.882c-.817.922-1.446,2-2.191,2.993a6.841,6.841,0,0,1-2.786,2.376,3.244,3.244,0,0,1-3.46-.538,2.155,2.155,0,0,1,.226-3.219,2.432,2.432,0,0,1-2.022-4.322Z" fill="#263238"/>
        <path id="Path_1561" data-name="Path 1561" d="M152.807,111.57l-1.013-3.434s-4.748.7-6.208-3.814c-.7-2.18-1.792-6.777-2.73-10.963a8.836,8.836,0,0,1,6.024-10.372l.437-.136c4.8-1.186,8.486,2.229,9.54,7.055l5.218,18.411a5.854,5.854,0,0,1-4,7.221h0a5.862,5.862,0,0,1-7.27-3.968Z" fill="#ffbe9d"/>
        <path id="Path_1562" data-name="Path 1562" d="M151.791,108.136a11.028,11.028,0,0,0,5.384-3.513s-.376,3.693-5.034,4.687Z" fill="#eb996e"/>
        <path id="Path_1563" data-name="Path 1563" d="M144.818,96.507a.678.678,0,0,0,.825.459.651.651,0,0,0,.486-.791.674.674,0,0,0-.825-.459.648.648,0,0,0-.486.791Z" fill="#263238"/>
        <path id="Path_1564" data-name="Path 1564" d="M144.517,95.272c.109.06.486-.456,1.182-.67s1.314-.023,1.363-.132c.026-.049-.1-.177-.376-.267a1.849,1.849,0,0,0-1.129,0,1.77,1.77,0,0,0-.907.64C144.491,95.072,144.468,95.253,144.517,95.272Z" fill="#263238"/>
        <path id="Path_1565" data-name="Path 1565" d="M151.546,94.541a.674.674,0,0,0,.825.459.644.644,0,0,0,.486-.787.678.678,0,0,0-.825-.463.651.651,0,0,0-.486.791Z" fill="#263238"/>
        <path id="Path_1566" data-name="Path 1566" d="M151.4,93.28c.105.06.482-.456,1.178-.67s1.318-.023,1.367-.132c.023-.049-.105-.177-.376-.267a1.882,1.882,0,0,0-1.129,0,1.769,1.769,0,0,0-.907.64C151.377,93.08,151.35,93.254,151.4,93.28Z" fill="#263238"/>
        <path id="Path_1567" data-name="Path 1567" d="M150.477,99.225a4.978,4.978,0,0,0-1.193.147c-.184.038-.376.056-.433-.056a1,1,0,0,1-.045-.565c.034-.482.072-.986.109-1.506a24.438,24.438,0,0,0,.083-3.9,24.168,24.168,0,0,0-.4,3.889c-.026.531-.056,1.035-.079,1.506a1.058,1.058,0,0,0,.12.727.482.482,0,0,0,.376.169,1.2,1.2,0,0,0,.313-.053A4.721,4.721,0,0,0,150.477,99.225Z" fill="#263238"/>
        <path id="Path_1568" data-name="Path 1568" d="M152.676,99.074c-.117.026.117.783-.376,1.506s-1.31.9-1.284,1.009.226.09.569,0a1.984,1.984,0,0,0,1.084-.8,1.706,1.706,0,0,0,.256-1.261C152.856,99.214,152.724,99.052,152.676,99.074Z" fill="#263238"/>
        <path id="Path_1569" data-name="Path 1569" d="M150.221,89.733c.128.169.8-.136,1.645-.29s1.574-.139,1.63-.343c.023-.094-.147-.237-.471-.339a2.76,2.76,0,0,0-1.3-.045,2.8,2.8,0,0,0-1.19.527C150.274,89.459,150.168,89.654,150.221,89.733Z" fill="#263238"/>
        <path id="Path_1570" data-name="Path 1570" d="M144.148,93.178c.173.12.6-.192,1.175-.376s1.1-.222,1.16-.422c.026-.1-.1-.233-.376-.316a1.743,1.743,0,0,0-1.039.038,1.717,1.717,0,0,0-.84.61C144.088,92.934,144.073,93.118,144.148,93.178Z" fill="#263238"/>
        <path id="Path_1571" data-name="Path 1571" d="M159.513,93.37c.064-.06,2.827-1.882,3.686,1.242s-2.455,3.347-2.485,3.257S159.513,93.37,159.513,93.37Z" fill="#ffbe9d"/>
        <path id="Path_1572" data-name="Path 1572" d="M161.342,96.431a.973.973,0,0,0,.169.038.554.554,0,0,0,.41-.1,1.41,1.41,0,0,0,.29-1.382,1.882,1.882,0,0,0-.376-.753.644.644,0,0,0-.523-.3.286.286,0,0,0-.282.237v.166c0,.011-.079-.034-.09-.169a.377.377,0,0,1,.068-.23.448.448,0,0,1,.279-.166.791.791,0,0,1,.7.331,1.909,1.909,0,0,1,.429.817,1.456,1.456,0,0,1-.422,1.57.61.61,0,0,1-.523.056C161.369,96.5,161.331,96.439,161.342,96.431Z" fill="#eb996e"/>
        <path id="Path_1573" data-name="Path 1573" d="M141.607,92.708a6.86,6.86,0,0,0,5.406-3.1c.809-1.276,1.246-2.884,2.492-3.739a3.859,3.859,0,0,1,2.933-.486,7.387,7.387,0,0,1,2.741,1.3c-.158,2.571,1.224,4.962,2.56,7.153a1.3,1.3,0,0,0,.584.6c.456.169.934-.222,1.148-.655a3.968,3.968,0,0,0,.215-2.259,13.305,13.305,0,0,0-1.585-5.015,9.077,9.077,0,0,0-3.742-3.641,8.607,8.607,0,0,0-6.438-.376,10.572,10.572,0,0,0-5.2,3.908,6.193,6.193,0,0,0-1.224,2.782" fill="#263238"/>
        <path id="Path_1574" data-name="Path 1574" d="M137.044,87.531a.7.7,0,0,0,.109.26,1.3,1.3,0,0,0,.633.5,2.041,2.041,0,0,0,1.276.03,3.572,3.572,0,0,0,.753-.286,1.743,1.743,0,0,0,.678-.61,1.152,1.152,0,0,0,.117-1,1,1,0,0,0-.9-.584,1.246,1.246,0,0,0-.58.1,1.077,1.077,0,0,0-.459.4,1.476,1.476,0,0,0-.124,1.224,1.721,1.721,0,0,0,.84.986,2.609,2.609,0,0,0,1.322.29,4.258,4.258,0,0,0,2.556-1.111,12.245,12.245,0,0,0,1.882-2.09,15.854,15.854,0,0,1,1.664-1.969,4.864,4.864,0,0,1,1.969-1.178,4.612,4.612,0,0,1,2-.1,5.73,5.73,0,0,1,2.635,1.231c.271.218.467.407.6.535a2.03,2.03,0,0,0,.2.2s0-.023-.041-.056a2,2,0,0,1-.136-.162,6.29,6.29,0,0,0-.584-.561,5.685,5.685,0,0,0-2.654-1.3,4.684,4.684,0,0,0-2.056.083,4.97,4.97,0,0,0-2.033,1.2,15.688,15.688,0,0,0-1.687,1.984,12.318,12.318,0,0,1-1.841,2.063,4.141,4.141,0,0,1-2.462,1.073,2.432,2.432,0,0,1-1.239-.267,1.555,1.555,0,0,1-.772-.9,1.322,1.322,0,0,1,.1-1.1.975.975,0,0,1,.911-.448.881.881,0,0,1,.794.5,1.024,1.024,0,0,1-.1.889,1.626,1.626,0,0,1-.629.58,3.305,3.305,0,0,1-.727.286,2.01,2.01,0,0,1-1.231,0,1.337,1.337,0,0,1-.625-.463,2.323,2.323,0,0,1-.158-.241Z" fill="#455a64"/>
        <path id="Path_1575" data-name="Path 1575" d="M160.642,86.168a4.741,4.741,0,0,1-.87.538,2.711,2.711,0,0,1-1.069.215,4.68,4.68,0,0,1-1.337-.2,3.8,3.8,0,0,1-1.95-1.416,7.626,7.626,0,0,1-.5-.9.964.964,0,0,0,.068.275,3.358,3.358,0,0,0,.343.685,3.7,3.7,0,0,0,2,1.506,4.461,4.461,0,0,0,1.386.2,2.745,2.745,0,0,0,1.129-.26,2.579,2.579,0,0,0,.636-.433C160.589,86.255,160.65,86.176,160.642,86.168Z" fill="#455a64"/>
        <path id="Path_1576" data-name="Path 1576" d="M161.2,88.453c0-.026-.35.166-.945.312a4.446,4.446,0,0,1-4.352-1.269c-.422-.444-.6-.787-.629-.772a.821.821,0,0,0,.113.248,3.743,3.743,0,0,0,.429.6,4.4,4.4,0,0,0,2.044,1.306,4.333,4.333,0,0,0,2.425,0,3.8,3.8,0,0,0,.689-.275.9.9,0,0,0,.226-.154Z" fill="#455a64"/>
        <path id="Path_1577" data-name="Path 1577" d="M154.633,95.524a.09.09,0,0,0,.072-.1.087.087,0,0,0-.09-.079.09.09,0,0,0-.072.1.083.083,0,0,0,.09.079Z" fill="#eb996e"/>
        <path id="Path_1578" data-name="Path 1578" d="M153.21,95.629a.1.1,0,0,0-.023-.2.1.1,0,0,0,.023.2Z" fill="#eb996e"/>
        <path id="Path_1579" data-name="Path 1579" d="M152.307,95.889c.041,0,.068-.072.056-.143s-.06-.124-.1-.117-.072.072-.056.143S152.261,95.9,152.307,95.889Z" fill="#eb996e"/>
        <path id="Path_1580" data-name="Path 1580" d="M154.238,96.559a.063.063,0,0,0,.06-.072c-.008-.026-.049-.038-.09-.026s-.072.045-.064.075a.075.075,0,0,0,.094.023Z" fill="#eb996e"/>
        <path id="Path_1581" data-name="Path 1581" d="M152.928,96.657a.09.09,0,0,0,.06-.109.087.087,0,0,0-.1-.072.093.093,0,0,0,.038.181Z" fill="#eb996e"/>
        <path id="Path_1582" data-name="Path 1582" d="M146.347,97.866a.087.087,0,0,0,.072-.1.091.091,0,1,0-.09.1Z" fill="#eb996e"/>
        <path id="Path_1583" data-name="Path 1583" d="M145.413,98.065a.105.105,0,1,0-.1-.083A.094.094,0,0,0,145.413,98.065Z" fill="#eb996e"/>
        <path id="Path_1584" data-name="Path 1584" d="M147.152,97.64a.069.069,0,1,0-.087-.06.075.075,0,0,0,.087.06Z" fill="#eb996e"/>
        <path id="Path_1585" data-name="Path 1585" d="M146.765,98.754a.087.087,0,0,0,.09-.083.083.083,0,1,0-.162-.019.087.087,0,0,0,.072.1Z" fill="#eb996e"/>
        <path id="Path_1586" data-name="Path 1586" d="M145.94,98.841a.079.079,0,0,0,.034-.1.075.075,0,0,0-.105,0,.068.068,0,0,0-.03.1.072.072,0,0,0,.1,0Z" fill="#eb996e"/>
        <path id="Path_1587" data-name="Path 1587" d="M94.59,120.979l7.1,4.209,2.925.919-3.264-3.867-5.726-3.106a1.062,1.062,0,0,0-1.431.41h0A1.062,1.062,0,0,0,94.59,120.979Z" fill="#263238"/>
        <path id="Path_1588" data-name="Path 1588" d="M121.671,126.807c-.294.034-9.616.489-9.868.023s-.309-1.822-2.135-2.108-3.724-.7-3.724-.7l-4.894-2.489s-1.216.561.083,1.785a19.06,19.06,0,0,0,2.342,1.815c.456.312-.12.708-.12.708l-6.924-3.765a6.509,6.509,0,0,0,1.642,3.012l1.02,1.081a2.334,2.334,0,0,0,.986,2.474c1.416,1.035,3.8,3.833,5.979,3.678s3.708-.173,3.708-.173l11.385,1.423Z" fill="#ffbe9d"/>
        <path id="Path_1589" data-name="Path 1589" d="M121.671,126.807a.59.59,0,0,1,0,.109l-.019.331c-.019.309-.049.753-.087,1.314-.079,1.163-.2,2.854-.343,4.992v.06h-.06l-11.389-1.4h0l-3.159.154c-.275,0-.542.034-.832.026a3.177,3.177,0,0,1-.84-.154,6.159,6.159,0,0,1-1.54-.776,27.514,27.514,0,0,1-2.73-2.24c-.226-.2-.459-.376-.7-.565a2.658,2.658,0,0,1-.644-.685,2.379,2.379,0,0,1-.312-1.852l.023.094-.776-.825a10.209,10.209,0,0,1-.753-.877,6.818,6.818,0,0,1-1.073-2.127c-.026-.1-.053-.2-.075-.3l-.038-.2.184.1,6.92,3.765h-.1a.753.753,0,0,0,.226-.248.2.2,0,0,0-.041-.248c-.173-.139-.414-.294-.617-.437-.422-.3-.832-.6-1.22-.926a4.706,4.706,0,0,1-1.05-1.1.96.96,0,0,1-.113-.776,1.054,1.054,0,0,1,.527-.576h.038l.041.023,4.894,2.492h-.023l3.565.666a2.681,2.681,0,0,1,1.559.693,2.259,2.259,0,0,1,.459.689c.113.248.177.512.275.753.03.072.034.06.1.087a1.167,1.167,0,0,0,.173.041c.124,0,.245.034.376.045.248.023.489.034.73.041.478.019.945.023,1.389.023.889,0,1.706,0,2.443-.03,1.476-.034,2.635-.075,3.422-.1l.9-.034h.233l-.23.023-.9.056c-.787.041-1.946.1-3.422.147q-1.107.038-2.447.053h-1.393c-.241,0-.486-.019-.753-.041a2.559,2.559,0,0,1-.376-.041c-.064-.019-.128-.023-.2-.049a.271.271,0,0,1-.177-.154c-.105-.248-.169-.5-.279-.753a2.123,2.123,0,0,0-.433-.648,2.534,2.534,0,0,0-1.483-.644l-3.592-.666h-.019l-4.894-2.485h.079a.858.858,0,0,0-.433.467.783.783,0,0,0,.1.632,4.548,4.548,0,0,0,1.009,1.043c.376.32.791.621,1.209.911.215.158.414.275.644.459a.41.41,0,0,1,.117.218.422.422,0,0,1-.038.248.938.938,0,0,1-.294.324l-.045.034-.053-.03L96.4,122.165l.143-.105a2.782,2.782,0,0,0,.068.282,6.6,6.6,0,0,0,1.043,2.067,9.557,9.557,0,0,0,.753.858l.776.821.038.038v.056a2.191,2.191,0,0,0,.3,1.69,2.545,2.545,0,0,0,.6.64c.237.184.482.376.708.572a27.236,27.236,0,0,0,2.711,2.229,5.9,5.9,0,0,0,1.487.753,3.045,3.045,0,0,0,.794.147c.26,0,.542,0,.813-.023l3.166-.147h0l11.385,1.453-.064.053c.173-2.12.312-3.8.407-4.955l.113-1.322.03-.343A.839.839,0,0,1,121.671,126.807Z" fill="#eb996e"/>
        <path id="Path_1590" data-name="Path 1590" d="M98.754,125.749a9.79,9.79,0,0,0,1.724,1.175,8.882,8.882,0,0,0,1.849.971,9.789,9.789,0,0,0-1.724-1.175A8.083,8.083,0,0,0,98.754,125.749Z" fill="#eb996e"/>
        <path id="Path_1591" data-name="Path 1591" d="M100.543,156.429c-.335-.557,12.112,8.049,12.112,8.049l11.732-13.027,21.919,22.111,1.822-9.36,3.324-20.451-18.693-18.6s-3.106-3.038-7.82-.376C121.073,126.946,100.543,156.429,100.543,156.429Z" fill="#263238"/>
        <path id="Path_1592" data-name="Path 1592" d="M89.794,158.549l22.292-28.7s5.934-5.61,12.157-3.9c3.7,1.017,24.777,21.584,24.777,21.584l6.555,2.658,10,17.161s-12.59,11.449-21.758,4.823c-8.592-6.216-23.719-25.9-23.719-25.9l-18.795,20.587Z" fill="#263238"/>
        <path id="Path_1593" data-name="Path 1593" d="M134.581,163.485a.884.884,0,0,1-.083-.075l-.233-.241c-.2-.211-.493-.535-.866-.953-.753-.836-1.807-2.063-3.114-3.6-2.617-3.08-6.22-7.391-10.248-12.27h.147l-1.788,2.018c-4.623,5.2-8.855,9.857-11.965,13.177-1.551,1.668-2.827,3.012-3.712,3.916l-1.032,1.043-.271.271-.1.087a1.3,1.3,0,0,1,.083-.1l.26-.282,1-1.069,3.667-3.957c3.083-3.355,7.3-8.027,11.92-13.222l1.792-2.018.075-.087.072.087c4.021,4.894,7.609,9.209,10.2,12.308,1.3,1.536,2.342,2.775,3.068,3.641.376.414.64.753.84.971l.218.252A1.02,1.02,0,0,1,134.581,163.485Z" fill="#455a64"/>
        <path id="Path_1594" data-name="Path 1594" d="M155.236,163.827a1.983,1.983,0,0,1-.486-.188,6.418,6.418,0,0,1-1.209-.753,6.942,6.942,0,0,1-1.977-8.543,6.283,6.283,0,0,1,.753-1.212,2.6,2.6,0,0,1,.354-.376,11.14,11.14,0,0,0-.979,1.657,7.018,7.018,0,0,0,1.935,8.381,10.761,10.761,0,0,0,1.608,1.035Z" fill="#455a64"/>
        <path id="Path_1595" data-name="Path 1595" d="M136.833,135.914c.038-.041,2.707,2.583,5.964,5.854s5.866,5.956,5.828,5.994-2.711-2.583-5.967-5.858S136.791,135.959,136.833,135.914Z" fill="#455a64"/>
        <path id="Path_1596" data-name="Path 1596" d="M173.669,119.446c-2.986-7.3-10.131-13.844-10.131-13.844s-13.042,7.82-13.486,8.1-15.158,10.749-15.158,10.749-17.782.595-22.537.482l-2.1,9.266s22.4,2.763,25.33,2.029c1.506-.376,16.133-4.691,16.133-4.691s-.376,4.973-.6,7.153a38.813,38.813,0,0,1-2.553,8.659s8.659,9.134,10,13.885,7.183,6.965,9.947,6.852.663-1.988.663-1.988a55.191,55.191,0,0,0,5.647-16.152C176.263,141.215,176.654,126.739,173.669,119.446Z" fill="#90caf9"/>
        <path id="Path_1597" data-name="Path 1597" d="M162.51,128.1a1.586,1.586,0,0,1-.271.113l-.791.279c-.689.241-1.687.576-2.922.983-2.474.813-5.9,1.882-9.7,3.038s-7.263,2.135-9.789,2.827c-1.254.346-2.259.617-2.978.8l-.813.2a1.4,1.4,0,0,1-.286.056,1.588,1.588,0,0,1,.275-.094l.806-.233,2.959-.862c2.5-.723,5.949-1.736,9.751-2.876s7.232-2.206,9.717-2.986l2.94-.922.8-.245a1.83,1.83,0,0,1,.3-.075Z" fill="#263238"/>
        <path id="Path_1598" data-name="Path 1598" d="M166.41,124.314a4.367,4.367,0,0,1,.143-.6,12.28,12.28,0,0,0,.286-1.638,10.952,10.952,0,0,0-3.976-9.714,11.525,11.525,0,0,0-1.352-.968,3.8,3.8,0,0,1-.52-.328.662.662,0,0,1,.147.06c.094.045.237.1.41.2a10.165,10.165,0,0,1,1.4.926,10.719,10.719,0,0,1,4.028,9.842,9.827,9.827,0,0,1-.354,1.642c-.053.188-.113.331-.147.429A.5.5,0,0,1,166.41,124.314Z" fill="#263238"/>
        <path id="Path_1599" data-name="Path 1599" d="M162.269,162.773a1.35,1.35,0,0,1-.094-.188l-.241-.553c-.2-.482-.5-1.175-.9-2.026s-.889-1.841-1.476-2.929-1.276-2.259-2.048-3.456-1.57-2.3-2.315-3.283-1.457-1.845-2.071-2.549-1.129-1.269-1.48-1.649c-.162-.181-.3-.328-.407-.444a.779.779,0,0,1-.132-.166,1.13,1.13,0,0,1,.162.139l.459.41c.376.376.9.915,1.506,1.611s1.348,1.551,2.112,2.526,1.555,2.09,2.334,3.291,1.457,2.383,2.044,3.475,1.069,2.1,1.442,2.959.666,1.562.847,2.052l.2.569a.809.809,0,0,1,.053.211Z" fill="#263238"/>
        <g id="Group_59" data-name="Group 59" opacity="0.3">
          <path id="Path_1600" data-name="Path 1600" d="M165.04,159.633a7.093,7.093,0,0,0-2.425-2.658A83.343,83.343,0,0,1,152.337,146.6l8.328,12.085a12.922,12.922,0,0,0,1.013,2.831,2.207,2.207,0,0,0,2.172,1.084C165.036,162.344,165.488,160.763,165.04,159.633Z"/>
        </g>
        <g id="Group_60" data-name="Group 60" opacity="0.3">
          <path id="Path_1601" data-name="Path 1601" d="M151.576,131.995a11.707,11.707,0,0,0,7.485.87,7.053,7.053,0,0,0,5.218-5.086l-12.718,3.554"/>
        </g>
        <path id="Path_1602" data-name="Path 1602" d="M119.891,135.108a2.81,2.81,0,0,0,0-.422,1.883,1.883,0,0,0-.565-.979,6.9,6.9,0,0,1-1.22-1.276,4.243,4.243,0,0,1-.508-2.108c0-.753.068-1.506.041-2.142a3.957,3.957,0,0,0-.377-1.66,2.635,2.635,0,0,0-.712-.9c-.215-.166-.358-.23-.35-.248a1.088,1.088,0,0,1,.4.188,2.47,2.47,0,0,1,.787.9,3.972,3.972,0,0,1,.437,1.717c.038.666-.034,1.4-.026,2.146a4.217,4.217,0,0,0,.467,2.022,7.6,7.6,0,0,0,1.167,1.273,1.845,1.845,0,0,1,.538,1.062.99.99,0,0,1-.026.328C119.913,135.074,119.894,135.112,119.891,135.108Z" fill="#fafafa"/>
        <path id="Path_1603" data-name="Path 1603" d="M130.218,124.431a.269.269,0,0,1,.094.117.557.557,0,0,1,0,.429.9.9,0,0,1-.478.482c-.241.117-.52.207-.813.343a5.648,5.648,0,0,0-1.792,1.34,5.786,5.786,0,0,0-1.306,2.394,9.329,9.329,0,0,0-.151,2.76,6.2,6.2,0,0,1-.094,1.235,2.963,2.963,0,0,1-.4,1.009,2.108,2.108,0,0,1-1.216.956,1.442,1.442,0,0,1-.425.038c-.094,0-.147-.023-.143-.03a3.109,3.109,0,0,0,.55-.079,2.112,2.112,0,0,0,1.129-.956,2.794,2.794,0,0,0,.376-.968,6.461,6.461,0,0,0,.072-1.2,9.155,9.155,0,0,1,.143-2.812,5.783,5.783,0,0,1,1.363-2.466,5.647,5.647,0,0,1,1.882-1.348c.3-.132.591-.215.821-.312a.847.847,0,0,0,.459-.41.538.538,0,0,0,.034-.377C130.267,124.476,130.21,124.435,130.218,124.431Z" fill="#fafafa"/>
        <path id="Path_1604" data-name="Path 1604" d="M140.251,135.033a3.57,3.57,0,0,0,.256-.441,2.707,2.707,0,0,0,.252-1.34,3.524,3.524,0,0,0-.7-1.882,8.046,8.046,0,0,0-1.826-1.724c-.727-.531-1.453-1.013-2.041-1.544a5.338,5.338,0,0,1-1.3-1.653,3.317,3.317,0,0,1-.354-1.37,2.081,2.081,0,0,1,.023-.376c0-.087.023-.132.03-.128s0,.184.023.512a3.494,3.494,0,0,0,.4,1.31,5.376,5.376,0,0,0,1.3,1.581c.584.512,1.3.986,2.037,1.506a7.985,7.985,0,0,1,1.856,1.777,3.573,3.573,0,0,1,.689,1.984,2.572,2.572,0,0,1-.32,1.378,1.656,1.656,0,0,1-.226.316C140.289,135.007,140.255,135.037,140.251,135.033Z" fill="#fafafa"/>
        <path id="Path_1605" data-name="Path 1605" d="M154.678,129.559a3.319,3.319,0,0,0,.218-.674,3.464,3.464,0,0,0-.139-1.882,4.518,4.518,0,0,0-1.7-2.214,10.4,10.4,0,0,0-3.181-1.427c-.96-.282-1.9-.516-2.76-.817a8.794,8.794,0,0,1-2.259-1.129,5.433,5.433,0,0,1-1.382-1.4,3.731,3.731,0,0,1-.527-1.16l.038.019a2.746,2.746,0,0,1-.486.124,3.254,3.254,0,0,1,.467-.181H143v.03a4.119,4.119,0,0,0,.561,1.129,5.511,5.511,0,0,0,1.378,1.337,8.8,8.8,0,0,0,2.218,1.069c.847.29,1.785.52,2.752.806a10.259,10.259,0,0,1,3.23,1.472,4.574,4.574,0,0,1,1.728,2.312,3.415,3.415,0,0,1,.083,1.95,2.259,2.259,0,0,1-.2.5C154.739,129.514,154.686,129.563,154.678,129.559Z" fill="#fafafa"/>
        <path id="Path_1606" data-name="Path 1606" d="M155.774,110.471a.9.9,0,0,1,.218,0h.264l.376.038a5.489,5.489,0,0,1,2.157.779,5.881,5.881,0,0,1,2.259,2.522,7,7,0,0,1,.35,4.141c-.245,1.465-.689,2.8-.941,4.047a9.706,9.706,0,0,0-.147,3.343,4.984,4.984,0,0,0,.791,2.1c.312.437.55.629.531.644a3.012,3.012,0,0,1-.591-.6,4.819,4.819,0,0,1-.866-2.12,9.563,9.563,0,0,1,.105-3.388c.248-1.261.681-2.6.926-4.047a6.924,6.924,0,0,0-.324-4.021,5.794,5.794,0,0,0-2.176-2.481,5.674,5.674,0,0,0-2.093-.821l-.35-.056-.264-.019a1.262,1.262,0,0,1-.226-.06Z" fill="#fafafa"/>
        <path id="Path_1607" data-name="Path 1607" d="M175.484,133.422a3.208,3.208,0,0,0-.828-.569,3.878,3.878,0,0,0-2.684-.087,10.9,10.9,0,0,0-3.464,2.138,11.347,11.347,0,0,1-2.071,1.31,9.036,9.036,0,0,1-7.511.034,34.942,34.942,0,0,0-3.765-1.645,5.908,5.908,0,0,0-2.718-.23,5.449,5.449,0,0,0-.971.29,2.7,2.7,0,0,1,.956-.377,5.674,5.674,0,0,1,2.771.169,31.846,31.846,0,0,1,3.8,1.611,8.912,8.912,0,0,0,7.357-.041,11.134,11.134,0,0,0,2.044-1.284,11.03,11.03,0,0,1,3.535-2.127,3.927,3.927,0,0,1,2.756.151,3.521,3.521,0,0,1,.376.23c.1.083.184.147.245.211a1.416,1.416,0,0,1,.169.215Z" fill="#fafafa"/>
        <path id="Path_1608" data-name="Path 1608" d="M174.719,125.986a.418.418,0,0,1,0,.12,1.129,1.129,0,0,1-.113.324,2.123,2.123,0,0,1-.877.911,3.355,3.355,0,0,1-1.83.422,14.642,14.642,0,0,1-2.259-.354,10.937,10.937,0,0,0-4.077,0c-1.032.2-1.641.456-1.653.422a1.766,1.766,0,0,1,.422-.192,8.613,8.613,0,0,1,1.2-.377,10.282,10.282,0,0,1,4.141-.068,16.833,16.833,0,0,0,2.233.376,3.32,3.32,0,0,0,1.754-.376,2.176,2.176,0,0,0,.877-.825C174.667,126.144,174.693,125.978,174.719,125.986Z" fill="#fafafa"/>
        <path id="Path_1609" data-name="Path 1609" d="M172.434,117.466c0,.034-.358,0-.926.06a7.1,7.1,0,0,0-4.025,1.664,8.583,8.583,0,0,1-.693.614,2.636,2.636,0,0,1,.6-.719,6.351,6.351,0,0,1,1.9-1.224,6.284,6.284,0,0,1,2.206-.474A2.775,2.775,0,0,1,172.434,117.466Z" fill="#fafafa"/>
        <path id="Path_1610" data-name="Path 1610" d="M166.858,109.258a1.935,1.935,0,0,1-.256.681,5.817,5.817,0,0,1-1.035,1.431,6.025,6.025,0,0,1-1.416,1.058,1.973,1.973,0,0,1-.681.264,11.242,11.242,0,0,0,1.958-1.461,11.084,11.084,0,0,0,1.431-1.973Z" fill="#fafafa"/>
        <path id="Path_1611" data-name="Path 1611" d="M174.252,149.679a2.186,2.186,0,0,1-.06-.271,2.194,2.194,0,0,0-.06-.328c-.023-.124-.075-.279-.12-.441a7.01,7.01,0,0,0-1.363-2.523,7.417,7.417,0,0,0-3.5-2.346,6.4,6.4,0,0,0-2.489-.237,16.668,16.668,0,0,0-2.669.535,20.076,20.076,0,0,1-2.684.587,10.711,10.711,0,0,1-2.571.023,11.382,11.382,0,0,1-4.123-1.3,10.628,10.628,0,0,1-2.353-1.728,7.867,7.867,0,0,1-.546-.58,1.277,1.277,0,0,1-.169-.218,2.214,2.214,0,0,1,.2.192c.128.128.309.324.569.55a11.137,11.137,0,0,0,2.364,1.66,11.585,11.585,0,0,0,4.081,1.25,11.133,11.133,0,0,0,2.523-.034,21.227,21.227,0,0,0,2.662-.591,16.608,16.608,0,0,1,2.7-.535,6.618,6.618,0,0,1,2.56.256,7.53,7.53,0,0,1,3.558,2.428,6.867,6.867,0,0,1,1.329,2.594c.038.169.079.316.1.448s.03.237.041.335a1.26,1.26,0,0,1,.023.275Z" fill="#fafafa"/>
        <path id="Path_1612" data-name="Path 1612" d="M153.854,149.065a2.06,2.06,0,0,1-.753.105,5.24,5.24,0,0,1-1.852-.335,5.169,5.169,0,0,1-1.611-.968,2,2,0,0,1-.508-.584,8.136,8.136,0,0,0,2.191,1.37,7.941,7.941,0,0,0,2.534.41Z" fill="#fafafa"/>
        <path id="Path_1613" data-name="Path 1613" d="M171.707,160.476a.885.885,0,0,1-.181.072,2.755,2.755,0,0,1-.546.12,3.976,3.976,0,0,1-2.022-.339,6.777,6.777,0,0,1-2.417-1.852c-.753-.873-1.4-1.958-2.172-3.012a11.411,11.411,0,0,0-1.227-1.453,7.38,7.38,0,0,0-1.4-1.069,8.1,8.1,0,0,0-2.809-1.02,9.551,9.551,0,0,0-2.771,0,.711.711,0,0,1,.188-.056,4.8,4.8,0,0,1,.55-.1,7.575,7.575,0,0,1,2.056,0,8.016,8.016,0,0,1,2.876,1,7.463,7.463,0,0,1,1.446,1.088,10.918,10.918,0,0,1,1.254,1.491c.776,1.073,1.419,2.154,2.15,3.012a6.777,6.777,0,0,0,2.338,1.841,4.029,4.029,0,0,0,1.958.376C171.448,160.552,171.7,160.454,171.707,160.476Z" fill="#fafafa"/>
        <path id="Path_1614" data-name="Path 1614" d="M165.657,167.841c-.034,0-.038-.339-.139-.873a6.246,6.246,0,0,0-2.086-3.58c-.414-.354-.708-.527-.689-.557a2.552,2.552,0,0,1,.776.448,5.568,5.568,0,0,1,2.135,3.667,2.406,2.406,0,0,1,0,.9Z" fill="#fafafa"/>
      </g>
      <g id="freepik--Plant--inject-405">
        <path id="Path_1615" data-name="Path 1615" d="M34.408,121.63a15.868,15.868,0,0,1,1.235-18.512c1.348-1.559,3.227-2.914,5.271-2.737a5.583,5.583,0,0,1,4.435,3.991,13.04,13.04,0,0,1,.041,6.261c-.527,2.907-1.408,5.877-3.422,8.038s-4.977,4.375-7.568,2.959" fill="#90caf9"/>
        <path id="Path_1616" data-name="Path 1616" d="M36.414,148.361a8.305,8.305,0,0,1,2.315-9.412,3.48,3.48,0,0,1,2.967-.93,2.918,2.918,0,0,1,1.924,2.459,6.837,6.837,0,0,1-.546,3.227,8.168,8.168,0,0,1-2.492,3.833c-1.235.93-2.959,1.8-4.168.84" fill="#90caf9"/>
        <path id="Path_1617" data-name="Path 1617" d="M27.661,146.456a12.007,12.007,0,0,0-6.054-12.673,5.045,5.045,0,0,0-4.48-.448,4.226,4.226,0,0,0-2,4.051,9.916,9.916,0,0,0,1.724,4.416,11.886,11.886,0,0,0,4.661,4.691c2.026.953,4.725,1.683,6.152-.038" fill="#90caf9"/>
        <path id="Path_1618" data-name="Path 1618" d="M28.29,133.139c1.739-5.61-1.209-12.424-6.122-15.632-1.525-1-3.456-1.694-5.158-1.043a4.929,4.929,0,0,0-2.8,4.473A11.614,11.614,0,0,0,15.7,126.28a13.868,13.868,0,0,0,4.868,6.005c2.233,1.348,5.866,2.688,7.726.855" fill="#90caf9"/>
        <path id="Path_1619" data-name="Path 1619" d="M31.78,160.559a1.408,1.408,0,0,1-.056-.271c-.03-.2-.068-.463-.117-.783q-.034-.26-.079-.565c-.038-.207-.083-.429-.128-.666-.09-.482-.184-1.028-.343-1.619q-.105-.452-.226-.937l-.294-1c-.188-.7-.463-1.416-.723-2.184a42.544,42.544,0,0,0-2.165-4.8,42.267,42.267,0,0,0-2.8-4.461c-.5-.64-.945-1.269-1.423-1.807l-.67-.8-.655-.708c-.407-.456-.809-.84-1.16-1.178l-.486-.474-.425-.376-.587-.531a1.059,1.059,0,0,1-.2-.2,1.163,1.163,0,0,1,.226.162l.617.5.444.376.5.463a16.112,16.112,0,0,1,1.193,1.163l.666.7.689.794c.486.538.941,1.167,1.446,1.807a40.285,40.285,0,0,1,2.835,4.458,40.661,40.661,0,0,1,2.161,4.838c.256.776.523,1.506.7,2.206l.282,1.009c.075.328.147.644.215.945.147.6.23,1.148.309,1.634.038.237.075.463.109.67s.041.4.056.572c.03.32.056.584.075.791A1.378,1.378,0,0,1,31.78,160.559Z" fill="#263238"/>
        <path id="Path_1620" data-name="Path 1620" d="M31.652,161.568a.425.425,0,0,1,0-.113,1.773,1.773,0,0,1,.023-.324c.03-.3.068-.723.117-1.246.026-.275.056-.572.09-.9s.034-.689.053-1.077c.03-.753.1-1.645.075-2.617v-1.525c0-.531-.056-1.077-.083-1.649-.038-1.129-.192-2.349-.331-3.626a56.72,56.72,0,0,0-1.721-8.159,56.446,56.446,0,0,0-3.012-7.778c-.58-1.129-1.111-2.259-1.7-3.219-.29-.493-.546-.983-.832-1.431l-.825-1.28C23,125.8,22.462,125.1,22,124.472c-.226-.312-.429-.61-.629-.87l-.565-.708-.776-.983-.2-.26a.475.475,0,0,1-.06-.09.683.683,0,0,1,.079.075l.215.245.813.956.584.693c.2.26.414.553.648.862.456.625,1.005,1.314,1.506,2.138l.843,1.28c.286.444.55.934.843,1.423.6.979,1.129,2.078,1.724,3.227a55.315,55.315,0,0,1,3.038,7.8,55.515,55.515,0,0,1,1.709,8.2c.132,1.28.279,2.5.309,3.641.023.572.072,1.129.072,1.657v1.529c0,.975-.072,1.856-.113,2.635-.026.376-.041.753-.072,1.073l-.113.9c-.064.523-.12.941-.158,1.242-.019.132-.034.237-.045.324a.557.557,0,0,1,0,.1Z" fill="#263238"/>
        <path id="Path_1621" data-name="Path 1621" d="M41.106,107.086a.21.21,0,0,1-.049.105l-.154.29-.617,1.107c-.132.241-.294.5-.448.8l-.486.975c-.173.354-.376.727-.561,1.129s-.376.836-.569,1.288-.41.919-.614,1.416-.376,1.024-.6,1.566l-.316.825c-.1.282-.2.572-.294.862l-.606,1.8c-.753,2.489-1.506,5.271-2.116,8.2s-1.013,5.783-1.321,8.373-.463,4.932-.516,6.9c-.049.986-.06,1.882-.064,2.658s0,1.461,0,2.01V149a.376.376,0,0,1,0,.113.527.527,0,0,1,0-.113,2.946,2.946,0,0,0-.023-.328c0-.309-.038-.734-.064-1.269s-.041-1.227-.041-2.014,0-1.675.026-2.662c.034-1.977.211-4.322.467-6.924a84.647,84.647,0,0,1,1.306-8.4,81.49,81.49,0,0,1,2.138-8.223c.215-.617.418-1.22.621-1.8l.3-.866.324-.825c.215-.538.418-1.062.617-1.562s.429-.968.629-1.419.376-.881.587-1.28l.58-1.129c.181-.346.346-.67.5-.968s.328-.557.467-.794l.659-1.088.177-.279A.554.554,0,0,1,41.106,107.086Z" fill="#263238"/>
        <path id="Path_1622" data-name="Path 1622" d="M39.871,141.162a4.6,4.6,0,0,1-.376.681c-.267.422-.633,1.05-1.058,1.834s-.9,1.743-1.378,2.824a34.108,34.108,0,0,0-1.333,3.6,38.157,38.157,0,0,0-.93,3.727c-.218,1.163-.376,2.218-.459,3.11s-.143,1.611-.162,2.112a4.616,4.616,0,0,1-.064.776,4.842,4.842,0,0,1-.026-.779,21.036,21.036,0,0,1,.087-2.127,31.036,31.036,0,0,1,.407-3.129,36.2,36.2,0,0,1,.919-3.765,35.143,35.143,0,0,1,1.363-3.618,31.169,31.169,0,0,1,1.431-2.816c.448-.779.836-1.4,1.129-1.807a4.923,4.923,0,0,1,.452-.625Z" fill="#263238"/>
        <path id="Path_1623" data-name="Path 1623" d="M24.649,158.059H40.6L38.67,174.35H26.637Z" fill="#455a64"/>
        <path id="Path_1624" data-name="Path 1624" d="M25.233,172.592l1.352,1.758H38.67l1.393-1.7Z" fill="#263238"/>
        <path id="Path_1625" data-name="Path 1625" d="M39.976,162.852c0,.064-3.309.117-7.391.117s-7.394-.053-7.394-.117,3.309-.12,7.394-.12S39.976,162.784,39.976,162.852Z" fill="#fafafa"/>
        <path id="Path_1626" data-name="Path 1626" d="M39.976,163.936c0,.064-3.309.117-7.391.117s-7.394-.053-7.394-.117,3.309-.12,7.394-.12S39.976,163.869,39.976,163.936Z" fill="#fafafa"/>
        <path id="Path_1627" data-name="Path 1627" d="M39.777,164.987c0,.064-3.193.117-7.131.117s-7.135-.053-7.135-.117,3.193-.12,7.135-.12S39.777,164.9,39.777,164.987Z" fill="#fafafa"/>
      </g>
    </g>
  </g>
</svg>
