<svg xmlns="http://www.w3.org/2000/svg" xmlns:xlink="http://www.w3.org/1999/xlink" width="380" height="160" viewBox="0 0 380 160">
  <defs>
    <clipPath id="clip-path">
      <rect id="Rectangle_169" data-name="Rectangle 169" width="380" height="160" transform="translate(447 861)" fill="#fff" stroke="#707070" stroke-width="1"/>
    </clipPath>
  </defs>
  <g id="web-sites" transform="translate(-447 -861)" clip-path="url(#clip-path)">
    <g id="Google_sitemap-pana_1_" data-name="Google sitemap-pana (1)" transform="translate(508.502 858.91)">
      <g id="freepik--background-complete--inject-434">
        <path id="Path_1041" data-name="Path 1041" d="M232.475,144.99l-.45,8.294a.562.562,0,0,1-.555.532l-14.928.108a.562.562,0,0,1-.566-.555l-.047-6.458a.562.562,0,0,1,.562-.562h9.178a.559.559,0,0,0,.4-.163l1.585-1.585a.565.565,0,0,1,.393-.163l3.868-.027a.559.559,0,0,1,.566.579Z" fill="#90caf9"/>
        <g id="Group_45" data-name="Group 45" opacity="0.3">
          <path id="Path_1042" data-name="Path 1042" d="M232.475,144.99l-.45,8.294a.562.562,0,0,1-.555.532l-14.928.108a.562.562,0,0,1-.566-.555l-.047-6.458a.562.562,0,0,1,.562-.562h9.178a.559.559,0,0,0,.4-.163l1.585-1.585a.565.565,0,0,1,.393-.163l3.868-.027a.559.559,0,0,1,.566.579Z"/>
        </g>
        <rect id="Rectangle_170" data-name="Rectangle 170" width="16.31" height="9.747" transform="translate(232.297 155) rotate(179.58)" fill="#f5f5f5"/>
        <path id="Path_1043" data-name="Path 1043" d="M233.531,146.118l-1.172,10.16a.362.362,0,0,1-.356.322l-15.894.115a.362.362,0,0,1-.362-.339l-.874-10.16a.362.362,0,0,1,.339-.393l17.949-.132a.362.362,0,0,1,.369.427Z" fill="#e0e0e0"/>
        <path id="Path_1044" data-name="Path 1044" d="M236.864,143.426l-.45,8.3a.559.559,0,0,1-.555.532l-14.925.108a.559.559,0,0,1-.566-.555l-.047-6.458a.562.562,0,0,1,.559-.562h9.181a.559.559,0,0,0,.4-.163l1.585-1.585a.555.555,0,0,1,.389-.163l3.871-.027a.555.555,0,0,1,.562.576Z" fill="#ebebeb"/>
        <rect id="Rectangle_171" data-name="Rectangle 171" width="16.31" height="9.747" transform="translate(236.691 153.434) rotate(179.58)" fill="#f5f5f5"/>
        <path id="Path_1045" data-name="Path 1045" d="M237.924,144.553l-1.172,10.16a.362.362,0,0,1-.356.322l-15.894.115a.362.362,0,0,1-.362-.339l-.874-10.16a.359.359,0,0,1,.339-.389l17.949-.132a.362.362,0,0,1,.369.423Z" fill="#ebebeb"/>
        <path id="Path_1046" data-name="Path 1046" d="M241.808,145.366l-.45,8.3a.559.559,0,0,1-.555.528l-14.928.112a.559.559,0,0,1-.562-.559l-.047-6.455a.559.559,0,0,1,.559-.566H235a.559.559,0,0,0,.393-.166l1.585-1.582a.552.552,0,0,1,.393-.163l3.871-.03a.559.559,0,0,1,.562.583Z" fill="#f5f5f5"/>
        <rect id="Rectangle_172" data-name="Rectangle 172" width="16.31" height="9.747" transform="translate(241.638 155.38) rotate(179.58)" fill="#fafafa"/>
        <path id="Path_1047" data-name="Path 1047" d="M242.872,146.494l-1.172,10.16a.359.359,0,0,1-.339.318l-15.9.115a.359.359,0,0,1-.362-.339l-.874-10.16a.359.359,0,0,1,.356-.389l17.949-.132a.359.359,0,0,1,.339.427Z" fill="#f5f5f5"/>
        <path id="Path_1048" data-name="Path 1048" d="M224.215,147.879v14.109h20.357V147.879Zm6.645,2.537a1.04,1.04,0,0,1,1.043-1.04h4.982a1.043,1.043,0,0,1,0,2.083H231.9a1.043,1.043,0,0,1-1.043-1.043Z" fill="#ebebeb"/>
        <path id="Path_1049" data-name="Path 1049" d="M213.239,147.879v14.109h10.976V147.879Z" fill="#e0e0e0"/>
        <rect id="Rectangle_173" data-name="Rectangle 173" width="38.181" height="34.158" transform="translate(11.078 48.91)" fill="#fafafa"/>
        <path id="Path_1050" data-name="Path 1050" d="M49.259,83.068V80.6c0-1.6,0-3.949-.024-6.933,0-5.971-.024-14.5-.044-24.76l.088.085L11.1,49.012h0l.1-.1V83.068l-.091-.091,27.615.047,7.789.024h.051l-7.769.024-27.673.044h-.088V48.768H49.4v.088c0,10.285-.034,18.833-.044,24.814,0,2.977,0,5.314-.02,6.916V82.4A2.409,2.409,0,0,1,49.259,83.068Z" fill="#e0e0e0"/>
        <path id="Path_1051" data-name="Path 1051" d="M25.718,54.979c0,.054-2.008.1-4.487.1s-4.491-.047-4.491-.1,2.012-.1,4.491-.1S25.718,54.922,25.718,54.979Z" fill="#e0e0e0"/>
        <path id="Path_1052" data-name="Path 1052" d="M41.9,57.543c0,.058-5.52.1-12.331.1s-12.331-.044-12.331-.1,5.52-.1,12.331-.1S41.9,57.485,41.9,57.543Z" fill="#e0e0e0"/>
        <rect id="Rectangle_174" data-name="Rectangle 174" width="1.609" height="1.609" transform="translate(16.808 61.888)" fill="#e0e0e0"/>
        <rect id="Rectangle_175" data-name="Rectangle 175" width="1.609" height="1.609" transform="translate(20.767 61.888)" fill="#e0e0e0"/>
        <rect id="Rectangle_176" data-name="Rectangle 176" width="1.609" height="1.609" transform="translate(24.801 61.814)" fill="#e0e0e0"/>
        <rect id="Rectangle_177" data-name="Rectangle 177" width="1.609" height="1.609" transform="translate(28.685 61.888)" fill="#e0e0e0"/>
        <rect id="Rectangle_178" data-name="Rectangle 178" width="1.609" height="1.609" transform="translate(32.644 61.888)" fill="#e0e0e0"/>
        <rect id="Rectangle_179" data-name="Rectangle 179" width="1.609" height="1.609" transform="translate(36.603 61.888)" fill="#e0e0e0"/>
        <rect id="Rectangle_180" data-name="Rectangle 180" width="1.609" height="1.609" transform="translate(40.566 61.888)" fill="#ebebeb"/>
        <rect id="Rectangle_181" data-name="Rectangle 181" width="1.609" height="1.609" transform="translate(16.808 65.309)" fill="#ebebeb"/>
        <rect id="Rectangle_182" data-name="Rectangle 182" width="1.609" height="1.609" transform="translate(20.767 65.309)" fill="#e0e0e0"/>
        <rect id="Rectangle_183" data-name="Rectangle 183" width="1.609" height="1.609" transform="translate(24.726 65.309)" fill="#ebebeb"/>
        <rect id="Rectangle_184" data-name="Rectangle 184" width="1.609" height="1.609" transform="translate(28.685 65.309)" fill="#e0e0e0"/>
        <rect id="Rectangle_185" data-name="Rectangle 185" width="1.609" height="1.609" transform="translate(32.644 65.309)" fill="#e0e0e0"/>
        <rect id="Rectangle_186" data-name="Rectangle 186" width="1.609" height="1.609" transform="translate(36.678 65.234)" fill="#e0e0e0"/>
        <rect id="Rectangle_187" data-name="Rectangle 187" width="1.609" height="1.609" transform="translate(40.566 65.309)" fill="#e0e0e0"/>
        <rect id="Rectangle_188" data-name="Rectangle 188" width="1.609" height="1.609" transform="translate(16.808 68.726)" fill="#e0e0e0"/>
        <rect id="Rectangle_189" data-name="Rectangle 189" width="1.609" height="1.609" transform="translate(20.838 68.655)" fill="#e0e0e0"/>
        <rect id="Rectangle_190" data-name="Rectangle 190" width="1.609" height="1.609" transform="translate(24.726 68.726)" fill="#e0e0e0"/>
        <rect id="Rectangle_191" data-name="Rectangle 191" width="1.609" height="1.609" transform="translate(28.685 68.726)" fill="#ebebeb"/>
        <rect id="Rectangle_192" data-name="Rectangle 192" width="1.609" height="1.609" transform="translate(32.644 68.726)" fill="#e0e0e0"/>
        <rect id="Rectangle_193" data-name="Rectangle 193" width="1.609" height="1.609" transform="translate(36.603 68.726)" fill="#e0e0e0"/>
        <rect id="Rectangle_194" data-name="Rectangle 194" width="1.609" height="1.609" transform="translate(40.566 68.726)" fill="#e0e0e0"/>
        <rect id="Rectangle_195" data-name="Rectangle 195" width="1.609" height="1.609" transform="translate(16.808 72.146)" fill="#e0e0e0"/>
        <rect id="Rectangle_196" data-name="Rectangle 196" width="1.609" height="1.609" transform="translate(20.767 72.146)" fill="#e0e0e0"/>
        <rect id="Rectangle_197" data-name="Rectangle 197" width="1.609" height="1.609" transform="translate(24.726 72.146)" fill="#e0e0e0"/>
        <rect id="Rectangle_198" data-name="Rectangle 198" width="1.609" height="1.609" transform="translate(28.76 72.072)" fill="#e0e0e0"/>
        <rect id="Rectangle_199" data-name="Rectangle 199" width="1.609" height="1.609" transform="translate(32.644 72.146)" fill="#e0e0e0"/>
        <rect id="Rectangle_200" data-name="Rectangle 200" width="1.609" height="1.609" transform="translate(36.603 72.146)" fill="#ebebeb"/>
        <rect id="Rectangle_201" data-name="Rectangle 201" width="1.609" height="1.609" transform="translate(40.566 72.146)" fill="#e0e0e0"/>
        <rect id="Rectangle_202" data-name="Rectangle 202" width="1.609" height="1.609" transform="translate(16.808 75.567)" fill="#e0e0e0"/>
        <rect id="Rectangle_203" data-name="Rectangle 203" width="1.609" height="1.609" transform="translate(20.767 75.567)" fill="#ebebeb"/>
        <rect id="Rectangle_204" data-name="Rectangle 204" width="1.609" height="1.609" transform="translate(24.726 75.567)" fill="#e0e0e0"/>
        <rect id="Rectangle_205" data-name="Rectangle 205" width="1.609" height="1.609" transform="translate(28.685 75.567)" fill="#e0e0e0"/>
        <rect id="Rectangle_206" data-name="Rectangle 206" width="1.609" height="1.609" transform="translate(32.644 75.567)" fill="#e0e0e0"/>
        <rect id="Rectangle_207" data-name="Rectangle 207" width="1.609" height="1.609" transform="translate(36.678 75.492)" fill="#e0e0e0"/>
        <rect id="Rectangle_208" data-name="Rectangle 208" width="1.609" height="1.609" transform="translate(40.566 75.567)" fill="#e0e0e0"/>
        <path id="Path_1053" data-name="Path 1053" d="M239.265,51.5h0a7.979,7.979,0,0,1-9.144-6.59h0a7.976,7.976,0,0,1,6.59-9.144h0a7.969,7.969,0,0,1,9.144,6.587h0A7.976,7.976,0,0,1,239.265,51.5Z" fill="#ebebeb"/>
        <path id="Path_1054" data-name="Path 1054" d="M241.582,42.808l-3.542.579.169,1.016,2.371-.389a2.372,2.372,0,0,1-2,2.371,2.814,2.814,0,1,1,1.1-5.124l.677-.8a3.857,3.857,0,1,0-1.6,6.956,3.492,3.492,0,0,0,2.885-4.213Z" fill="#fff"/>
        <path id="Path_1055" data-name="Path 1055" d="M222.244,20.716l-13.127,4.409h29.66l-12.324-4.409Z" fill="#e0e0e0"/>
        <path id="Path_1056" data-name="Path 1056" d="M225.928,24.828a6.9,6.9,0,0,0-.1.776,3.857,3.857,0,0,0,.491,2.032c.2.4.467.823.677,1.324a2.879,2.879,0,0,1,.176,1.693,3.089,3.089,0,0,1-.925,1.653,2.825,2.825,0,0,1-1.893.725,2.905,2.905,0,0,1-2.774-3.989,5.463,5.463,0,0,1,.789-1.267,5.189,5.189,0,0,0,.643-1.016,2.37,2.37,0,0,0,.207-.877,1.693,1.693,0,0,0-.176-.748.678.678,0,0,1,.108.173,1.493,1.493,0,0,1,.129.576,2.347,2.347,0,0,1-.186.911,5.162,5.162,0,0,1-.637,1.053,5.629,5.629,0,0,0-.759,1.25,2.879,2.879,0,0,0,.833,3.167,2.807,2.807,0,0,0,1.819.616,2.689,2.689,0,0,0,1.792-.677,2.943,2.943,0,0,0,.887-1.568A2.8,2.8,0,0,0,226.88,29c-.2-.488-.454-.911-.657-1.321a3.831,3.831,0,0,1-.45-2.09,3.281,3.281,0,0,1,.095-.579.813.813,0,0,1,.061-.186Z" fill="#e0e0e0"/>
        <path id="Path_1057" data-name="Path 1057" d="M224.845,25.105a4.181,4.181,0,0,1-.081.552,15,15,0,0,0-.149,1.507,12.067,12.067,0,0,0,.1,2.228.484.484,0,0,0,.122.251.244.244,0,0,0,.227.081c.163-.034.247-.281.217-.474a.962.962,0,0,0-.914-.8.952.952,0,0,0-.935.772.417.417,0,0,0,.247.471.369.369,0,0,0,.427-.247,1.755,1.755,0,0,0,.1-.583c0-.2.024-.393.027-.583a9.984,9.984,0,0,0-.044-1.04,10.5,10.5,0,0,0-.251-1.49,4.7,4.7,0,0,1-.132-.542.737.737,0,0,1,.058.132,3.951,3.951,0,0,1,.132.393,8.881,8.881,0,0,1,.3,1.5,9.109,9.109,0,0,1,.061,1.053c0,.19,0,.386-.017.586a1.955,1.955,0,0,1-.1.633.63.63,0,0,1-.23.278.42.42,0,0,1-.376.054.572.572,0,0,1-.339-.63,1.1,1.1,0,0,1,1.087-.911,1.114,1.114,0,0,1,1.067.935.751.751,0,0,1-.047.376.427.427,0,0,1-.288.264.386.386,0,0,1-.366-.125.63.63,0,0,1-.159-.339,11.435,11.435,0,0,1-.068-2.266,11.573,11.573,0,0,1,.2-1.51c.037-.176.068-.312.095-.4A.482.482,0,0,1,224.845,25.105Z" fill="#e0e0e0"/>
        <path id="Path_1058" data-name="Path 1058" d="M224.35,2.09a.624.624,0,0,1,0,.186v.535c0,.481.017,1.148.027,1.968,0,1.676,0,3.962.024,6.492s-.02,4.819-.024,6.492c0,.823-.02,1.49-.027,1.968v.535a.624.624,0,0,1,0,.186,1.015,1.015,0,0,1,0-.186v-.535c0-.478,0-1.145-.024-1.968,0-1.673,0-3.962-.024-6.492s0-4.816.024-6.492c0-.82.02-1.487.024-1.968V2.276a1.015,1.015,0,0,1,0-.186Z" fill="#e0e0e0"/>
        <path id="Path_1059" data-name="Path 1059" d="M222.244,20.716l.813-3.644h2.706l.691,3.644Z" fill="#e0e0e0"/>
        <path id="Path_1060" data-name="Path 1060" d="M173.94,159.194a2.558,2.558,0,0,1-.7-3.139,2.786,2.786,0,0,1,1.483-1.046,5.953,5.953,0,0,0,1.629-.843c.881-.752,1.124-2,1.693-3a3.753,3.753,0,0,1,3.255-1.947,4.114,4.114,0,0,1,3.36,2.709,12.07,12.07,0,0,1,.6,4.511,3.137,3.137,0,0,1-.65,2.371,3.032,3.032,0,0,1-2.2.508l-8.3-.254" fill="#f5f5f5"/>
        <path id="Path_1061" data-name="Path 1061" d="M189.809,136.378h-21.83l3.929,23.439a2.621,2.621,0,0,0,1.866,2.086l.074.02c.064.017.129.037.2.051a2.71,2.71,0,0,0,.444.051v.024l.1-.017h9.727a2.784,2.784,0,0,0,.535-.054,2.635,2.635,0,0,0,2.208-2.293l1.913-16.148.085-.643h0l.752-6.394Zm-4.115,14.949h-2.242l.227-6.8h2.587Zm.8-6.8h2.147l-.8,6.8h-1.913Zm-6.4,14.343-.135-5.91h3.224l-.2,5.91Zm-3.485-5.91h3.133l.135,5.91h-2.811Zm.24,5.91h-2.625l-.928-5.91h3.1Zm-.369-7.542-.528-6.8h3.6l.156,6.8Zm3.441,0-.156-6.8h3.7l-.227,6.8Zm-.193-8.433-.146-6.3h4.145l-.21,6.3Zm-.217,0h-3.685l-.491-6.3h4.03Zm-3.9,0h-3.9c-.139-.87-.271-1.693-.386-2.435-.406-2.547-.562-3.505-.647-3.864h4.44Zm.125,1.632.528,6.8h-3.224c-.108-.677-.217-1.385-.339-2.086-.254-1.605-.508-3.211-.745-4.714Zm-2.913,6.8h-2.107l-1.141-6.8h2.174Zm.254,1.632c.322,2.032.637,4.064.928,5.91h-2.032l-.989-5.91Zm10.143,5.91.2-5.91h2.154l-.522,5.91Zm.532-15.975.21-6.3h2.984l-.538,6.3Zm-13.262-6.3c.088.457.488,2.933,1.016,6.3h-2.2l-1.057-6.3Zm16.456,22.274h-1.693l.5-5.91h1.873Zm1.873-15.975h-2.195l.535-6.3h2.4Z" fill="#e0e0e0"/>
        <rect id="Rectangle_209" data-name="Rectangle 209" width="3.058" height="15.22" transform="matrix(1, -0.01, 0.01, 1, 51.651, 14.389)" fill="#e0e0e0"/>
        <rect id="Rectangle_210" data-name="Rectangle 210" width="7.921" height="8.402" transform="translate(25.083 14.691) rotate(-0.31)" fill="#ebebeb"/>
        <rect id="Rectangle_211" data-name="Rectangle 211" width="7.921" height="8.402" transform="translate(32.967 14.648) rotate(-0.31)" fill="#f5f5f5"/>
        <path id="Path_1062" data-name="Path 1062" d="M25.1,17.015q7.9.064,15.806-.071a.085.085,0,1,0,0-.169c-5.263-.03-10.543,0-15.806.095a.075.075,0,0,0,0,.146Z" fill="#e0e0e0"/>
        <rect id="Rectangle_212" data-name="Rectangle 212" width="14.39" height="6.848" transform="translate(20.146 22.988) rotate(-0.31)" fill="#ebebeb"/>
        <rect id="Rectangle_213" data-name="Rectangle 213" width="14.39" height="6.848" transform="translate(34.471 22.914) rotate(-0.31)" fill="#f5f5f5"/>
        <path id="Path_1063" data-name="Path 1063" d="M20.157,24.9c9.561.108,19.152,0,28.712-.142a.085.085,0,0,0,0-.169c-9.561-.047-19.155-.044-28.716.166a.075.075,0,0,0,0,.146Z" fill="#e0e0e0"/>
        <rect id="Rectangle_214" data-name="Rectangle 214" width="55.755" height="2.452" transform="translate(14.773 29.84)" fill="#e0e0e0"/>
        <rect id="Rectangle_215" data-name="Rectangle 215" width="2.262" height="8.372" transform="translate(23.903 31.019)" fill="#e0e0e0"/>
        <rect id="Rectangle_216" data-name="Rectangle 216" width="2.262" height="8.372" transform="translate(57.692 31.019)" fill="#e0e0e0"/>
        <rect id="Rectangle_217" data-name="Rectangle 217" width="3.058" height="20.933" transform="translate(54.57 8.95) rotate(-0.31)" fill="#ebebeb"/>
        <rect id="Rectangle_218" data-name="Rectangle 218" width="4.752" height="16.964" transform="translate(57.653 12.855) rotate(-0.31)" fill="#f5f5f5"/>
        <path id="Path_1064" data-name="Path 1064" d="M62.376,16.1a16.676,16.676,0,0,1-2.371.085,16.636,16.636,0,0,1-2.371-.085,17.611,17.611,0,0,1,2.371-.081,17.655,17.655,0,0,1,2.371.081Z" fill="#e0e0e0"/>
        <path id="Path_1065" data-name="Path 1065" d="M62.376,15.389a17.655,17.655,0,0,1-2.371.081,17.611,17.611,0,0,1-2.371-.081,16.971,16.971,0,0,1,2.371-.081A17.008,17.008,0,0,1,62.376,15.389Z" fill="#e0e0e0"/>
        <path id="Path_1066" data-name="Path 1066" d="M62.376,27.246a17.654,17.654,0,0,1-2.371.081,17.61,17.61,0,0,1-2.371-.081,16.636,16.636,0,0,1,2.371-.085,16.677,16.677,0,0,1,2.371.085Z" fill="#e0e0e0"/>
        <path id="Path_1067" data-name="Path 1067" d="M62.376,26.531a16.676,16.676,0,0,1-2.371.085,16.636,16.636,0,0,1-2.371-.085,17.61,17.61,0,0,1,2.371-.081,17.655,17.655,0,0,1,2.371.081Z" fill="#e0e0e0"/>
        <path id="Path_1068" data-name="Path 1068" d="M60.073,24.977c-.044,0-.081-1.693-.081-3.824s.037-3.82.081-3.82.085,1.693.085,3.82S60.12,24.977,60.073,24.977Z" fill="#e0e0e0"/>
        <rect id="Rectangle_219" data-name="Rectangle 219" width="5.175" height="12.805" transform="translate(62.427 16.998)" fill="#ebebeb"/>
        <path id="Path_1069" data-name="Path 1069" d="M56.933,12.51a.881.881,0,1,1-.881-.881.881.881,0,0,1,.881.881Z" fill="#e0e0e0"/>
        <rect id="Rectangle_220" data-name="Rectangle 220" width="0.542" height="12.453" transform="translate(55.782 14.928)" fill="#e0e0e0"/>
      </g>
      <g id="freepik--Device--inject-434">
        <path id="Path_1070" data-name="Path 1070" d="M196.474,26.04H42.55a4.8,4.8,0,0,0-4.806,4.8V139.555a4.806,4.806,0,0,0,4.806,4.806h59.074s3.759,11.62-7.891,17.631h55.24s-13.167-4.511-9.781-17.621h57.282a4.806,4.806,0,0,0,4.806-4.806V30.853a4.8,4.8,0,0,0-4.806-4.812Z" fill="#263238"/>
        <path id="Path_1071" data-name="Path 1071" d="M121.582,132.934a2.966,2.966,0,0,1-4.179,4.176.965.965,0,0,1-.254-.257,2.965,2.965,0,0,1,4.176-4.176,1.159,1.159,0,0,1,.257.257Z" fill="#455a64"/>
        <path id="Path_1072" data-name="Path 1072" d="M43.688,28.031H195.343a3.285,3.285,0,0,1,3.285,3.285v93.164H40.4V31.313a3.285,3.285,0,0,1,3.285-3.285Z" fill="#fff"/>
        <path id="Path_1073" data-name="Path 1073" d="M198.628,36.576H40.352V31.13a3.1,3.1,0,0,1,3.1-3.1h152.59a2.543,2.543,0,0,1,2.543,2.543Z" fill="#ebebeb"/>
        <path id="Path_1074" data-name="Path 1074" d="M46.546,32.207a1.111,1.111,0,1,1-.325-.789A1.114,1.114,0,0,1,46.546,32.207Z" fill="#e0e0e0"/>
        <path id="Path_1075" data-name="Path 1075" d="M49.859,32.207a1.111,1.111,0,1,1-.324-.788A1.111,1.111,0,0,1,49.859,32.207Z" fill="#e0e0e0"/>
        <path id="Path_1076" data-name="Path 1076" d="M53.012,32.207a1.111,1.111,0,1,1-.325-.789A1.114,1.114,0,0,1,53.012,32.207Z" fill="#e0e0e0"/>
        <path id="Path_1077" data-name="Path 1077" d="M168.954,144.384c0,.051-21.9.091-48.917.091s-48.917-.041-48.917-.091,21.9-.091,48.921-.091S168.954,144.333,168.954,144.384Z" fill="#455a64"/>
        <rect id="Rectangle_221" data-name="Rectangle 221" width="36.156" height="74.774" transform="translate(40.352 48.619)" fill="#ebebeb"/>
        <rect id="Rectangle_222" data-name="Rectangle 222" width="36.156" height="23.822" transform="translate(40.352 71.073)" fill="#e0e0e0"/>
        <path id="Path_1078" data-name="Path 1078" d="M75.9,115.164c0,.051-7.942.088-17.733.088s-17.736-.037-17.736-.088,7.938-.088,17.736-.088S75.9,115.116,75.9,115.164Z" fill="#263238"/>
        <path id="Path_1079" data-name="Path 1079" d="M75.9,94.891c0,.051-7.942.088-17.733.088s-17.736-.037-17.736-.088,7.938-.088,17.736-.088S75.9,94.844,75.9,94.891Z" fill="#263238"/>
        <rect id="Rectangle_223" data-name="Rectangle 223" width="115.076" height="5.784" transform="translate(79.678 85.371)" fill="#e0e0e0"/>
        <rect id="Rectangle_224" data-name="Rectangle 224" width="115.076" height="22.159" transform="translate(79.678 60.676)" fill="#ebebeb"/>
        <rect id="Rectangle_225" data-name="Rectangle 225" width="158.276" height="12.043" transform="translate(40.352 36.573)" fill="#455a64"/>
        <path id="Path_1080" data-name="Path 1080" d="M50.048,41.4a19.687,19.687,0,0,1-2.659.088,19.644,19.644,0,0,1-2.655-.088,20.348,20.348,0,0,1,2.655-.088,20.377,20.377,0,0,1,2.659.088Z" fill="#fff"/>
        <path id="Path_1081" data-name="Path 1081" d="M50.048,42.594a19.686,19.686,0,0,1-2.659.088,19.642,19.642,0,0,1-2.655-.088,20.349,20.349,0,0,1,2.655-.088,20.377,20.377,0,0,1,2.659.088Z" fill="#fff"/>
        <path id="Path_1082" data-name="Path 1082" d="M50.048,43.79a20.377,20.377,0,0,1-2.659.088,20.346,20.346,0,0,1-2.655-.088A19.644,19.644,0,0,1,47.39,43.7a19.687,19.687,0,0,1,2.659.088Z" fill="#fff"/>
        <path id="Path_1083" data-name="Path 1083" d="M173.235,45.043H88.927a3,3,0,0,1-3-3h0a3,3,0,0,1,3-3h84.308a3,3,0,0,1,3,3h0A3,3,0,0,1,173.235,45.043Z" fill="#fafafa"/>
        <path id="Path_1084" data-name="Path 1084" d="M90.333,41.859c-.017,0-.017-.112-.075-.3a1.256,1.256,0,0,0-.461-.654,1.216,1.216,0,0,0-1.128-.156A1.185,1.185,0,1,0,89.8,42.811a1.25,1.25,0,0,0,.461-.65c.058-.19.058-.3.075-.3a.654.654,0,0,1,0,.315,1.243,1.243,0,0,1-.454.735,1.307,1.307,0,0,1-1.256.21,1.338,1.338,0,0,1,0-2.52,1.324,1.324,0,0,1,1.256.21,1.243,1.243,0,0,1,.454.735A.65.65,0,0,1,90.333,41.859Z" fill="#263238"/>
        <path id="Path_1085" data-name="Path 1085" d="M89.981,42.706c.034-.034.284.142.559.393s.467.488.437.525-.284-.142-.559-.393S89.95,42.743,89.981,42.706Z" fill="#263238"/>
        <rect id="Rectangle_226" data-name="Rectangle 226" width="122.123" height="9.114" transform="translate(76.508 48.619)" fill="#90caf9"/>
        <path id="Path_1086" data-name="Path 1086" d="M49.032,81.138H46.181V78.286h2.852ZM46.519,80.8h2.174V78.625H46.519Z" fill="#263238"/>
        <path id="Path_1087" data-name="Path 1087" d="M52.029,86.946H49.178V84.094h2.852Zm-2.513-.339h2.174V84.433H49.517Z" fill="#263238"/>
        <path id="Path_1088" data-name="Path 1088" d="M52.029,83.651H49.178V80.8h2.852Zm-2.513-.339h2.174V81.135H49.517Z" fill="#263238"/>
        <path id="Path_1089" data-name="Path 1089" d="M49.462,85.747H47.437V80.969h.339v4.44h1.687Z" fill="#263238"/>
        <rect id="Rectangle_227" data-name="Rectangle 227" width="1.741" height="0.339" transform="translate(47.606 82.411)" fill="#263238"/>
        <path id="Path_1090" data-name="Path 1090" d="M53.316,83.99l.132-.278a1.3,1.3,0,0,0,.83.291c.433,0,.62-.169.62-.389,0-.613-1.521-.227-1.521-1.158,0-.386.3-.718.962-.718a1.48,1.48,0,0,1,.806.224l-.119.288a1.266,1.266,0,0,0-.677-.207c-.427,0-.61.179-.61.4,0,.613,1.521.23,1.521,1.151,0,.383-.308.715-.972.715a1.5,1.5,0,0,1-.972-.318Z" fill="#263238"/>
        <path id="Path_1091" data-name="Path 1091" d="M55.663,81.775a.227.227,0,1,1,.225.227A.227.227,0,0,1,55.663,81.775Zm.061.589h.339v1.9h-.339Z" fill="#263238"/>
        <path id="Path_1092" data-name="Path 1092" d="M57.794,84.152a.647.647,0,0,1-.417.132.538.538,0,0,1-.6-.593V82.635h-.322v-.281h.322v-.4h.339v.417h.545v.261h-.545v1.016c0,.207.1.339.295.339a.437.437,0,0,0,.271-.091Z" fill="#263238"/>
        <path id="Path_1093" data-name="Path 1093" d="M59.853,83.427H58.312a.643.643,0,0,0,.677.555.711.711,0,0,0,.549-.227l.193.22a1.04,1.04,0,0,1-1.775-.677.931.931,0,0,1,.955-.965.918.918,0,0,1,.941.979A.327.327,0,0,1,59.853,83.427Zm-1.541-.247h1.219a.613.613,0,0,0-1.219,0Z" fill="#263238"/>
        <path id="Path_1094" data-name="Path 1094" d="M63.493,83.17v1.094h-.339V83.211c0-.373-.176-.555-.491-.555a.552.552,0,0,0-.569.63v.979h-.339V83.211c0-.373-.179-.555-.491-.555a.552.552,0,0,0-.569.63v.979h-.339v-1.9H60.7v.271a.765.765,0,0,1,.654-.3.7.7,0,0,1,.677.339.864.864,0,0,1,.732-.339.728.728,0,0,1,.735.833Z" fill="#263238"/>
        <path id="Path_1095" data-name="Path 1095" d="M65.634,83.116v1.148H65.3v-.251a.708.708,0,0,1-.627.271c-.43,0-.7-.227-.7-.559s.2-.555.762-.555h.545V83.1c0-.291-.166-.461-.508-.461a.969.969,0,0,0-.6.207l-.142-.257a1.256,1.256,0,0,1,.786-.244C65.339,82.347,65.634,82.6,65.634,83.116Zm-.339.569v-.268h-.528c-.339,0-.437.132-.437.295s.156.308.417.308a.549.549,0,0,0,.542-.335Z" fill="#263238"/>
        <path id="Path_1096" data-name="Path 1096" d="M68.241,83.312a.925.925,0,0,1-.962.972.809.809,0,0,1-.677-.308v.986h-.339v-2.6H66.6v.3a.8.8,0,0,1,.677-.318.921.921,0,0,1,.962.965Zm-.339,0a.64.64,0,1,0-.64.677.627.627,0,0,0,.63-.677Z" fill="#263238"/>
        <path id="Path_1097" data-name="Path 1097" d="M68.479,84.064l.142-.274a1.223,1.223,0,0,0,.677.2c.318,0,.45-.1.45-.261,0-.427-1.2-.058-1.2-.813,0-.339.3-.569.792-.569a1.409,1.409,0,0,1,.677.169l-.146.274a1,1,0,0,0-.552-.152c-.3,0-.447.112-.447.264,0,.447,1.206.081,1.206.82,0,.339-.315.562-.823.562A1.355,1.355,0,0,1,68.479,84.064Z" fill="#263238"/>
        <path id="Path_1098" data-name="Path 1098" d="M81.182,54.569l.139-.288a1.355,1.355,0,0,0,.857.3c.45,0,.643-.176.643-.4,0-.633-1.575-.234-1.575-1.2,0-.4.312-.742,1-.742a1.521,1.521,0,0,1,.833.23l-.122.3a1.334,1.334,0,0,0-.711-.213c-.444,0-.633.186-.633.413,0,.633,1.575.237,1.575,1.192,0,.4-.318.738-1.016.738a1.551,1.551,0,0,1-.986-.329Z" fill="#fff"/>
        <path id="Path_1099" data-name="Path 1099" d="M83.61,52.294a.24.24,0,0,1,.481,0,.234.234,0,0,1-.24.24.23.23,0,0,1-.24-.24Zm.061.606h.356v1.964h-.356Z" fill="#fff"/>
        <path id="Path_1100" data-name="Path 1100" d="M85.812,54.752a.677.677,0,0,1-.43.139.562.562,0,0,1-.623-.616v-1.08H84.42V52.9h.339v-.43H85.1v.43h.586v.295h-.566v1.063a.291.291,0,0,0,.308.339A.437.437,0,0,0,85.7,54.5Z" fill="#fff"/>
        <path id="Path_1101" data-name="Path 1101" d="M87.945,54H86.36a.677.677,0,0,0,.711.572.738.738,0,0,0,.569-.237l.2.23A1.07,1.07,0,0,1,86,53.892a.962.962,0,0,1,.986-1.016.945.945,0,0,1,.972,1.016A.638.638,0,0,0,87.945,54Zm-1.585-.257h1.26a.633.633,0,0,0-1.26,0Z" fill="#fff"/>
        <path id="Path_1102" data-name="Path 1102" d="M91.711,53.736v1.128h-.356V53.774c0-.386-.186-.576-.511-.576a.572.572,0,0,0-.589.65v1.016H89.9V53.774c0-.386-.186-.576-.508-.576a.572.572,0,0,0-.589.654v1.016h-.339V52.9H88.8v.295a.8.8,0,0,1,.677-.312.725.725,0,0,1,.677.362.884.884,0,0,1,.759-.362.755.755,0,0,1,.8.853Z" fill="#fff"/>
        <path id="Path_1103" data-name="Path 1103" d="M93.923,53.679v1.185h-.339V54.6a.735.735,0,0,1-.647.284c-.447,0-.728-.24-.728-.579s.2-.576.792-.576h.562v-.071c0-.3-.173-.474-.528-.474a1.016,1.016,0,0,0-.623.21l-.146-.268a1.307,1.307,0,0,1,.813-.251C93.618,52.883,93.923,53.14,93.923,53.679Zm-.356.586V53.99h-.549c-.339,0-.454.139-.454.3s.163.318.433.318a.569.569,0,0,0,.569-.349Z" fill="#fff"/>
        <path id="Path_1104" data-name="Path 1104" d="M96.618,53.885a.955.955,0,0,1-.992,1.016.84.84,0,0,1-.677-.339v1.016h-.356V52.9h.339v.312a.84.84,0,0,1,.7-.339.952.952,0,0,1,.986,1.013Zm-.359,0a.677.677,0,1,0-.677.677.65.65,0,0,0,.677-.677Z" fill="#fff"/>
        <path id="Path_1105" data-name="Path 1105" d="M96.859,54.661l.149-.284a1.27,1.27,0,0,0,.677.207c.339,0,.467-.1.467-.268,0-.444-1.243-.061-1.243-.843,0-.339.315-.589.82-.589a1.47,1.47,0,0,1,.718.176l-.152.284a1.016,1.016,0,0,0-.569-.156c-.312,0-.464.115-.464.271,0,.464,1.246.085,1.246.847,0,.359-.339.586-.85.586a1.439,1.439,0,0,1-.8-.23Z" fill="#fff"/>
        <path id="Path_1106" data-name="Path 1106" d="M88.8,68.38H87.3l-.308.7H86.58l1.27-2.808h.4l1.273,2.808H89.1Zm-.142-.322-.6-1.375-.61,1.389Z"/>
        <path id="Path_1107" data-name="Path 1107" d="M91.87,66.1v2.984H91.5v-.339a.9.9,0,0,1-.759.359,1.084,1.084,0,1,1,0-2.167.9.9,0,0,1,.742.339V66.108Zm-.383,1.913a.718.718,0,1,0-.715.752.7.7,0,0,0,.715-.752Z"/>
        <path id="Path_1108" data-name="Path 1108" d="M94.6,66.1v2.984h-.369v-.339a.894.894,0,0,1-.759.359,1.084,1.084,0,1,1,0-2.167.9.9,0,0,1,.742.339V66.108Zm-.383,1.913a.715.715,0,1,0-.711.752.7.7,0,0,0,.711-.752Z"/>
        <path id="Path_1109" data-name="Path 1109" d="M98.095,67.8v1.29h-.366v-.281a.789.789,0,0,1-.7.3c-.481,0-.786-.257-.786-.627s.22-.62.853-.62h.61v-.078c0-.322-.186-.511-.569-.511a1.09,1.09,0,0,0-.677.227l-.159-.288a1.416,1.416,0,0,1,.877-.271C97.766,66.938,98.095,67.215,98.095,67.8Zm-.386.633v-.295h-.593c-.379,0-.488.146-.488.339s.176.339.467.339a.616.616,0,0,0,.613-.383Z"/>
        <path id="Path_1110" data-name="Path 1110" d="M101.9,67.859v1.229h-.386V67.9c0-.417-.21-.623-.572-.623a.633.633,0,0,0-.677.708v1.1h-.386V66.965h.362v.318a.911.911,0,0,1,.765-.339.823.823,0,0,1,.894.914Z"/>
        <path id="Path_1111" data-name="Path 1111" d="M104.54,68.147h-1.724a.721.721,0,0,0,.772.623.792.792,0,0,0,.613-.257l.213.247a1.158,1.158,0,0,1-1.981-.742,1.036,1.036,0,0,1,1.067-1.08,1.016,1.016,0,0,1,1.05,1.094A.678.678,0,0,1,104.54,68.147Zm-1.724-.278h1.355a.677.677,0,1,0-1.355,0Z"/>
        <path id="Path_1112" data-name="Path 1112" d="M108.258,66.958l-.8,2.13h-.369l-.613-1.612-.62,1.612h-.369l-.789-2.123h.362l.62,1.693.64-1.693h.339l.63,1.693.633-1.693Z"/>
        <path id="Path_1113" data-name="Path 1113" d="M109.454,68.858l.163-.3a1.355,1.355,0,0,0,.745.22c.356,0,.5-.108.5-.288,0-.478-1.355-.064-1.355-.911,0-.383.339-.637.884-.637a1.575,1.575,0,0,1,.776.19l-.166.3a1.124,1.124,0,0,0-.613-.166c-.339,0-.5.122-.5.291,0,.5,1.355.091,1.355.918,0,.386-.339.63-.918.63a1.565,1.565,0,0,1-.874-.247Z"/>
        <path id="Path_1114" data-name="Path 1114" d="M111.665,66.3a.261.261,0,1,1,.261.251.254.254,0,0,1-.261-.251Zm.068.677h.386v2.113h-.386Z"/>
        <path id="Path_1115" data-name="Path 1115" d="M114.046,68.956a.711.711,0,0,1-.464.149.606.606,0,0,1-.677-.677V67.259h-.362v-.315h.362v-.467h.383v.467h.61v.315h-.61v1.151a.315.315,0,0,0,.339.356.471.471,0,0,0,.3-.1Z"/>
        <path id="Path_1116" data-name="Path 1116" d="M116.353,68.147h-1.727a.725.725,0,0,0,.772.623.793.793,0,0,0,.613-.257l.213.247a1.158,1.158,0,0,1-1.981-.742,1.04,1.04,0,0,1,1.067-1.08,1.016,1.016,0,0,1,1.05,1.094C116.359,68.072,116.356,68.113,116.353,68.147Zm-1.727-.278h1.355a.677.677,0,1,0-1.355,0Z"/>
        <path id="Path_1117" data-name="Path 1117" d="M120.42,67.859v1.229h-.383V67.9c0-.417-.2-.623-.552-.623a.62.62,0,0,0-.637.708v1.1h-.386V67.9c0-.417-.2-.623-.549-.623a.62.62,0,0,0-.637.708v1.1h-.386V66.965h.369v.315a.86.86,0,0,1,.735-.339.782.782,0,0,1,.738.393.955.955,0,0,1,.816-.393.813.813,0,0,1,.87.918Z"/>
        <path id="Path_1118" data-name="Path 1118" d="M122.814,67.8v1.29h-.366v-.281a.789.789,0,0,1-.7.3c-.481,0-.786-.257-.786-.627s.22-.62.853-.62h.61v-.078c0-.322-.19-.511-.569-.511a1.084,1.084,0,0,0-.677.227l-.159-.288a1.409,1.409,0,0,1,.877-.271C122.486,66.938,122.814,67.215,122.814,67.8Zm-.386.633v-.295h-.593c-.383,0-.491.146-.491.339s.179.339.471.339a.616.616,0,0,0,.613-.383Z"/>
        <path id="Path_1119" data-name="Path 1119" d="M125.727,68.018a1.016,1.016,0,0,1-1.074,1.087.9.9,0,0,1-.742-.339v1.1h-.386v-2.9h.369V67.3a.908.908,0,0,1,.759-.339,1.016,1.016,0,0,1,1.074,1.053Zm-.386,0a.718.718,0,1,0-.718.752.7.7,0,0,0,.718-.752Z"/>
        <path id="Path_1120" data-name="Path 1120" d="M76.508,123.39c-.051,0-.088-16.5-.088-36.861s.037-36.861.088-36.861.088,16.5.088,36.861S76.556,123.39,76.508,123.39Z" fill="#263238"/>
        <path id="Path_1121" data-name="Path 1121" d="M86.658,74.734l.122-.23a1.043,1.043,0,0,0,.569.166c.271,0,.386-.081.386-.22,0-.362-1.016-.047-1.016-.694,0-.288.261-.484.677-.484a1.175,1.175,0,0,1,.589.146l-.125.234a.843.843,0,0,0-.467-.129c-.257,0-.383.095-.383.224,0,.383,1.016.071,1.016.7,0,.291-.271.478-.7.478a1.162,1.162,0,0,1-.667-.19Z"/>
        <path id="Path_1122" data-name="Path 1122" d="M88.345,72.783a.213.213,0,1,1,.2.19.19.19,0,0,1-.2-.19Zm.051.5h.295v1.622h-.3Z"/>
        <path id="Path_1123" data-name="Path 1123" d="M90.16,74.812a.545.545,0,0,1-.356.112.464.464,0,0,1-.515-.508v-.887h-.274v-.244h.274v-.339h.295v.339h.464v.244h-.464v.877a.237.237,0,0,0,.254.271.383.383,0,0,0,.23-.075Z"/>
        <path id="Path_1124" data-name="Path 1124" d="M91.918,74.2H90.6a.549.549,0,0,0,.586.474.613.613,0,0,0,.471-.2l.159.19a.884.884,0,0,1-1.51-.566.792.792,0,0,1,.813-.826.779.779,0,0,1,.8.833A.9.9,0,0,1,91.918,74.2ZM90.6,73.982h1.04a.522.522,0,0,0-1.04,0Z"/>
        <path id="Path_1125" data-name="Path 1125" d="M95.023,73.975v.931h-.295v-.9c0-.318-.152-.474-.417-.474a.474.474,0,0,0-.488.538v.837H93.53v-.9c0-.318-.152-.474-.42-.474a.471.471,0,0,0-.484.538v.837h-.295V73.284h.281v.244a.677.677,0,0,1,.562-.257.6.6,0,0,1,.562.3.732.732,0,0,1,.623-.3.62.62,0,0,1,.664.7Z"/>
        <path id="Path_1126" data-name="Path 1126" d="M96.859,73.928v.979h-.278v-.213a.6.6,0,0,1-.532.23c-.369,0-.6-.193-.6-.474s.166-.474.65-.474h.464v-.061c0-.247-.142-.389-.433-.389a.833.833,0,0,0-.515.173l-.122-.22a1.077,1.077,0,0,1,.677-.207A.608.608,0,0,1,96.859,73.928Zm-.295.484v-.227h-.45c-.291,0-.376.112-.376.251s.135.264.359.264a.467.467,0,0,0,.457-.288Z"/>
        <path id="Path_1127" data-name="Path 1127" d="M99.074,74.1a.789.789,0,0,1-.823.826.7.7,0,0,1-.566-.261V75.5h-.291V73.284h.281v.257a.677.677,0,0,1,.576-.271.789.789,0,0,1,.823.826Zm-.3,0a.549.549,0,1,0-.549.572.535.535,0,0,0,.549-.572Z"/>
        <path id="Path_1128" data-name="Path 1128" d="M99.118,74.906h1.531v.19H99.118Z"/>
        <path id="Path_1129" data-name="Path 1129" d="M100.872,72.783a.2.2,0,0,1,.2-.193.193.193,0,1,1-.2.193Zm.054.5h.291v1.622h-.295Z"/>
        <path id="Path_1130" data-name="Path 1130" d="M103.317,73.975v.931h-.295v-.9c0-.318-.159-.474-.437-.474a.484.484,0,0,0-.515.538v.837h-.291V73.284h.281v.247a.677.677,0,0,1,.583-.261.63.63,0,0,1,.674.7Z"/>
        <path id="Path_1131" data-name="Path 1131" d="M105.4,72.637v2.269h-.281v-.257a.677.677,0,0,1-.579.274.826.826,0,1,1,0-1.653.677.677,0,0,1,.566.261v-.894Zm-.291,1.46a.545.545,0,1,0-.545.572.532.532,0,0,0,.545-.572Z"/>
        <path id="Path_1132" data-name="Path 1132" d="M107.415,74.2H106.1a.549.549,0,0,0,.586.474.6.6,0,0,0,.467-.2l.163.19a.884.884,0,0,1-1.51-.566.792.792,0,0,1,.813-.826.782.782,0,0,1,.8.833A.9.9,0,0,1,107.415,74.2Zm-1.314-.213h1.04a.522.522,0,0,0-1.04,0Z"/>
        <path id="Path_1133" data-name="Path 1133" d="M108.817,74.906l-.471-.62-.474.62h-.339l.64-.83-.61-.792h.339l.447.586.444-.586h.322l-.613.792.647.83Z"/>
        <path id="Path_1134" data-name="Path 1134" d="M109.332,74.713a.2.2,0,0,1,.21-.207.2.2,0,0,1,.2.207.2.2,0,0,1-.2.21.207.207,0,0,1-.21-.21Z"/>
        <path id="Path_1135" data-name="Path 1135" d="M111.2,74.906l-.454-.62-.474.62h-.339l.64-.83-.61-.792h.339l.447.586.444-.586h.339l-.613.792.647.83Z"/>
        <path id="Path_1136" data-name="Path 1136" d="M114.544,73.975v.931h-.295v-.9c0-.318-.152-.474-.417-.474a.474.474,0,0,0-.488.538v.837h-.295v-.9c0-.318-.152-.474-.417-.474a.474.474,0,0,0-.488.538v.837h-.295V73.284h.281v.244a.677.677,0,0,1,.562-.257.6.6,0,0,1,.562.3.732.732,0,0,1,.623-.3.62.62,0,0,1,.664.7Z"/>
        <path id="Path_1137" data-name="Path 1137" d="M115.086,72.637h.291v2.269h-.291Z"/>
        <path id="Path_1138" data-name="Path 1138" d="M86.634,89.029l.088-.163a.731.731,0,0,0,.4.115c.19,0,.268-.058.268-.152,0-.257-.718-.034-.718-.488,0-.2.183-.339.474-.339a.819.819,0,0,1,.413.1l-.088.163a.579.579,0,0,0-.339-.091c-.183,0-.271.068-.271.159,0,.268.721.047.721.491,0,.2-.19.339-.491.339A.826.826,0,0,1,86.634,89.029Z"/>
        <path id="Path_1139" data-name="Path 1139" d="M87.816,87.661a.135.135,0,0,1,.139-.135.132.132,0,0,1,.139.129.139.139,0,0,1-.278.007Zm.037.339h.2v1.135h-.207Z"/>
        <path id="Path_1140" data-name="Path 1140" d="M89.09,89.07a.4.4,0,0,1-.251.078.339.339,0,0,1-.359-.339v-.623h-.193v-.169h.193v-.251h.207v.251h.339v.169h-.339V88.8a.169.169,0,0,0,.176.193.268.268,0,0,0,.163-.054Z"/>
        <path id="Path_1141" data-name="Path 1141" d="M90.323,88.65h-.914a.383.383,0,0,0,.41.339.434.434,0,0,0,.339-.139l.115.132a.62.62,0,0,1-1.06-.4.555.555,0,0,1,.569-.579.549.549,0,0,1,.562.586C90.326,88.6,90.323,88.629,90.323,88.65ZM89.4,88.5h.728a.356.356,0,0,0-.366-.339.339.339,0,0,0-.356.339Z"/>
        <path id="Path_1142" data-name="Path 1142" d="M92.5,88.494v.654H92.29v-.63c0-.224-.1-.339-.291-.339a.339.339,0,0,0-.339.376v.586h-.22v-.63c0-.224-.108-.339-.295-.339a.339.339,0,0,0-.339.376v.586H90.6V88h.2v.169a.454.454,0,0,1,.393-.183.427.427,0,0,1,.4.213.511.511,0,0,1,.437-.213.437.437,0,0,1,.474.508Z"/>
        <path id="Path_1143" data-name="Path 1143" d="M93.774,88.463v.677h-.193v-.149a.423.423,0,0,1-.373.163c-.257,0-.423-.139-.423-.339s.119-.339.457-.339h.339v-.041c0-.173-.1-.274-.3-.274a.582.582,0,0,0-.362.122l-.085-.156a.779.779,0,0,1,.471-.146.423.423,0,0,1,.474.481Zm-.2.339v-.159h-.318c-.2,0-.261.078-.261.176s.095.183.251.183a.339.339,0,0,0,.328-.2Z"/>
        <path id="Path_1144" data-name="Path 1144" d="M95.331,88.578a.549.549,0,0,1-.572.583.471.471,0,0,1-.4-.186v.589H94.15V88.013h.2v.179A.478.478,0,0,1,94.752,88a.552.552,0,0,1,.579.579Zm-.207,0a.383.383,0,1,0-.383.4.376.376,0,0,0,.383-.4Z"/>
        <path id="Path_1145" data-name="Path 1145" d="M95.362,89.147h1.074v.132H95.362Z"/>
        <path id="Path_1146" data-name="Path 1146" d="M96.595,87.661a.139.139,0,1,1,.139.132.132.132,0,0,1-.139-.132Zm.034.339h.207v1.135h-.207Z"/>
        <path id="Path_1147" data-name="Path 1147" d="M98.3,88.494v.654h-.2v-.63c0-.224-.112-.339-.308-.339a.339.339,0,0,0-.359.376v.586h-.207V88.006h.2v.169a.491.491,0,0,1,.41-.183.44.44,0,0,1,.471.5Z"/>
        <path id="Path_1148" data-name="Path 1148" d="M99.765,87.556v1.592h-.2v-.179a.478.478,0,0,1-.406.193.583.583,0,0,1,0-1.162.481.481,0,0,1,.4.183v-.627Zm-.2,1.016a.383.383,0,1,0-.383.383A.383.383,0,0,0,99.561,88.572Z"/>
        <path id="Path_1149" data-name="Path 1149" d="M101.177,88.65h-.931a.383.383,0,0,0,.41.339.433.433,0,0,0,.339-.139l.115.132a.62.62,0,0,1-1.06-.4.555.555,0,0,1,.569-.579.549.549,0,0,1,.562.586.435.435,0,0,1,0,.058Zm-.921-.149h.728a.366.366,0,0,0-.728,0Z"/>
        <path id="Path_1150" data-name="Path 1150" d="M102.159,89.147l-.339-.433-.339.433h-.22l.447-.579-.427-.555h.23l.312.41.312-.41h.227l-.423.555.454.579Z"/>
        <path id="Path_1151" data-name="Path 1151" d="M102.518,89.012a.146.146,0,0,1,.146-.146.149.149,0,0,1,0,.295.146.146,0,0,1-.146-.149Z"/>
        <path id="Path_1152" data-name="Path 1152" d="M103.825,89.147l-.339-.433-.339.433h-.23l.45-.579-.413-.555h.23l.312.41.312-.41h.224l-.427.555.45.579Z"/>
        <path id="Path_1153" data-name="Path 1153" d="M106.172,88.494v.654h-.207v-.63c0-.224-.108-.339-.295-.339a.339.339,0,0,0-.339.376v.586h-.2v-.63c0-.224-.108-.339-.295-.339a.339.339,0,0,0-.339.376v.586h-.207V88h.2v.169a.454.454,0,0,1,.393-.183.42.42,0,0,1,.393.213.511.511,0,0,1,.437-.213.437.437,0,0,1,.461.508Z"/>
        <path id="Path_1154" data-name="Path 1154" d="M106.548,87.556h.207v1.592h-.207Z"/>
        <path id="Path_1155" data-name="Path 1155" d="M148.336,89.022l.085-.163a.742.742,0,0,0,.4.119c.19,0,.271-.058.271-.156,0-.254-.718-.034-.718-.488,0-.2.18-.339.474-.339a.83.83,0,0,1,.413.1l-.088.163a.616.616,0,0,0-.339-.088c-.179,0-.268.064-.268.156,0,.268.721.047.721.491,0,.207-.19.339-.491.339A.826.826,0,0,1,148.336,89.022Z"/>
        <path id="Path_1156" data-name="Path 1156" d="M149.5,87.654a.139.139,0,0,1,.142-.135.135.135,0,1,1-.142.135Zm.037.339h.207V89.13h-.207Z"/>
        <path id="Path_1157" data-name="Path 1157" d="M150.771,89.07a.379.379,0,0,1-.247.078.339.339,0,0,1-.359-.356v-.623h-.2V88h.2v-.251h.2V88h.339v.169h-.339v.616a.166.166,0,0,0,.179.19.251.251,0,0,0,.159-.054Z"/>
        <path id="Path_1158" data-name="Path 1158" d="M152,88.643h-.921a.383.383,0,0,0,.41.339.42.42,0,0,0,.339-.135l.115.132a.579.579,0,0,1-.447.183.569.569,0,0,1-.613-.579.555.555,0,0,1,.572-.579.545.545,0,0,1,.559.586.389.389,0,0,1-.014.054Zm-.921-.149h.728a.366.366,0,0,0-.728,0Z"/>
        <path id="Path_1159" data-name="Path 1159" d="M154.178,88.487v.657h-.2v-.633c0-.224-.108-.339-.295-.339a.339.339,0,0,0-.339.379v.586h-.207V88.5c0-.224-.1-.339-.291-.339a.339.339,0,0,0-.339.379v.586H152.3V87.993h.2v.169a.457.457,0,0,1,.389-.179.42.42,0,0,1,.4.21.508.508,0,0,1,.437-.21.433.433,0,0,1,.457.5Z"/>
        <path id="Path_1160" data-name="Path 1160" d="M155.448,88.457v.677h-.2v-.152a.413.413,0,0,1-.373.163c-.257,0-.42-.135-.42-.339s.119-.339.457-.339h.339v-.041c0-.173-.1-.274-.3-.274a.572.572,0,0,0-.359.122l-.088-.152a.759.759,0,0,1,.471-.146A.438.438,0,0,1,155.448,88.457Zm-.207.339v-.159h-.318c-.2,0-.261.081-.261.176s.095.183.251.183a.339.339,0,0,0,.339-.2Z"/>
        <path id="Path_1161" data-name="Path 1161" d="M157.016,88.575a.552.552,0,0,1-.576.579.488.488,0,0,1-.4-.183v.586h-.207V88.006h.2v.179a.494.494,0,0,1,.406-.19.552.552,0,0,1,.576.579Zm-.21,0a.383.383,0,1,0-.383.4.376.376,0,0,0,.379-.4Z"/>
        <path id="Path_1162" data-name="Path 1162" d="M157.839,87.654a.135.135,0,1,1,.134.135.136.136,0,0,1-.134-.135Zm.037.339h.207V89.13h-.207Z"/>
        <path id="Path_1163" data-name="Path 1163" d="M159.553,88.487v.657h-.207v-.633c0-.224-.112-.339-.308-.339a.339.339,0,0,0-.359.379v.586h-.207V88h.2v.173a.484.484,0,0,1,.41-.183.44.44,0,0,1,.474.5Z"/>
        <path id="Path_1164" data-name="Path 1164" d="M161.009,87.552v1.592h-.2v-.183a.478.478,0,0,1-.406.193.579.579,0,1,1,0-1.158.488.488,0,0,1,.4.183v-.627Zm-.2,1.016a.383.383,0,1,0-.383.4.376.376,0,0,0,.383-.393Z"/>
        <path id="Path_1165" data-name="Path 1165" d="M162.421,88.643H161.5a.386.386,0,0,0,.413.339.417.417,0,0,0,.339-.135l.115.132a.605.605,0,0,1-1.06-.4A.555.555,0,0,1,161.88,88a.549.549,0,0,1,.562.586.42.42,0,0,1-.02.054Zm-.921-.149h.721a.366.366,0,0,0-.728,0Z"/>
        <path id="Path_1166" data-name="Path 1166" d="M163.4,89.144l-.339-.437-.339.437h-.23l.447-.583-.427-.555h.23l.315.41.308-.41h.227l-.43.555.454.583Z"/>
        <path id="Path_1167" data-name="Path 1167" d="M169.334,88.971l.078-.166a.786.786,0,0,0,.494.173c.261,0,.373-.1.373-.234,0-.366-.911-.135-.911-.677,0-.234.183-.43.576-.43a.9.9,0,0,1,.484.132l-.071.173a.776.776,0,0,0-.413-.122c-.254,0-.362.108-.362.237,0,.369.908.139.908.677,0,.227-.183.427-.583.427a.884.884,0,0,1-.572-.19Z" fill="#90caf9"/>
        <path id="Path_1168" data-name="Path 1168" d="M171.84,88.006v1.138h-.2v-.173a.454.454,0,0,1-.386.183.447.447,0,0,1-.488-.494v-.654h.207v.63c0,.224.112.339.3.339a.339.339,0,0,0,.339-.379v-.586Z" fill="#90caf9"/>
        <path id="Path_1169" data-name="Path 1169" d="M172.124,88.575a.569.569,0,0,1,.6-.579.5.5,0,0,1,.461.24l-.156.1a.339.339,0,0,0-.308-.163.4.4,0,1,0,0,.8.339.339,0,0,0,.308-.163l.156.1a.5.5,0,0,1-.461.244.569.569,0,0,1-.6-.579Z" fill="#90caf9"/>
        <path id="Path_1170" data-name="Path 1170" d="M174.461,88.643h-.925a.386.386,0,0,0,.413.339.43.43,0,0,0,.339-.135l.112.132a.62.62,0,0,1-1.06-.4.555.555,0,0,1,.572-.579.549.549,0,0,1,.562.586A.086.086,0,0,0,174.461,88.643Zm-.925-.149h.732a.369.369,0,0,0-.732,0Z" fill="#90caf9"/>
        <path id="Path_1171" data-name="Path 1171" d="M174.6,89.022l.088-.163a.732.732,0,0,0,.4.119c.193,0,.271-.058.271-.156,0-.254-.718-.034-.718-.488,0-.2.183-.339.474-.339a.819.819,0,0,1,.413.1l-.088.163a.606.606,0,0,0-.339-.088c-.18,0-.268.064-.268.156,0,.268.721.047.721.491,0,.207-.19.339-.491.339A.826.826,0,0,1,174.6,89.022Z" fill="#90caf9"/>
        <path id="Path_1172" data-name="Path 1172" d="M175.677,89.022l.085-.163a.752.752,0,0,0,.4.119c.193,0,.271-.058.271-.156,0-.254-.718-.034-.718-.488,0-.2.183-.339.474-.339a.83.83,0,0,1,.413.1l-.088.163a.606.606,0,0,0-.339-.088c-.18,0-.268.064-.268.156,0,.268.721.047.721.491,0,.207-.19.339-.491.339A.826.826,0,0,1,175.677,89.022Z" fill="#90caf9"/>
        <path id="Path_1173" data-name="Path 1173" d="M180.561,76.305H163.177a4.2,4.2,0,0,1-4.2-4.2h0a4.2,4.2,0,0,1,4.2-4.2h17.384a4.2,4.2,0,0,1,4.2,4.2h0A4.2,4.2,0,0,1,180.561,76.305Z" fill="#90caf9"/>
        <path id="Path_1174" data-name="Path 1174" d="M166.133,72.736l.129-.291a1.124,1.124,0,0,0,.677.22c.312,0,.444-.112.444-.261,0-.433-1.2-.149-1.2-.9,0-.339.257-.6.809-.6a1.27,1.27,0,0,1,.677.179l-.119.291a1.094,1.094,0,0,0-.552-.159c-.312,0-.44.122-.44.274,0,.427,1.2.149,1.2.887,0,.322-.261.6-.813.6a1.307,1.307,0,0,1-.813-.24Z" fill="#fff"/>
        <path id="Path_1175" data-name="Path 1175" d="M168.1,72.068V70.934h.373v1.121c0,.413.186.593.511.593s.511-.179.511-.593V70.934h.369v1.135a.884.884,0,1,1-1.764,0Z" fill="#fff"/>
        <path id="Path_1176" data-name="Path 1176" d="M172.175,72.4c0,.339-.271.545-.789.545H170.37V70.934h.945c.484,0,.742.2.742.522a.484.484,0,0,1-.257.444.5.5,0,0,1,.376.5Zm-1.419-1.175V71.8h.532c.257,0,.406-.091.406-.274s-.149-.281-.406-.281Zm1.04,1.138c0-.2-.152-.291-.434-.291h-.606v.583h.61c.278,0,.43-.091.43-.291Z" fill="#fff"/>
        <path id="Path_1177" data-name="Path 1177" d="M174.414,72.946V71.611l-.677,1.107h-.166l-.677-1.091v1.317h-.356V70.934h.308l.8,1.334.786-1.334h.308v2.012Z" fill="#fff"/>
        <path id="Path_1178" data-name="Path 1178" d="M175.321,70.934h.376v2.012h-.376Z" fill="#fff"/>
        <path id="Path_1179" data-name="Path 1179" d="M176.649,71.249h-.677v-.315h1.693v.315h-.677v1.693h-.339Z" fill="#fff"/>
        <rect id="Rectangle_228" data-name="Rectangle 228" width="13.367" height="15.734" transform="translate(124.999 105.874)" fill="#90caf9"/>
        <rect id="Rectangle_229" data-name="Rectangle 229" width="13.367" height="11.332" transform="translate(141.414 110.277)" fill="#e0e0e0"/>
        <rect id="Rectangle_230" data-name="Rectangle 230" width="13.367" height="23.642" transform="translate(92.172 97.966)" fill="#90caf9"/>
        <rect id="Rectangle_231" data-name="Rectangle 231" width="13.367" height="27.92" transform="translate(108.587 93.689)" fill="#e0e0e0"/>
        <rect id="Rectangle_232" data-name="Rectangle 232" width="13.367" height="5.666" transform="translate(157.829 115.943)" fill="#90caf9"/>
        <rect id="Rectangle_233" data-name="Rectangle 233" width="13.367" height="17.421" transform="translate(174.241 104.188)" fill="#e0e0e0"/>
        <path id="Path_1180" data-name="Path 1180" d="M191.164,93.689h-1.111l-3.187.017-11.721.027-38.662.044L97.8,93.75l-11.721-.027-3.187-.017h0l3.187-.017L97.8,93.662l38.683-.064,38.676.027,11.721.027,3.187.017h1.043C191.14,93.686,191.168,93.686,191.164,93.689Z"/>
        <path id="Path_1181" data-name="Path 1181" d="M191.164,100.94h-4.3l-11.721.027-38.676.027-38.683-.027-11.721-.027H82.879l3.187-.017,11.721-.03,38.7-.041,38.676.024,11.721.03,3.187.017h1.043C191.14,100.923,191.168,100.923,191.164,100.94Z"/>
        <path id="Path_1182" data-name="Path 1182" d="M191.164,108.191h-4.3l-11.721.03-38.676.024-38.683-.024-11.721-.03H82.879l3.187-.017,11.721-.027,38.7-.044,38.676.027,11.721.027,3.187.017h1.111Z"/>
        <path id="Path_1183" data-name="Path 1183" d="M191.164,115.445h-1.111l-3.187.017-11.721.027-38.676.027-38.683-.027-11.721,0-3.187-.017h3.187l11.721-.03,38.7-.081,38.676.024,11.721.03h4.23C191.14,115.442,191.168,115.442,191.164,115.445Z"/>
        <path id="Path_1184" data-name="Path 1184" d="M190.842,121.609h-1.107l-3.177.017-11.687.027-38.561.027-38.567-.027-11.691-.027-3.177-.017h3.177l11.691-.03,38.567-.024,38.561.024,11.687.03h4.216C190.819,121.605,190.846,121.605,190.842,121.609Z"/>
        <path id="Path_1185" data-name="Path 1185" d="M83.776,117.518v.163h-.921v-.125l.522-.5c.135-.132.163-.213.163-.295,0-.132-.095-.213-.274-.213a.4.4,0,0,0-.339.142l-.125-.108a.593.593,0,0,1,.471-.2c.268,0,.44.139.44.359a.522.522,0,0,1-.21.4l-.383.376Z"/>
        <path id="Path_1186" data-name="Path 1186" d="M83.922,117.026c0-.417.224-.657.525-.657s.522.24.522.657-.224.657-.522.657S83.922,117.446,83.922,117.026Zm.864,0c0-.339-.139-.494-.339-.494s-.339.166-.339.494.139.494.339.494S84.785,117.355,84.785,117.026Z"/>
        <path id="Path_1187" data-name="Path 1187" d="M85.144,117.026c0-.417.227-.657.525-.657s.525.24.525.657-.224.657-.525.657S85.144,117.446,85.144,117.026Zm.867,0c0-.339-.142-.494-.339-.494s-.339.166-.339.494.139.494.339.494.349-.166.349-.494Z"/>
        <path id="Path_1188" data-name="Path 1188" d="M83.99,109.959h-.244v.318h-.179v-.318h-.715v-.125l.657-.843h.2l-.63.813h.494v-.281h.173v.281h.244Z"/>
        <path id="Path_1189" data-name="Path 1189" d="M84.1,109.633c0-.42.224-.657.525-.657s.522.237.522.657-.224.657-.522.657S84.1,110.067,84.1,109.633Zm.864,0c0-.339-.139-.494-.339-.494s-.339.166-.339.494.142.494.339.494S84.965,109.962,84.965,109.633Z"/>
        <path id="Path_1190" data-name="Path 1190" d="M85.344,109.633c0-.42.224-.657.522-.657s.525.237.525.657-.224.657-.525.657S85.344,110.067,85.344,109.633Zm.864,0c0-.339-.139-.494-.339-.494s-.339.166-.339.494.139.494.339.494.322-.166.322-.494Z"/>
        <path id="Path_1191" data-name="Path 1191" d="M83.868,103a.413.413,0,0,1-.454.4c-.339,0-.538-.23-.538-.64a.593.593,0,0,1,.606-.677.586.586,0,0,1,.318.078l-.068.142a.454.454,0,0,0-.247-.061c-.261,0-.427.163-.427.484a.24.24,0,0,0,0,.047.417.417,0,0,1,.366-.169.4.4,0,0,1,.444.393Zm-.176,0c0-.152-.115-.247-.295-.247A.268.268,0,0,0,83.1,103c0,.132.1.247.3.247a.254.254,0,0,0,.284-.24Z"/>
        <path id="Path_1192" data-name="Path 1192" d="M84.006,102.745c0-.417.224-.657.525-.657s.522.24.522.657-.224.657-.522.657S84.006,103.165,84.006,102.745Zm.864,0c0-.339-.139-.491-.339-.491s-.339.163-.339.491.139.494.339.494S84.87,103.073,84.87,102.745Z"/>
        <path id="Path_1193" data-name="Path 1193" d="M85.229,102.745c0-.417.224-.657.525-.657s.525.24.525.657-.224.657-.525.657S85.229,103.165,85.229,102.745Zm.864,0c0-.339-.139-.491-.339-.491s-.339.163-.339.491.139.494.339.494S86.093,103.073,86.093,102.745Z"/>
        <path id="Path_1194" data-name="Path 1194" d="M83.888,95.569c0,.234-.2.379-.511.379s-.508-.146-.508-.379a.339.339,0,0,1,.224-.312.291.291,0,0,1-.179-.274c0-.217.186-.339.464-.339s.464.132.464.339a.291.291,0,0,1-.179.274A.339.339,0,0,1,83.888,95.569Zm-.183,0c0-.139-.125-.227-.339-.227s-.339.088-.339.227.122.237.339.237.339-.1.339-.244ZM83.1,95c0,.125.1.207.281.207s.284-.081.284-.207-.112-.207-.284-.207-.281.071-.281.2Z"/>
        <path id="Path_1195" data-name="Path 1195" d="M84.057,95.291c0-.42.224-.657.525-.657s.522.237.522.657-.224.657-.522.657S84.057,95.707,84.057,95.291Zm.864,0c0-.339-.139-.494-.339-.494s-.339.166-.339.494.139.491.339.491S84.921,95.619,84.921,95.291Z"/>
        <path id="Path_1196" data-name="Path 1196" d="M85.28,95.291c0-.42.224-.657.525-.657s.522.237.522.657-.224.657-.522.657S85.28,95.707,85.28,95.291Zm.864,0c0-.339-.139-.494-.339-.494s-.339.166-.339.494.139.491.339.491S86.143,95.619,86.143,95.291Z"/>
        <rect id="Rectangle_234" data-name="Rectangle 234" width="0.765" height="1.494" transform="translate(186.281 87.847)" fill="#90caf9"/>
        <rect id="Rectangle_235" data-name="Rectangle 235" width="0.765" height="2.222" transform="translate(187.54 87.119)" fill="#90caf9"/>
        <rect id="Rectangle_236" data-name="Rectangle 236" width="0.765" height="2.618" transform="translate(188.8 86.723)" fill="#90caf9"/>
        <path id="Path_1197" data-name="Path 1197" d="M76.3,71.073c0,.047-8.091.088-18.068.088s-18.071-.041-18.071-.088,8.087-.088,18.071-.088S76.3,71.022,76.3,71.073Z" fill="#263238"/>
        <path id="Path_1198" data-name="Path 1198" d="M76.234,48.619c0,.047-8.033.088-17.949.088s-17.949-.041-17.949-.088,8.03-.091,17.949-.091S76.234,48.568,76.234,48.619Z" fill="#263238"/>
        <path id="Path_1199" data-name="Path 1199" d="M79.631,42.594c0,.051-5.551.088-12.4.088s-12.4-.037-12.4-.088,5.551-.088,12.4-.088S79.631,42.547,79.631,42.594Z" fill="#fff"/>
        <path id="Path_1200" data-name="Path 1200" d="M82.865,87.942l.975,1.385.85-1.385Z" fill="#ebebeb"/>
        <path id="Path_1201" data-name="Path 1201" d="M70.4,60.676c0,.047-3.857.088-8.616.088s-8.616-.041-8.616-.088,3.857-.088,8.616-.088S70.4,60.621,70.4,60.676Z" fill="#263238"/>
        <path id="Path_1202" data-name="Path 1202" d="M49.032,62.1H46.181V59.267h2.852Zm-2.513-.339h2.174V59.605H46.519Z" fill="#263238"/>
        <path id="Path_1203" data-name="Path 1203" d="M70.4,105.437c0,.047-3.857.088-8.616.088s-8.616-.041-8.616-.088,3.857-.088,8.616-.088S70.4,105.39,70.4,105.437Z" fill="#263238"/>
        <path id="Path_1204" data-name="Path 1204" d="M49.032,106.863H46.181v-2.852h2.852Zm-2.513-.339h2.174V104.35H46.519Z" fill="#263238"/>
      </g>
      <g id="freepik--Plant--inject-434">
        <path id="Path_1205" data-name="Path 1205" d="M26.833,125.385v-3.8c-4.741,0-3.945-2.929-3.945-12.67,0-6.689.21-10.241-2.465-10.241-2.469,0-3.048,1.734-3.048,9.347C17.36,122.123,19.24,125.385,26.833,125.385Z" fill="#90caf9"/>
        <path id="Path_1206" data-name="Path 1206" d="M31.77,137.133v-3.8c4.741,0,3.945-2.926,3.945-12.67,0-6.689-.21-10.238,2.465-10.238,2.469,0,3.048,1.734,3.048,9.344C41.243,133.872,39.36,137.133,31.77,137.133Z" fill="#90caf9"/>
        <g id="Group_46" data-name="Group 46" opacity="0.3">
          <path id="Path_1207" data-name="Path 1207" d="M33.43,133.161l.738,3.83-1.29.115-.19-3.813Z"/>
        </g>
        <path id="Path_1208" data-name="Path 1208" d="M29.43,86.662c-3.749,0-3.471,4.907-3.471,10.915v47.772H32.9V97.577C32.9,91.569,33.189,86.662,29.43,86.662Z" fill="#90caf9"/>
        <path id="Path_1209" data-name="Path 1209" d="M29.43,86.662c-3.749,0-3.471,4.907-3.471,10.915v47.772H32.9V97.577C32.9,91.569,33.189,86.662,29.43,86.662Z" fill="#90caf9"/>
        <path id="Path_1210" data-name="Path 1210" d="M27.412,145.5v-2.327c0-1.5.02-3.668.037-6.336.051-5.358.122-12.747.2-20.906s.186-15.552.251-20.909c.017-1.338.03-2.55.112-3.614a17.611,17.611,0,0,1,.386-2.709,10.99,10.99,0,0,1,.511-1.646c.071-.186.139-.318.179-.413l.068-.135a1.521,1.521,0,0,1-.051.146c-.034.095-.1.23-.163.417a11.68,11.68,0,0,0-.491,1.663,17.834,17.834,0,0,0-.339,2.692c-.071,1.06-.078,2.269-.088,3.607-.047,5.358-.119,12.747-.2,20.909s-.183,15.552-.247,20.909c-.041,2.669-.071,4.829-.095,6.336-.017.742-.027,1.317-.034,1.72v.45C27.449,145.468,27.412,145.5,27.412,145.5Z" fill="#263238"/>
        <path id="Path_1211" data-name="Path 1211" d="M30.548,145.431a1.294,1.294,0,0,1,0-.152v-2.161c0-1.5,0-3.654.027-6.309.041-5.337.1-12.693.163-20.821s.156-15.484.21-20.821c0-1.331.027-2.533,0-3.59a23.27,23.27,0,0,0-.251-2.709,17.091,17.091,0,0,0-.339-1.676c-.051-.183-.091-.339-.122-.43a.643.643,0,0,1-.034-.149,11.928,11.928,0,0,1,.572,2.242,22.073,22.073,0,0,1,.281,2.709c.054,1.06.054,2.266.044,3.6-.041,5.334-.1,12.693-.159,20.821s-.159,15.484-.213,20.818c-.037,2.659-.064,4.812-.085,6.309,0,.738-.024,1.314-.03,1.717v.444A.215.215,0,0,1,30.548,145.431Z" fill="#263238"/>
        <path id="Path_1212" data-name="Path 1212" d="M32.973,137.069a11.03,11.03,0,0,1-.152-1.934,10.854,10.854,0,0,1,.03-1.937,10.837,10.837,0,0,1,.156,1.934,10.3,10.3,0,0,1-.034,1.937Z" fill="#263238"/>
        <path id="Path_1213" data-name="Path 1213" d="M38.368,110.47a2.5,2.5,0,0,1,0,.274l.02.786c0,.7.02,1.693.034,2.885,0,2.452.034,5.812.054,9.523a25.934,25.934,0,0,1-.339,5.239,8.551,8.551,0,0,1-1.764,3.888,5.839,5.839,0,0,1-2.293,1.741,3.838,3.838,0,0,1-1.016.281,9.741,9.741,0,0,0,1-.339,6.012,6.012,0,0,0,2.225-1.758,8.538,8.538,0,0,0,1.693-3.844,25.539,25.539,0,0,0,.318-5.205v-9.523c0-1.206.017-2.188.02-2.885v-.786a1.331,1.331,0,0,1,.051-.278Z" fill="#263238"/>
        <path id="Path_1214" data-name="Path 1214" d="M25.955,121.446a27.056,27.056,0,0,1,0,4.362,27.056,27.056,0,0,1,0-4.362Z" fill="#263238"/>
        <path id="Path_1215" data-name="Path 1215" d="M20.239,98.684a1.385,1.385,0,0,1,0,.281v.8c-.02.711-.051,1.71-.085,2.933-.075,2.479-.217,5.9-.169,9.679a25.448,25.448,0,0,0,.423,5.283,8.883,8.883,0,0,0,1.829,3.864,5.452,5.452,0,0,0,2.371,1.629,6.434,6.434,0,0,0,1.043.227,3.254,3.254,0,0,1-1.063-.159,5.4,5.4,0,0,1-2.442-1.612,8.941,8.941,0,0,1-1.893-3.912,24.78,24.78,0,0,1-.44-5.32c-.047-3.783.115-7.207.22-9.682.058-1.226.1-2.222.139-2.933.02-.339.034-.6.047-.8a1.375,1.375,0,0,1,.02-.278Z" fill="#263238"/>
        <g id="Group_47" data-name="Group 47" opacity="0.3">
          <path id="Path_1216" data-name="Path 1216" d="M25.014,125.307l.142-3.9.806.139v3.82S25.153,125.324,25.014,125.307Z"/>
        </g>
        <path id="Path_1217" data-name="Path 1217" d="M18.115,111.577a2.1,2.1,0,0,1-.826.213,2.032,2.032,0,0,1-.853.037,2.127,2.127,0,0,1,.826-.21,2.127,2.127,0,0,1,.853-.041Z" fill="#263238"/>
        <path id="Path_1218" data-name="Path 1218" d="M18.031,107.8a2.188,2.188,0,0,1-.857-.081,2.177,2.177,0,0,1-.82-.254,2.1,2.1,0,0,1,.853.081A2.137,2.137,0,0,1,18.031,107.8Z" fill="#263238"/>
        <path id="Path_1219" data-name="Path 1219" d="M16.52,101.766a1.693,1.693,0,0,1,.847.366,1.941,1.941,0,0,1,.677.64,4.213,4.213,0,0,1-.772-.494,4.175,4.175,0,0,1-.752-.511Z" fill="#263238"/>
        <path id="Path_1220" data-name="Path 1220" d="M18.965,97.909a2.31,2.31,0,0,1,.42.806,2.344,2.344,0,0,1,.251.87,2.448,2.448,0,0,1-.417-.806,2.492,2.492,0,0,1-.254-.87Z" fill="#263238"/>
        <path id="Path_1221" data-name="Path 1221" d="M22.4,98.166a3.891,3.891,0,0,1-.467,1.063,3.878,3.878,0,0,1-.623.965,3.725,3.725,0,0,1,.467-1.05,3.726,3.726,0,0,1,.623-.979Z" fill="#263238"/>
        <path id="Path_1222" data-name="Path 1222" d="M23.564,102.687a1.771,1.771,0,0,1-.732.295,1.819,1.819,0,0,1-.776.125,1.771,1.771,0,0,1,.732-.295,1.819,1.819,0,0,1,.776-.125Z" fill="#263238"/>
        <path id="Path_1223" data-name="Path 1223" d="M21.637,107.551c-.037.034-.254-.146-.484-.4s-.389-.488-.356-.522.254.149.484.4S21.675,107.52,21.637,107.551Z" fill="#263238"/>
        <path id="Path_1224" data-name="Path 1224" d="M23.222,112.438a2.228,2.228,0,0,1-.677-.525c-.339-.339-.6-.616-.566-.654s.339.2.677.525S23.253,112.39,23.222,112.438Z" fill="#263238"/>
        <path id="Path_1225" data-name="Path 1225" d="M18.535,114.514a2.571,2.571,0,0,1-.613.694c-.369.339-.7.6-.732.562a2.533,2.533,0,0,1,.613-.677C18.173,114.73,18.5,114.47,18.535,114.514Z" fill="#263238"/>
        <path id="Path_1226" data-name="Path 1226" d="M19.121,118.791c-.047-.017,0-.312.125-.657s.247-.616.295-.6a1.355,1.355,0,0,1-.125.657C19.3,118.534,19.169,118.8,19.121,118.791Z" fill="#263238"/>
        <path id="Path_1227" data-name="Path 1227" d="M19.551,123.742a3.543,3.543,0,0,1,.379-1.043,3.42,3.42,0,0,1,.538-.972,3.58,3.58,0,0,1-.379,1.046A3.566,3.566,0,0,1,19.551,123.742Z" fill="#263238"/>
        <path id="Path_1228" data-name="Path 1228" d="M22.41,126a2.8,2.8,0,0,1,.085-.979,2.845,2.845,0,0,1,.257-.948A5.5,5.5,0,0,1,22.413,126Z" fill="#263238"/>
        <path id="Path_1229" data-name="Path 1229" d="M23.907,118.534a1.968,1.968,0,0,1-.816-.091,2,2,0,0,1-.776-.261,1.93,1.93,0,0,1,.816.088A1.917,1.917,0,0,1,23.907,118.534Z" fill="#263238"/>
        <path id="Path_1230" data-name="Path 1230" d="M23.564,115.6c0,.047-.315.03-.677-.041s-.677-.163-.654-.21a1.387,1.387,0,0,1,.677.037C23.27,115.458,23.575,115.557,23.564,115.6Z" fill="#263238"/>
        <g id="Group_48" data-name="Group 48" opacity="0.3">
          <path id="Path_1231" data-name="Path 1231" d="M20.232,98.891a14.888,14.888,0,0,1,.091,3.925c-.044,1.209-.129,2.648-.224,4.24s-.2,3.343-.24,5.168a20.32,20.32,0,0,0,.43,5.06,14.512,14.512,0,0,0,.627,2.11,7.725,7.725,0,0,0,.9,1.656,5.476,5.476,0,0,0,2.059,1.751c.593.281.958.376.945.447s-.4.071-1.07-.129a5.151,5.151,0,0,1-2.425-1.693,7.755,7.755,0,0,1-1.08-1.751,13.408,13.408,0,0,1-.745-2.208,19.03,19.03,0,0,1-.535-5.256c.037-1.859.176-3.617.312-5.209s.288-3.024.413-4.227A21.273,21.273,0,0,1,20.232,98.891Z"/>
        </g>
        <path id="Path_1232" data-name="Path 1232" d="M36.437,127.844a1.693,1.693,0,0,1-.765.088,1.693,1.693,0,0,1-.762-.088,1.748,1.748,0,0,1,.762-.088,1.758,1.758,0,0,1,.765.088Z" fill="#263238"/>
        <path id="Path_1233" data-name="Path 1233" d="M36.393,124.159a1.653,1.653,0,0,1-.738-.071,1.622,1.622,0,0,1-.7-.244,1.6,1.6,0,0,1,.738.071,1.643,1.643,0,0,1,.7.244Z" fill="#263238"/>
        <path id="Path_1234" data-name="Path 1234" d="M36.576,120.034a2.249,2.249,0,0,1-.881.017,2.222,2.222,0,0,1-.87-.163,2.3,2.3,0,0,1,.884,0A2.307,2.307,0,0,1,36.576,120.034Z" fill="#263238"/>
        <path id="Path_1235" data-name="Path 1235" d="M35.987,116.383a1.541,1.541,0,0,1-.677-.21,1.7,1.7,0,0,1-.616-.373,1.541,1.541,0,0,1,.677.21C35.733,116.163,36.007,116.339,35.987,116.383Z" fill="#263238"/>
        <path id="Path_1236" data-name="Path 1236" d="M36.346,113.284a1.646,1.646,0,0,1-.718-.437c-.339-.3-.576-.613-.538-.643s.308.217.654.511S36.373,113.24,36.346,113.284Z" fill="#263238"/>
        <path id="Path_1237" data-name="Path 1237" d="M37.419,110.991c-.041.024-.22-.251-.393-.613a1.668,1.668,0,0,1-.237-.677,1.782,1.782,0,0,1,.4.613C37.362,110.676,37.463,110.971,37.419,110.991Z" fill="#263238"/>
        <path id="Path_1238" data-name="Path 1238" d="M40.484,110.185c.041.03-.129.3-.339.627s-.362.6-.406.579.047-.339.254-.677S40.45,110.155,40.484,110.185Z" fill="#263238"/>
        <path id="Path_1239" data-name="Path 1239" d="M41.92,114.226a1.656,1.656,0,0,1-.823.2,1.626,1.626,0,0,1-.84-.064,2.757,2.757,0,0,1,.826-.112A2.875,2.875,0,0,1,41.92,114.226Z" fill="#263238"/>
        <path id="Path_1240" data-name="Path 1240" d="M41.876,117.148a2.1,2.1,0,0,1-.7.478,2.066,2.066,0,0,1-.782.339c-.024-.044.291-.257.7-.478A2.049,2.049,0,0,1,41.876,117.148Z" fill="#263238"/>
        <path id="Path_1241" data-name="Path 1241" d="M41.957,121.92c-.02.044-.308-.051-.643-.213a1.564,1.564,0,0,1-.569-.369,1.579,1.579,0,0,1,.643.21C41.724,121.707,41.995,121.88,41.957,121.92Z" fill="#263238"/>
        <path id="Path_1242" data-name="Path 1242" d="M41.693,124.558c.02.044-.213.2-.525.339s-.579.234-.6.19.213-.2.522-.339S41.656,124.514,41.693,124.558Z" fill="#263238"/>
        <path id="Path_1243" data-name="Path 1243" d="M40.979,130.133c-.037.03-.268-.163-.515-.437s-.42-.522-.386-.552.268.159.515.433S41.016,130.1,40.979,130.133Z" fill="#263238"/>
        <path id="Path_1244" data-name="Path 1244" d="M39.177,134.989a3.885,3.885,0,0,1-.23-.877,3.688,3.688,0,0,1-.2-.881,1.788,1.788,0,0,1,.373.837,1.754,1.754,0,0,1,.061.921Z" fill="#263238"/>
        <path id="Path_1245" data-name="Path 1245" d="M35.9,137.5a4.21,4.21,0,0,1,.122-1.693,2.1,2.1,0,0,1,.027.86A2.188,2.188,0,0,1,35.9,137.5Z" fill="#263238"/>
        <path id="Path_1246" data-name="Path 1246" d="M35.716,131.847a1.761,1.761,0,0,1-.7-.339c-.359-.237-.63-.461-.6-.5a1.93,1.93,0,0,1,.7.339C35.475,131.565,35.743,131.806,35.716,131.847Z" fill="#263238"/>
        <path id="Path_1247" data-name="Path 1247" d="M39.9,123.082c-.034.037-.271-.112-.532-.339s-.444-.433-.413-.471.268.112.528.339S39.925,123.048,39.9,123.082Z" fill="#263238"/>
        <path id="Path_1248" data-name="Path 1248" d="M37.568,117.111c.034.034-.179.3-.481.6s-.569.508-.6.474.179-.3.481-.6S37.535,117.077,37.568,117.111Z" fill="#263238"/>
        <path id="Path_1249" data-name="Path 1249" d="M40.119,112.438c.024.044-.183.207-.464.366s-.525.257-.549.213.183-.207.461-.366S40.091,112.38,40.119,112.438Z" fill="#263238"/>
        <path id="Path_1250" data-name="Path 1250" d="M37.453,134.166c-.044,0-.176-.193-.3-.474s-.179-.522-.135-.542.179.193.3.474S37.5,134.146,37.453,134.166Z" fill="#263238"/>
        <path id="Path_1251" data-name="Path 1251" d="M26.775,102.562a2.533,2.533,0,0,1-.948.041,2.6,2.6,0,0,1-.938-.139,2.658,2.658,0,0,1,.948-.037A2.645,2.645,0,0,1,26.775,102.562Z" fill="#263238"/>
        <path id="Path_1252" data-name="Path 1252" d="M26.477,97.116a2.435,2.435,0,0,1-.877-.268,2.51,2.51,0,0,1-.813-.43,2.455,2.455,0,0,1,.877.268,2.435,2.435,0,0,1,.813.43Z" fill="#263238"/>
        <path id="Path_1253" data-name="Path 1253" d="M26.975,90.356a1.609,1.609,0,0,1-.948-.254,1.588,1.588,0,0,1-.742-.64c.034-.037.362.24.823.484S26.985,90.306,26.975,90.356Z" fill="#263238"/>
        <path id="Path_1254" data-name="Path 1254" d="M28.225,87.2a2.408,2.408,0,0,1-.515-.762,2.479,2.479,0,0,1-.359-.843,2.408,2.408,0,0,1,.515.765,2.479,2.479,0,0,1,.359.84Z" fill="#263238"/>
        <path id="Path_1255" data-name="Path 1255" d="M32.529,86.276a2.591,2.591,0,0,1-.538.789c-.339.406-.64.711-.677.677a2.591,2.591,0,0,1,.542-.792C32.19,86.546,32.492,86.242,32.529,86.276Z" fill="#263238"/>
        <path id="Path_1256" data-name="Path 1256" d="M33.626,90.942c.027.041-.264.291-.647.566a2.134,2.134,0,0,1-.748.423c-.03-.041.261-.295.647-.566A2.076,2.076,0,0,1,33.626,90.942Z" fill="#263238"/>
        <path id="Path_1257" data-name="Path 1257" d="M34.131,97.414a1.778,1.778,0,0,1-.725.281,1.737,1.737,0,0,1-.769.115,1.812,1.812,0,0,1,.725-.284,1.765,1.765,0,0,1,.769-.112Z" fill="#263238"/>
        <path id="Path_1258" data-name="Path 1258" d="M33.829,102.9a2.421,2.421,0,0,1-.9.041,2.4,2.4,0,0,1-.891-.135,2.371,2.371,0,0,1,.9-.041A2.242,2.242,0,0,1,33.829,102.9Z" fill="#263238"/>
        <path id="Path_1259" data-name="Path 1259" d="M33.931,108.445a3.021,3.021,0,0,1-.85.576,3.112,3.112,0,0,1-.938.42,2.96,2.96,0,0,1,.85-.576,3.112,3.112,0,0,1,.938-.42Z" fill="#263238"/>
        <path id="Path_1260" data-name="Path 1260" d="M26.274,111.144a2.709,2.709,0,0,1-.962-.115,2.675,2.675,0,0,1-.928-.284,2.655,2.655,0,0,1,.962.112,2.709,2.709,0,0,1,.928.288Z" fill="#263238"/>
        <path id="Path_1261" data-name="Path 1261" d="M26.46,115.977a3.048,3.048,0,0,1-.721.721,3.139,3.139,0,0,1-.847.586,3.048,3.048,0,0,1,.735-.721,3.14,3.14,0,0,1,.833-.586Z" fill="#263238"/>
        <path id="Path_1262" data-name="Path 1262" d="M26.572,130.417a4,4,0,0,1-.952-.677,4.016,4.016,0,0,1-.84-.813,3.821,3.821,0,0,1,.952.677,3.921,3.921,0,0,1,.84.813Z" fill="#263238"/>
        <path id="Path_1263" data-name="Path 1263" d="M26.379,134.485c.03.037-.234.312-.589.616a2.124,2.124,0,0,1-.7.478c-.03-.037.234-.312.589-.613A2.158,2.158,0,0,1,26.379,134.485Z" fill="#263238"/>
        <path id="Path_1264" data-name="Path 1264" d="M33.528,125.429a2.987,2.987,0,0,1-.745.677,2.922,2.922,0,0,1-.85.525,2.889,2.889,0,0,1,.745-.677,2.781,2.781,0,0,1,.85-.525Z" fill="#263238"/>
        <path id="Path_1265" data-name="Path 1265" d="M33.633,118.483a1.629,1.629,0,0,1-.82.545,1.653,1.653,0,0,1-.969.152,8.918,8.918,0,0,1,.9-.308A8.365,8.365,0,0,1,33.633,118.483Z" fill="#263238"/>
        <path id="Path_1266" data-name="Path 1266" d="M33.735,113.41a1.92,1.92,0,0,1-.779-.217,1.876,1.876,0,0,1-.711-.379,1.9,1.9,0,0,1,.776.217,1.91,1.91,0,0,1,.715.379Z" fill="#263238"/>
        <path id="Path_1267" data-name="Path 1267" d="M34.121,139.138a3.228,3.228,0,0,1-.908.525,3.241,3.241,0,0,1-.982.366,3.136,3.136,0,0,1,.908-.525A3.136,3.136,0,0,1,34.121,139.138Z" fill="#263238"/>
        <path id="Path_1268" data-name="Path 1268" d="M26.382,106.948a3.956,3.956,0,0,1-.952-.728,4.179,4.179,0,0,1-.837-.864,4.145,4.145,0,0,1,.952.732,4.315,4.315,0,0,1,.837.86Z" fill="#263238"/>
        <path id="Path_1269" data-name="Path 1269" d="M34.327,104.37a2.905,2.905,0,0,1-.8.616,2.994,2.994,0,0,1-.894.474,3.075,3.075,0,0,1,.8-.623,2.98,2.98,0,0,1,.894-.467Z" fill="#263238"/>
        <path id="Path_1270" data-name="Path 1270" d="M26.179,93.537a1.483,1.483,0,0,1-.708,0c-.386-.058-.677-.139-.677-.19a1.51,1.51,0,0,1,.708,0A1.494,1.494,0,0,1,26.179,93.537Z" fill="#263238"/>
        <path id="Path_1271" data-name="Path 1271" d="M33.731,93.933c.017.047-.281.2-.677.339a1.588,1.588,0,0,1-.728.166A1.72,1.72,0,0,1,33,94.1a1.693,1.693,0,0,1,.728-.166Z" fill="#263238"/>
        <path id="Path_1272" data-name="Path 1272" d="M29.765,105.769a2.71,2.71,0,0,1-.532.8c-.339.41-.627.718-.677.677a2.537,2.537,0,0,1,.528-.8C29.427,106.047,29.725,105.739,29.765,105.769Z" fill="#263238"/>
        <path id="Path_1273" data-name="Path 1273" d="M29.755,100.584c-.024.037-.339-.156-.61-.535a1.2,1.2,0,0,1-.284-.759,5.526,5.526,0,0,1,.43.677C29.535,100.334,29.8,100.554,29.755,100.584Z" fill="#263238"/>
        <path id="Path_1274" data-name="Path 1274" d="M29.657,93.239c.034.041-.244.3-.511.677a5.872,5.872,0,0,1-.481.708A1.355,1.355,0,0,1,29,93.814C29.288,93.418,29.63,93.2,29.657,93.239Z" fill="#263238"/>
        <path id="Path_1275" data-name="Path 1275" d="M29.061,113.216a1.571,1.571,0,0,1,.166-.725,1.664,1.664,0,0,1,.339-.677,1.693,1.693,0,0,1-.166.725C29.254,112.935,29.105,113.233,29.061,113.216Z" fill="#263238"/>
        <path id="Path_1276" data-name="Path 1276" d="M27.943,123.861a4.552,4.552,0,0,1-.63-1.1,4.677,4.677,0,0,1-.474-1.179,4.714,4.714,0,0,1,.633,1.1A4.586,4.586,0,0,1,27.943,123.861Z" fill="#263238"/>
        <path id="Path_1277" data-name="Path 1277" d="M29.935,125.53a5.635,5.635,0,0,1-.572,1.28,5.737,5.737,0,0,1-.728,1.206,11.193,11.193,0,0,1,1.3-2.479Z" fill="#263238"/>
        <path id="Path_1278" data-name="Path 1278" d="M29.84,136.879a4.115,4.115,0,0,1-.63-1.05,4.341,4.341,0,0,1-.474-1.131,4.23,4.23,0,0,1,.63,1.05,4.491,4.491,0,0,1,.474,1.131Z" fill="#263238"/>
        <path id="Path_1279" data-name="Path 1279" d="M29.159,140.351a2.33,2.33,0,0,1-.423.792c-.274.413-.528.725-.569.7a2.371,2.371,0,0,1,.423-.8A2.481,2.481,0,0,1,29.159,140.351Z" fill="#263238"/>
        <g id="Group_49" data-name="Group 49" opacity="0.3">
          <path id="Path_1280" data-name="Path 1280" d="M30.741,87.715c.244,0,.444,12.869.444,28.736s-.2,28.739-.444,28.739-.44-12.869-.44-28.739S30.5,87.715,30.741,87.715Z"/>
        </g>
        <g id="Group_50" data-name="Group 50" opacity="0.3">
          <path id="Path_1281" data-name="Path 1281" d="M38.716,110.907a15.623,15.623,0,0,1,.339,3.847c.075,2.377.061,5.659.125,9.279a22.4,22.4,0,0,1-.444,5.175,10.617,10.617,0,0,1-.748,2.184,15.882,15.882,0,0,1-.962,1.737,4.223,4.223,0,0,1-1.179,1.226,3.942,3.942,0,0,1-1.158.511c-.677.173-1.036.176-1.05.122s.339-.183.931-.444a4.3,4.3,0,0,0,.989-.589,3.878,3.878,0,0,0,.935-1.155,18.033,18.033,0,0,0,.826-1.71,10.641,10.641,0,0,0,.61-2.059,24.7,24.7,0,0,0,.339-5c-.064-3.631.051-6.919.132-9.29A17.786,17.786,0,0,1,38.716,110.907Z"/>
        </g>
        <rect id="Rectangle_237" data-name="Rectangle 237" width="19.9" height="2.733" transform="translate(19.355 145.282)" fill="#263238"/>
        <path id="Path_1282" data-name="Path 1282" d="M39.285,148.052H19.3v-2.8H39.285ZM19.389,148H39.221v-2.665H19.389Z" fill="#263238"/>
        <path id="Path_1283" data-name="Path 1283" d="M21.2,147.107l2.865,14.133h10.6l2.77-13.222Z" fill="#263238"/>
        <path id="Path_1284" data-name="Path 1284" d="M21.2,159.9l1.531,2.1H35.611l1.822-2.1Z" fill="#455a64"/>
        <path id="Path_1285" data-name="Path 1285" d="M39.285,148c0,.041-4.47.071-9.984.071s-9.984-.03-9.984-.071,4.467-.071,9.984-.071S39.285,147.967,39.285,148Z" fill="#455a64"/>
        <path id="Path_1286" data-name="Path 1286" d="M36.176,153.755c0,.037-3.011.071-6.726.071s-6.726-.034-6.726-.071,3.014-.068,6.739-.068S36.176,153.718,36.176,153.755Z" fill="#455a64"/>
        <path id="Path_1287" data-name="Path 1287" d="M36.061,154.581c0,.037-2.96.068-6.611.068s-6.607-.03-6.607-.068,2.957-.071,6.607-.071S36.061,154.541,36.061,154.581Z" fill="#455a64"/>
        <path id="Path_1288" data-name="Path 1288" d="M36.295,153.078c0,.041-3.116.071-6.956.071s-6.96-.03-6.96-.071,3.116-.068,6.96-.068S36.295,153.04,36.295,153.078Z" fill="#455a64"/>
      </g>
      <g id="freepik--Character--inject-434">
        <path id="Path_1289" data-name="Path 1289" d="M206.343,64.943l4.5-1.443,7.451-.186,5.188,1.372,2.164,21.136a6.644,6.644,0,0,1-1.643,5.419l-.064.071-15.325-.183h0c-.542,0-1.06-1.378-1.355-2.371l-.745-6.587-.61-2.438-1.751,4.887-6.343,4.5s-1.626-1.643-.677-6.3a84.952,84.952,0,0,1,4.135-11.833S202.3,66.24,206.343,64.943Z" fill="#90caf9"/>
        <path id="Path_1290" data-name="Path 1290" d="M226.927,87.078l-1.815-2.94-1.626-19.453a6.753,6.753,0,0,1,3.542,3.417C227.754,69.931,232,84.5,232,84.5" fill="#90caf9"/>
        <path id="Path_1291" data-name="Path 1291" d="M204.325,71.8c.047,0,.528,2.174,1.074,4.88s.945,4.9.9,4.914-.528-2.174-1.07-4.88S204.277,71.8,204.325,71.8Z" fill="#263238"/>
        <path id="Path_1292" data-name="Path 1292" d="M204.216,83.393a8.657,8.657,0,0,0-1.223-.566,4.63,4.63,0,0,0-5.551,2.134,8.023,8.023,0,0,0-.525,1.24,1.115,1.115,0,0,1,.058-.362,4.08,4.08,0,0,1,.359-.935,4.586,4.586,0,0,1,5.7-2.195,4.064,4.064,0,0,1,.894.454A1.439,1.439,0,0,1,204.216,83.393Z" fill="#263238"/>
        <path id="Path_1293" data-name="Path 1293" d="M224.794,70.968c.041.9.149,3.075.3,6.262.1,1.71.186,3.261.254,4.426.034.538.058.992.081,1.355a2.419,2.419,0,0,1,0,.494,3.2,3.2,0,0,1-.078-.488c-.037-.318-.085-.772-.135-1.355-.1-1.131-.213-2.709-.3-4.426s-.146-3.3-.166-4.433a10.162,10.162,0,0,1,.044-1.836Z" fill="#263238"/>
        <path id="Path_1294" data-name="Path 1294" d="M213.845,91.227a1.2,1.2,0,0,1-.464-.288,3.268,3.268,0,0,1-1.135-2.32,1.145,1.145,0,0,1,.058-.542,5.355,5.355,0,0,0,.43,1.741,5.476,5.476,0,0,0,1.111,1.409Z" fill="#263238"/>
        <path id="Path_1295" data-name="Path 1295" d="M222.894,86.36a2.185,2.185,0,0,1,.088.765,5.7,5.7,0,0,1-1.179,3.482,2.3,2.3,0,0,1-.539.552A8.924,8.924,0,0,0,222.5,88.9a9.036,9.036,0,0,0,.389-2.54Z" fill="#263238"/>
        <path id="Path_1296" data-name="Path 1296" d="M204.663,73.87a13.821,13.821,0,0,1-2.164-.362,13.521,13.521,0,0,1-2.127-.532,13.82,13.82,0,0,1,2.164.362A13.4,13.4,0,0,1,204.663,73.87Z" fill="#fafafa"/>
        <path id="Path_1297" data-name="Path 1297" d="M204.721,74.612c0,.051-1.016-.2-2.222-.457s-2.218-.444-2.212-.491a16.229,16.229,0,0,1,4.433.948Z" fill="#fafafa"/>
        <path id="Path_1298" data-name="Path 1298" d="M224.784,74.988a.732.732,0,0,1-.2.017l-.566.017-2.079.041c-1.754.041-4.179.122-6.851.288s-5.08.389-6.838.572l-2.069.217-.562.058a.786.786,0,0,1-.2,0,.765.765,0,0,1,.193-.044l.559-.088c.484-.075,1.189-.169,2.063-.274,1.744-.213,4.162-.454,6.838-.623s5.107-.23,6.865-.237h2.079l.566.017a1.379,1.379,0,0,1,.2.041Z" fill="#fafafa"/>
        <path id="Path_1299" data-name="Path 1299" d="M224.9,75.726a.83.83,0,0,1-.2.024l-.566.037-2.083.108c-1.758.091-4.183.23-6.861.43s-5.08.42-6.851.589l-2.073.2-.566.047a.82.82,0,0,1-.2,0,.81.81,0,0,1,.2-.041l.559-.081c.488-.068,1.2-.156,2.069-.254,1.751-.2,4.172-.44,6.851-.64s5.111-.318,6.872-.379c.881-.03,1.592-.047,2.083-.054h.569a.734.734,0,0,1,.2.017Z" fill="#fafafa"/>
        <path id="Path_1300" data-name="Path 1300" d="M228.076,71.665a8.128,8.128,0,0,1-1.51.711,8.037,8.037,0,0,1-1.578.549,8.127,8.127,0,0,1,1.51-.711,8.036,8.036,0,0,1,1.578-.549Z" fill="#fafafa"/>
        <path id="Path_1301" data-name="Path 1301" d="M228.4,72.156a10.561,10.561,0,0,1-1.693.935,10.73,10.73,0,0,1-1.771.776,10.752,10.752,0,0,1,1.693-.935A10.867,10.867,0,0,1,228.4,72.156Z" fill="#fafafa"/>
        <g id="Group_51" data-name="Group 51" opacity="0.3">
          <path id="Path_1302" data-name="Path 1302" d="M204.328,71.913c.024,1.48.071,3.167-.037,4.626s.037,3.695,1.074,4.741l.562-1.632s-1.446-7.112-1.6-7.725"/>
        </g>
        <g id="Group_52" data-name="Group 52" opacity="0.3">
          <path id="Path_1303" data-name="Path 1303" d="M221.15,91.281a7.416,7.416,0,0,0,1.8-3.895c.339.366.091,1.063-.017,1.554a5.528,5.528,0,0,1-.518,1.554c-.274.474-.776.735-.748.8"/>
        </g>
        <path id="Path_1304" data-name="Path 1304" d="M211.257,144.394l-8.467,6.943,8.582,10.573c.958-.881-1.453-8-1.453-8l5.608-4.223Z" fill="#90caf9"/>
        <g id="Group_53" data-name="Group 53" opacity="0.6">
          <path id="Path_1305" data-name="Path 1305" d="M207.728,150.27a.559.559,0,0,0-.735.1.535.535,0,0,0,.095.732.583.583,0,0,0,.776-.112.552.552,0,0,0-.18-.748" fill="#fff"/>
        </g>
        <g id="Group_54" data-name="Group 54" opacity="0.6">
          <path id="Path_1306" data-name="Path 1306" d="M202.828,151.306l.85-.7,7.864,10.5s.173.637-.2.85Z" fill="#fff"/>
        </g>
        <path id="Path_1307" data-name="Path 1307" d="M210.116,154.039c-.051.041-.284-.2-.657-.318s-.7-.078-.718-.142.339-.227.792-.078S210.174,154.012,210.116,154.039Z" fill="#263238"/>
        <path id="Path_1308" data-name="Path 1308" d="M210.56,155.523c-.041.051-.312-.1-.677-.1s-.633.139-.677.085.227-.322.677-.318S210.607,155.482,210.56,155.523Z" fill="#263238"/>
        <path id="Path_1309" data-name="Path 1309" d="M209.743,157.23c-.051-.037.149-.322.538-.417s.7.054.677.108-.3.03-.616.115S209.787,157.277,209.743,157.23Z" fill="#263238"/>
        <path id="Path_1310" data-name="Path 1310" d="M211.288,152.935c-.064.017-.186-.278-.444-.552s-.532-.43-.511-.494.386,0,.677.339S211.349,152.929,211.288,152.935Z" fill="#263238"/>
        <path id="Path_1311" data-name="Path 1311" d="M212.344,151.665c-.02.017-.22-.159-.427-.532a3.082,3.082,0,0,1-.281-.677,3.437,3.437,0,0,1-.085-.437.823.823,0,0,1,0-.261.288.288,0,0,1,.254-.247.373.373,0,0,1,.3.132.86.86,0,0,1,.132.22,2.553,2.553,0,0,1,.156.42,2.425,2.425,0,0,1,.075.748,1.135,1.135,0,0,1-.176.66c-.037,0,.03-.257,0-.66a2.523,2.523,0,0,0-.271-1.07c-.061-.135-.135-.23-.21-.22s-.037,0-.051.061a.636.636,0,0,0,0,.193,3.842,3.842,0,0,0,.064.41,3.991,3.991,0,0,0,.22.677,4.832,4.832,0,0,1,.3.583Z" fill="#263238"/>
        <path id="Path_1312" data-name="Path 1312" d="M212.209,151.659c-.024,0,.078-.264.4-.555a2.251,2.251,0,0,1,.64-.4,2.37,2.37,0,0,1,.43-.129.569.569,0,0,1,.542.122.339.339,0,0,1,.034.339.962.962,0,0,1-.152.21,1.493,1.493,0,0,1-.339.291,1.548,1.548,0,0,1-.732.217.887.887,0,0,1-.677-.166c0-.041.257.058.65,0a1.575,1.575,0,0,0,.633-.237,1.323,1.323,0,0,0,.3-.257c.1-.108.156-.224.108-.257a.4.4,0,0,0-.339-.044,2.3,2.3,0,0,0-.393.1,2.462,2.462,0,0,0-.613.339C212.388,151.469,212.239,151.679,212.209,151.659Z" fill="#263238"/>
        <path id="Path_1313" data-name="Path 1313" d="M207.491,151.046l.1,10.946,13.618-.058c-.088-1.3-7.143-3.881-7.143-3.881l.224-7.017Z" fill="#90caf9"/>
        <g id="Group_55" data-name="Group 55" opacity="0.6">
          <path id="Path_1314" data-name="Path 1314" d="M209.859,157.48a.555.555,0,0,0-.383.637.535.535,0,0,0,.626.383.589.589,0,0,0,.4-.677.552.552,0,0,0-.7-.339" fill="#fff"/>
        </g>
        <g id="Group_56" data-name="Group 56" opacity="0.6">
          <path id="Path_1315" data-name="Path 1315" d="M207.6,161.957v-1.1l13.1.444s.606.264.535.677Z" fill="#fff"/>
        </g>
        <path id="Path_1316" data-name="Path 1316" d="M214.292,157.992c0,.068-.339.1-.677.312s-.5.5-.562.471.037-.41.437-.677S214.305,157.931,214.292,157.992Z" fill="#263238"/>
        <path id="Path_1317" data-name="Path 1317" d="M215.731,158.578c0,.064-.274.176-.5.461s-.288.579-.339.576-.108-.379.176-.725S215.731,158.513,215.731,158.578Z" fill="#263238"/>
        <path id="Path_1318" data-name="Path 1318" d="M216.541,160.281c-.061.017-.152-.315.017-.677s.478-.511.508-.457-.166.251-.3.552S216.608,160.274,216.541,160.281Z" fill="#263238"/>
        <path id="Path_1319" data-name="Path 1319" d="M214.166,156.386c-.03.061-.339-.03-.711,0s-.677.149-.7.091.244-.295.677-.322S214.2,156.336,214.166,156.386Z" fill="#263238"/>
        <path id="Path_1320" data-name="Path 1320" d="M213.835,154.771a1.3,1.3,0,0,1-.677,0,3.048,3.048,0,0,1-.711-.213,2.917,2.917,0,0,1-.393-.207.827.827,0,0,1-.207-.159.291.291,0,0,1-.034-.356.369.369,0,0,1,.291-.152.948.948,0,0,1,.257.034,2.708,2.708,0,0,1,.423.142,2.371,2.371,0,0,1,.63.413c.318.291.427.538.4.552s-.183-.186-.508-.427a2.754,2.754,0,0,0-.61-.339,2.62,2.62,0,0,0-.389-.119c-.146-.037-.268-.037-.3.027s0,.034,0,.078a.734.734,0,0,0,.149.115,3.581,3.581,0,0,0,.362.2,3.629,3.629,0,0,0,.677.251,4.594,4.594,0,0,1,.64.156Z" fill="#263238"/>
        <path id="Path_1321" data-name="Path 1321" d="M213.747,154.869a1.087,1.087,0,0,1-.183-.657,2.229,2.229,0,0,1,.264-1.165.566.566,0,0,1,.433-.339.339.339,0,0,1,.285.19.884.884,0,0,1,.071.251,1.48,1.48,0,0,1,0,.457,1.575,1.575,0,0,1-.288.708c-.264.339-.542.434-.549.413a2.842,2.842,0,0,0,.41-.5,1.521,1.521,0,0,0,.213-.64,1.423,1.423,0,0,0,0-.4c-.02-.142-.078-.261-.129-.244a.533.533,0,0,0-.24.224,2.529,2.529,0,0,0-.166.369,2.371,2.371,0,0,0-.129.677C213.7,154.608,213.784,154.859,213.747,154.869Z" fill="#263238"/>
        <path id="Path_1322" data-name="Path 1322" d="M208.619,91.129a18.676,18.676,0,0,0-2.709,3.8,28.992,28.992,0,0,0-1.456,6.3s-2.5,5.574-2.123,8.426S205.26,132,205.26,132s-.125,18.965,1.693,22.352l.4,1.825,7.292-1.294h0l.41-1.016,1.111-37.253,4.542-25.305Z" fill="#263238"/>
        <path id="Path_1323" data-name="Path 1323" d="M224.008,91.315l.4,2a8.66,8.66,0,0,1,1.825,4.193c.224,2.3.593,9.395.593,9.395l-.677,1.764s1.693,1.26,1.971,2.086,5.019,22.691,4.386,23.988S215,151.98,215,151.98l-4.812-6.353,8.771-10.014,2.327-1.057.481-2.032-.538-1.284-.037-2.117-5.784-12.443.461-10.709,3.62-14.715Z" fill="#263238"/>
        <path id="Path_1324" data-name="Path 1324" d="M211.887,98.745a1.162,1.162,0,0,1-.047-.3c-.02-.193-.034-.471-.037-.816a23.687,23.687,0,0,1,.159-2.682c.118-1.016.227-1.93.312-2.665a8.659,8.659,0,0,1,.142-1.1,5.9,5.9,0,0,1-.02,1.114c-.044.677-.146,1.629-.257,2.669s-.19,1.985-.21,2.669A9.3,9.3,0,0,1,211.887,98.745Z" fill="#455a64"/>
        <path id="Path_1325" data-name="Path 1325" d="M213.239,94.258a4.877,4.877,0,0,1-.362-1.507,4.778,4.778,0,0,1-.041-1.551,11.853,11.853,0,0,1,.213,1.527A11.2,11.2,0,0,1,213.239,94.258Z" fill="#455a64"/>
        <path id="Path_1326" data-name="Path 1326" d="M217.33,107.6a2.166,2.166,0,0,1-.034.433l-.149,1.179c-.129.992-.3,2.371-.467,3.881s-.288,2.9-.373,3.895c-.044.471-.078.867-.1,1.182a2.194,2.194,0,0,1-.061.43,2.088,2.088,0,0,1,0-.437c0-.278.024-.677.051-1.185.054-1,.159-2.371.339-3.9s.356-2.892.515-3.881c.081-.5.152-.9.207-1.172a1.926,1.926,0,0,1,.078-.423Z" fill="#455a64"/>
        <path id="Path_1327" data-name="Path 1327" d="M219.036,91.274a3.75,3.75,0,0,1,0,.549c-.017.339-.047.86-.091,1.49-.091,1.256-.234,2.994-.423,4.907s-.386,3.647-.545,4.9c-.078.627-.149,1.131-.2,1.48a3.065,3.065,0,0,1-.1.542,3.158,3.158,0,0,1,.031-.549c.037-.383.085-.881.142-1.487.132-1.284.3-3,.494-4.9s.339-3.617.474-4.9c.061-.6.112-1.1.149-1.487a2.955,2.955,0,0,1,.068-.542Z" fill="#455a64"/>
        <path id="Path_1328" data-name="Path 1328" d="M217.919,92.761a.8.8,0,0,0-.278-.42.545.545,0,0,0-.5-.051.522.522,0,1,0,.515.9.83.83,0,0,0,.264-.427.263.263,0,0,1,.02.152.606.606,0,0,1-.207.373.654.654,0,0,1-.63.125.677.677,0,0,1-.02-1.273.654.654,0,0,1,.63.1.582.582,0,0,1,.22.366C217.946,92.707,217.929,92.761,217.919,92.761Z" fill="#455a64"/>
        <path id="Path_1329" data-name="Path 1329" d="M216.883,111.645c-.03,0-.074-.406-.227-1.05a10.268,10.268,0,0,0-2.371-4.511c-.444-.491-.755-.762-.735-.786a1.127,1.127,0,0,1,.24.166,7.115,7.115,0,0,1,.586.538,9.063,9.063,0,0,1,2.4,4.572,6.526,6.526,0,0,1,.105.786.82.82,0,0,1,0,.284Z" fill="#455a64"/>
        <path id="Path_1330" data-name="Path 1330" d="M227.845,132.463a1.557,1.557,0,0,1-.18.176,3.792,3.792,0,0,1-.569.379,4.74,4.74,0,0,1-.938.4,5.524,5.524,0,0,1-1.226.22,5.673,5.673,0,0,1-1.246-.075,4.9,4.9,0,0,1-.979-.291,3.6,3.6,0,0,1-.606-.312c-.135-.091-.207-.142-.2-.156s.318.163.853.339a5.246,5.246,0,0,0,.958.244,5.81,5.81,0,0,0,3.326-.478C227.547,132.659,227.825,132.436,227.845,132.463Z" fill="#455a64"/>
        <path id="Path_1331" data-name="Path 1331" d="M224.75,134.644a9.84,9.84,0,0,1-1.842.051,9.675,9.675,0,0,1-1.842-.122,18.966,18.966,0,0,1,3.685.071Z" fill="#455a64"/>
        <path id="Path_1332" data-name="Path 1332" d="M215.633,133.885a1.061,1.061,0,0,1,0,.2v.583c0,.508,0,1.24-.034,2.144-.041,1.808-.142,4.308-.261,7.065s-.2,5.256-.237,7.065c-.02.887-.034,1.615-.044,2.144v.583a.973.973,0,0,1,0,.2.745.745,0,0,1-.017-.2v-.583c0-.508-.017-1.24,0-2.144,0-1.812.068-4.311.186-7.071s.23-5.232.312-7.061c.037-.887.068-1.612.091-2.14,0-.237.024-.43.03-.583a.9.9,0,0,1-.027-.2Z" fill="#455a64"/>
        <path id="Path_1333" data-name="Path 1333" d="M201.605,83.769a4.718,4.718,0,0,0-3.675,2.814,2.765,2.765,0,0,0-.108,2.533c1.118,1.724,2.665,1.551,4.166.945s12.192-4.575,12.192-4.575l-.884-3.421Z" fill="#ffbe9d"/>
        <path id="Path_1334" data-name="Path 1334" d="M221.488,80.535l-2.394.423-1.016.623s.23-.291.427-.589a8.428,8.428,0,0,1,.992-.979l1.781-.339s1.016-.163,1.016-.864h-1.382s1.409-.22,1.317-.928l-1.057-.095a.339.339,0,0,0,.295-.406l-2.892-.078L216,79.482l-2.449,2.564-.593.078.115,3.84a16.42,16.42,0,0,0,2.94-.86,41.48,41.48,0,0,0,3.241-3.183,5.211,5.211,0,0,0,1.863-.647,1.108,1.108,0,0,0,.369-.738Z" fill="#ffbe9d"/>
        <path id="Path_1335" data-name="Path 1335" d="M212.5,86.055h.037l.108-.017.427-.085c.376-.078.921-.193,1.615-.373a10.22,10.22,0,0,0,1.141-.356,2,2,0,0,0,.569-.383c.176-.152.339-.318.535-.494.728-.7,1.521-1.514,2.371-2.421h-.03a8,8,0,0,0,1.328-.339,2.219,2.219,0,0,0,.339-.149,1.624,1.624,0,0,0,.163-.1l.074-.064.064-.071a1.451,1.451,0,0,0,.213-.312.948.948,0,0,0,.108-.386v-.071h-.074l-2.394.42h0l-1.016.62.085.1.3-.42.152-.21a2.263,2.263,0,0,1,.169-.2c.24-.251.511-.494.786-.732h-.031l1.07-.2.549-.1c.091-.02.186-.034.281-.058a1.9,1.9,0,0,0,.278-.091,1.27,1.27,0,0,0,.454-.3.731.731,0,0,0,.21-.508v-.068h-.064l-1.382-.017V78.8a3.075,3.075,0,0,0,.86-.274,1.155,1.155,0,0,0,.369-.274.576.576,0,0,0,.142-.45v-.054h-.054l-1.114-.068v.129a.539.539,0,0,0,.295-.159.393.393,0,0,0,.091-.339v-.054h-.051l-2.872-.091h-.024v.017l-2.57,2.181h0l-2.438,2.577h.024l-2.428.339-.647.095-.163.027h-.044l.166-.017.647-.078,2.435-.3h0l2.455-2.557h0l2.581-2.167h-.041l2.872.1-.064-.054a.264.264,0,0,1-.058.224.447.447,0,0,1-.224.119l-.464.1.474.03,1.114.064-.061-.054a.44.44,0,0,1-.115.339,1.016,1.016,0,0,1-.339.24,2.957,2.957,0,0,1-.823.261v.135h1.382l-.064-.068a.613.613,0,0,1-.176.42,1.165,1.165,0,0,1-.406.268,1.464,1.464,0,0,1-.261.085c-.085.024-.18.037-.271.058l-.552.1-1.067.2h-.02c-.274.24-.545.484-.8.742-.061.068-.122.135-.176.207l-.156.217-.3.413-.2.271.281-.176,1.016-.623h-.02l2.391-.427-.071-.061a.864.864,0,0,1-.095.339,1.273,1.273,0,0,1-.2.288,1.392,1.392,0,0,1-.583.356,8.032,8.032,0,0,1-1.307.339h0c-.853.911-1.643,1.731-2.371,2.432-.18.176-.356.339-.532.5a1.87,1.87,0,0,1-.542.373,10.476,10.476,0,0,1-1.124.366c-.677.186-1.236.312-1.609.4l-.423.1-.1.027Z" fill="#eb996e"/>
        <path id="Path_1336" data-name="Path 1336" d="M217.509,80.264a2.652,2.652,0,0,0,.464-.339c.274-.23.65-.552,1.06-.911l.112-.1-.027,0c.508-.02.965-.047,1.294-.075a2.259,2.259,0,0,0,.525-.068,2.1,2.1,0,0,0-.528-.024c-.339,0-.786,0-1.3.034h-.024v.017l-.115.1c-.406.362-.772.694-1.033.938a2.519,2.519,0,0,0-.43.433Z" fill="#eb996e"/>
        <path id="Path_1337" data-name="Path 1337" d="M217.706,78.957a2.292,2.292,0,0,0,.427-.315c.251-.21.6-.508.982-.847h1.524a2.468,2.468,0,0,0,.582-.037,2.567,2.567,0,0,0-.582-.058c-.359-.02-.857-.037-1.405-.047h-.19v.02c-.383.339-.718.647-.955.874a1.976,1.976,0,0,0-.383.41Z" fill="#eb996e"/>
        <path id="Path_1338" data-name="Path 1338" d="M210.756,56.314a22.928,22.928,0,0,1-1.1-3.766,7.922,7.922,0,0,1,.2-3.881c.064-.19.616-1.453.813-1.439.142,0-.186,1.185-.112,1.3a6.706,6.706,0,0,1,.874,3.9,17.549,17.549,0,0,1-.677,3.878" fill="#263238"/>
        <path id="Path_1339" data-name="Path 1339" d="M214.61,67.12a3.725,3.725,0,0,1-3.763-3.62l-.369-12.212c-.2-3.278,1.534-6.13,4.816-6.242h.3a5.872,5.872,0,0,1,5.724,5.537c.159,2.841.3,5.984.244,7.5a3.782,3.782,0,0,1-3.278,3.563s0,.732.024,1.656a3.725,3.725,0,0,1-3.7,3.807Z" fill="#ffbe9d"/>
        <path id="Path_1340" data-name="Path 1340" d="M218.291,61.7a7.613,7.613,0,0,1-4.064-1.314,3.943,3.943,0,0,0,4.094,2.11Z" fill="#eb996e"/>
        <path id="Path_1341" data-name="Path 1341" d="M216.07,56.6a.677.677,0,1,1,.748,1.094.86.86,0,0,1-.545,0,.677.677,0,0,1-.339-.22.6.6,0,0,1-.051-.576.908.908,0,0,1,.3-.4" fill="#90caf9"/>
        <path id="Path_1342" data-name="Path 1342" d="M220.489,53.025a.45.45,0,0,1-.447.444.43.43,0,0,1-.454-.417.454.454,0,0,1,.447-.444.43.43,0,0,1,.454.417Z" fill="#263238"/>
        <path id="Path_1343" data-name="Path 1343" d="M220.621,52.124c-.058.058-.393-.2-.877-.213s-.843.224-.9.163.037-.132.193-.24a1.246,1.246,0,0,1,.718-.2,1.223,1.223,0,0,1,.7.244C220.6,51.992,220.649,52.1,220.621,52.124Z" fill="#263238"/>
        <path id="Path_1344" data-name="Path 1344" d="M215.992,53.008a.45.45,0,0,1-.447.44.427.427,0,0,1-.454-.417.454.454,0,0,1,.447-.444.433.433,0,0,1,.454.42Z" fill="#263238"/>
        <path id="Path_1345" data-name="Path 1345" d="M215.961,52.128c-.058.058-.393-.2-.877-.213s-.843.224-.894.163.034-.129.19-.24a1.246,1.246,0,0,1,.718-.2,1.213,1.213,0,0,1,.7.244C215.941,52,215.988,52.1,215.961,52.128Z" fill="#263238"/>
        <path id="Path_1346" data-name="Path 1346" d="M217.516,55.765a3.018,3.018,0,0,1,.792-.125c.122,0,.24-.03.264-.115a.633.633,0,0,0-.075-.369l-.339-.948a16.115,16.115,0,0,1-.762-2.482,16.356,16.356,0,0,1,.958,2.415l.339.955a.715.715,0,0,1,.051.488.311.311,0,0,1-.207.176,1.016,1.016,0,0,1-.21.024A3.323,3.323,0,0,1,217.516,55.765Z" fill="#263238"/>
        <path id="Path_1347" data-name="Path 1347" d="M216.07,56.063c.081,0,.068.525.508.908s1.016.339,1.016.413-.129.1-.366.1a1.284,1.284,0,0,1-.837-.315,1.128,1.128,0,0,1-.393-.759C215.985,56.188,216.049,56.06,216.07,56.063Z" fill="#263238"/>
        <path id="Path_1348" data-name="Path 1348" d="M216.019,50.238c-.054.129-.535.054-1.1.108s-1.033.2-1.1.081c-.034-.058.051-.179.237-.3a1.87,1.87,0,0,1,.826-.264,1.8,1.8,0,0,1,.857.122C215.938,50.069,216.039,50.174,216.019,50.238Z" fill="#263238"/>
        <path id="Path_1349" data-name="Path 1349" d="M220.472,50.749c-.088.108-.417,0-.82-.03s-.742.058-.816-.058c-.034-.058.024-.166.173-.268a1.114,1.114,0,0,1,.677-.163,1.131,1.131,0,0,1,.65.234C220.472,50.583,220.5,50.7,220.472,50.749Z" fill="#263238"/>
        <path id="Path_1350" data-name="Path 1350" d="M210.682,53.662c-.054-.024-2.151-.677-2.134,1.463a1.628,1.628,0,0,0,2.181,1.632C210.732,56.7,210.682,53.662,210.682,53.662Z" fill="#ffbe9d"/>
        <path id="Path_1351" data-name="Path 1351" d="M210.065,55.948a.553.553,0,0,1-.1.054.369.369,0,0,1-.281,0,.935.935,0,0,1-.437-.83,1.243,1.243,0,0,1,.1-.538.43.43,0,0,1,.281-.291.186.186,0,0,1,.22.1c.03.058,0,.1.03.1s.044-.037.027-.125a.234.234,0,0,0-.088-.132.264.264,0,0,0-.207-.054.528.528,0,0,0-.389.339,1.29,1.29,0,0,0-.125.6.979.979,0,0,0,.555.928.4.4,0,0,0,.339-.061C210.062,56,210.072,55.951,210.065,55.948Z" fill="#eb996e"/>
        <path id="Path_1352" data-name="Path 1352" d="M219.937,47.126c.339-.2-.789-1.355-1.653-1.727a7.632,7.632,0,0,0-4.477-.538,5.2,5.2,0,0,0-3.316,2.489,8.487,8.487,0,0,0-.881,4.342A2.608,2.608,0,0,0,209.95,53c.308.464.881.755.881,1.4a.941.941,0,0,0,.2.643c.406.467.9.054,1.121-.356a6.151,6.151,0,0,0,.522-2.818,9.31,9.31,0,0,0-.142-2.3,2.409,2.409,0,0,1-.088-.728,2.11,2.11,0,0,1,.339-1.131,1.448,1.448,0,0,1,.193-.2,1.937,1.937,0,0,1,1.893-.339c1.229.406,2.222,1.077,3.627.474a1.778,1.778,0,0,0,.6-.542.627.627,0,0,1,.85,0Z" fill="#263238"/>
        <path id="Path_1353" data-name="Path 1353" d="M210.719,57.529a.121.121,0,0,1-.02.115.4.4,0,0,1-.285.146.745.745,0,0,1-.45-.1.755.755,0,0,1-.339-.45.8.8,0,0,1,.047-.566.786.786,0,0,1,.312-.339c.234-.129.4-.095.4-.078a2.556,2.556,0,0,0-.339.183.7.7,0,0,0-.261.752.657.657,0,0,0,.623.471.4.4,0,0,0,.24-.064C210.692,57.573,210.705,57.526,210.719,57.529Z" fill="#263238"/>
        <path id="Path_1354" data-name="Path 1354" d="M223.314,89.9c.044.017-.064.373-.373.7s-.657.461-.677.417.264-.234.545-.538S223.27,89.876,223.314,89.9Z" fill="#263238"/>
        <path id="Path_1355" data-name="Path 1355" d="M221.895,84.711l18.386-1.192a.61.61,0,0,0,.552-.461l2.621-10.5a.61.61,0,0,0-.6-.759l-11.484.186a.61.61,0,0,0-.583.461l-2.638,10.607a.6.6,0,0,1-.528.457l-6.347.677a.566.566,0,0,0,.623.522Z" fill="#455a64"/>
        <path id="Path_1356" data-name="Path 1356" d="M232.038,72.326a1.586,1.586,0,0,0-.173.091,1.124,1.124,0,0,0-.362.406,11.041,11.041,0,0,0-.576,1.968l-1.649,6.6c-.169.643-.312,1.27-.494,1.88a1.192,1.192,0,0,1-.247.423.921.921,0,0,1-.423.234,5.165,5.165,0,0,1-.891.091l-3.048.173-2.059.1-.559.024a.793.793,0,0,1-.2,0l.193-.024.559-.047,2.059-.146,3.048-.2a4.92,4.92,0,0,0,.867-.091.783.783,0,0,0,.366-.2,1.033,1.033,0,0,0,.217-.376c.176-.589.318-1.233.488-1.873l1.693-6.587.3-1.138a3.2,3.2,0,0,1,.318-.833,1.084,1.084,0,0,1,.393-.4A.644.644,0,0,1,232.038,72.326Z" fill="#263238"/>
        <path id="Path_1357" data-name="Path 1357" d="M243.37,72.072h-.454L241.7,72.1c-1.016.02-2.442.068-4.006.122s-2.98.1-4.006.108h-1.216l1.216-.041,4-.142c1.565-.058,2.98-.088,4.006-.088h1.555C243.329,72.062,243.37,72.065,243.37,72.072Z" fill="#263238"/>
        <path id="Path_1358" data-name="Path 1358" d="M237.328,74.039a.339.339,0,1,1-.341.169.339.339,0,0,1,.341-.169" fill="#fff"/>
        <path id="Path_1359" data-name="Path 1359" d="M235.845,83.807l-10.387.654h0s1.151,4.155,3.553,4.582c2.225.4,7.346-4.369,7.346-4.369Z" fill="#ffbe9d"/>
        <path id="Path_1360" data-name="Path 1360" d="M231.648,84.288s.677-.918,1.145-.911,1.693-.156,1.693-.156a4.044,4.044,0,0,0,.908-.85c.3-.444.715-.948.9-.85s.261.156.085.562-.6,1.226-.6,1.226l.423.047s.721-2.09,1.29-2c0,0,.257.183.207.4,0,0,.369-.586.528-.44s.1.677,0,1.182-.2.85-.2.85l.44-.091s1.27-2.032,1.565-1.957.251.433.119.694-.86,1.534-.86,1.534-2.032.843-2.432.975-3.729,1.514-3.729,1.514Z" fill="#ffbe9d"/>
        <path id="Path_1361" data-name="Path 1361" d="M232.085,84.928c-.027.034-.234-.1-.339-.379a.569.569,0,0,1,0-.386c.037-.095.095-.132.112-.119a1.187,1.187,0,0,0,.071.444C232.031,84.721,232.123,84.894,232.085,84.928Z" fill="#eb996e"/>
        <path id="Path_1362" data-name="Path 1362" d="M228.4,87.071a1.419,1.419,0,0,1,.176-.677,3.387,3.387,0,0,1,1.09-1.307,5.564,5.564,0,0,1,1.521-.755,2.411,2.411,0,0,1,.677-.18,3.271,3.271,0,0,1-.633.295,7.068,7.068,0,0,0-1.463.782,3.725,3.725,0,0,0-1.084,1.219C228.489,86.814,228.428,87.078,228.4,87.071Z" fill="#eb996e"/>
        <path id="Path_1363" data-name="Path 1363" d="M235.8,83.288c.027.041-.278.281-.715.461a1.511,1.511,0,0,1-.83.173,3.336,3.336,0,0,1,.762-.339,3.461,3.461,0,0,1,.782-.295Z" fill="#eb996e"/>
        <path id="Path_1364" data-name="Path 1364" d="M237.8,81.71a2.827,2.827,0,0,1-.095.5,3.15,3.15,0,0,1-.4,1.2,1.89,1.89,0,0,1-1.077.677,1.236,1.236,0,0,1-.511.078,1.887,1.887,0,0,1,.474-.2,2.012,2.012,0,0,0,.969-.647,3.9,3.9,0,0,0,.42-1.124C237.67,81.873,237.775,81.7,237.8,81.71Z" fill="#eb996e"/>
      </g>
      <g id="freepik--Floor--inject-434">
        <path id="Path_1365" data-name="Path 1365" d="M235.235,162c0,.051-49.422.088-110.372.088S14.478,162.052,14.478,162s49.412-.088,110.385-.088S235.235,161.954,235.235,162Z" fill="#263238"/>
      </g>
    </g>
  </g>
</svg>
